  0
SECTION
  2
HEADER
  9
$ACADVER
  1
AC1009
  9
$INSBASE
 10
0.0
 20
0.0
 30
0.0
  9
$EXTMIN
 10
0.0
 20
0.0
 30
0.0
  9
$EXTMAX
 10
0.0
 20
0.0
 30
0.0
  0
ENDSEC
  0
SECTION
  2
TABLES
  0
TABLE
  2
VPORT
 70
1
  0
VPORT
  2
*ACTIVE
 70
0
 10
0.0
 20
0.0
 11
1.0
 21
1.0
 12
-5.0
 22
1.0
 13
0.0
 23
0.0
 14
0.1
 24
0.1
 15
0.1
 25
0.1
 16
0.0
 26
0.0
 36
1.0
 17
0.0
 27
0.0
 37
0.0
 40
10.0
 41
1.0
 42
50.0
 43
0.0
 44
0.0
 50
0.0
 51
0.0
 71
0
 72
100
 73
1
 74
1
 75
0
 76
0
 77
0
 78
0
  0
ENDTAB
  0
TABLE
  2
LTYPE
 70
8
  0
LTYPE
  2
CONTINUOUS
 70
0
  3
Solid line
 72
65
 73
0
 40
0.0
  0
LTYPE
  2
DOT
 70
0
  3
. . . . . . .
 72
65
 73
2
 40
0.25
 49
0.0
 49
-0.25
  0
LTYPE
  2
DASHED
 70
0
  3
__ __ __ __ __
 72
65
 73
2
 40
0.8
 49
0.5
 49
-0.3
  0
LTYPE
  2
DASHDOT
 70
0
  3
__ . __ . __ .
 72
65
 73
4
 40
1.0
 49
0.5
 49
-0.25
 49
0.0
 49
-0.25
  0
LTYPE
  2
DIVIDE
 70
0
  3
____ . . ____ . . 
 72
65
 73
6
 40
1.25
 49
0.5
 49
-0.25
 49
0.0
 49
-0.25
 49
0.0
 49
-0.25
  0
LTYPE
  2
BORDER
 70
0
  3
__ __ . __ __ . 
 72
65
 73
6
 40
1.75
 49
0.5
 49
-0.25
 49
0.5
 49
-0.25
 49
0.0
 49
-0.25
  0
LTYPE
  2
HIDDEN
 70
0
  3
__ __ __ __ __
 72
65
 73
2
 40
0.4
 49
0.25
 49
-0.25
  0
LTYPE
  2
CENTER
 70
0
  3
____ _ ____ _ __
 72
65
 73
4
 40
2.0
 49
1.25
 49
-0.25
 49
0.25
 49
-0.25
  0
ENDTAB
  0
TABLE
  2
LAYER
 70
1
  0
LAYER
  2
PYDXF
 70
64
 62
7
  6
continuous
  0
ENDTAB
  0
TABLE
  2
STYLE
 70
1
  0
STYLE
  2
STANDARD
 70
0
 40
0
 41
1.0
 50
0.0
 71
0
 42
1
 3
ARIAL.TTF
 4

  0
ENDTAB
  0
TABLE
  2
VIEW
 70
1
  0
VIEW
  2
BF_TOPVIEW
 70
0
 40
120.0
 10
0.0
 20
0.0
 41
200.0
 11
0.0
 21
0.0
 31
1.0
 12
0.0
 22
0.0
 32
0.0
 42
50.0
 43
0.0
 44
0.0
 50
0.0
 71
0
  0
ENDTAB
  0
ENDSEC
  0
SECTION
  2
BLOCKS
  0
ENDSEC
  0
SECTION
  2
ENTITIES
  0
LINE
  8
0
 10
7.638227939605713
 20
-57.005340576171875
 30
0.0
 11
7.638387680053711
 21
-55.41114807128906
 31
0.0
  0
LINE
  8
0
 10
7.638387680053711
 20
-55.41114807128906
 30
0.0
 11
7.639491081237793
 21
-54.16911315917969
 31
0.0
  0
LINE
  8
0
 10
7.639491081237793
 20
-54.16911315917969
 30
0.0
 11
7.642436504364014
 21
-53.22243118286133
 31
0.0
  0
LINE
  8
0
 10
7.642436504364014
 20
-53.22243118286133
 30
0.0
 11
7.648085117340088
 21
-52.51935958862305
 31
0.0
  0
LINE
  8
0
 10
7.648085117340088
 20
-52.51935958862305
 30
0.0
 11
7.657235622406006
 21
-52.01311111450195
 31
0.0
  0
LINE
  8
0
 10
7.657235622406006
 20
-52.01311111450195
 30
0.0
 11
7.670658588409424
 21
-51.66206741333008
 31
0.0
  0
LINE
  8
0
 10
7.670658588409424
 20
-51.66206741333008
 30
0.0
 11
7.6890645027160645
 21
-51.429569244384766
 31
0.0
  0
LINE
  8
0
 10
7.6890645027160645
 20
-51.429569244384766
 30
0.0
 11
7.7131266593933105
 21
-51.284027099609375
 31
0.0
  0
LINE
  8
0
 10
7.7131266593933105
 20
-51.284027099609375
 30
0.0
 11
7.743463039398193
 21
-51.19888687133789
 31
0.0
  0
LINE
  8
0
 10
7.743463039398193
 20
-51.19888687133789
 30
0.0
 11
7.780655860900879
 21
-51.15265655517578
 31
0.0
  0
LINE
  8
0
 10
7.780655860900879
 20
-51.15265655517578
 30
0.0
 11
7.825232982635498
 21
-51.128875732421875
 31
0.0
  0
LINE
  8
0
 10
7.825232982635498
 20
-51.128875732421875
 30
0.0
 11
7.877681732177734
 21
-51.11612319946289
 31
0.0
  0
LINE
  8
0
 10
7.877681732177734
 20
-51.11612319946289
 30
0.0
 11
7.938436985015869
 21
-51.108009338378906
 31
0.0
  0
LINE
  8
0
 10
7.938436985015869
 20
-51.108009338378906
 30
0.0
 11
8.007928848266602
 21
-51.10259246826172
 31
0.0
  0
LINE
  8
0
 10
8.007928848266602
 20
-51.10259246826172
 30
0.0
 11
8.086751937866211
 21
-51.09928894042969
 31
0.0
  0
LINE
  8
0
 10
8.086751937866211
 20
-51.09928894042969
 30
0.0
 11
8.175745010375977
 21
-51.09757614135742
 31
0.0
  0
LINE
  8
0
 10
8.175745010375977
 20
-51.09757614135742
 30
0.0
 11
8.275995254516602
 21
-51.096797943115234
 31
0.0
  0
LINE
  8
0
 10
8.275995254516602
 20
-51.096797943115234
 30
0.0
 11
8.388842582702637
 21
-51.09632110595703
 31
0.0
  0
LINE
  8
0
 10
8.388842582702637
 20
-51.09632110595703
 30
0.0
 11
8.51587200164795
 21
-51.09537887573242
 31
0.0
  0
LINE
  8
0
 10
8.51587200164795
 20
-51.09537887573242
 30
0.0
 11
8.658923149108887
 21
-51.09321594238281
 31
0.0
  0
LINE
  8
0
 10
8.658923149108887
 20
-51.09321594238281
 30
0.0
 11
8.82008171081543
 21
-51.088966369628906
 31
0.0
  0
LINE
  8
0
 10
8.82008171081543
 20
-51.088966369628906
 30
0.0
 11
9.001681327819824
 21
-51.08173370361328
 31
0.0
  0
LINE
  8
0
 10
9.001681327819824
 20
-51.08173370361328
 30
0.0
 11
9.20630931854248
 21
-51.070560455322266
 31
0.0
  0
LINE
  8
0
 10
9.20630931854248
 20
-51.070560455322266
 30
0.0
 11
9.436798095703125
 21
-51.0544319152832
 31
0.0
  0
LINE
  8
0
 10
9.436798095703125
 20
-51.0544319152832
 30
0.0
 11
9.696233749389648
 21
-51.03226852416992
 31
0.0
  0
LINE
  8
0
 10
9.696233749389648
 20
-51.03226852416992
 30
0.0
 11
9.987939834594727
 21
-51.00294876098633
 31
0.0
  0
LINE
  8
0
 10
9.987939834594727
 20
-51.00294876098633
 30
0.0
 11
10.315299034118652
 21
-50.965293884277344
 31
0.0
  0
LINE
  8
0
 10
10.315299034118652
 20
-50.965293884277344
 30
0.0
 11
10.6813383102417
 21
-50.91816329956055
 31
0.0
  0
LINE
  8
0
 10
10.6813383102417
 20
-50.91816329956055
 30
0.0
 11
11.088631629943848
 21
-50.86043167114258
 31
0.0
  0
LINE
  8
0
 10
11.088631629943848
 20
-50.86043167114258
 30
0.0
 11
11.53930950164795
 21
-50.79096984863281
 31
0.0
  0
LINE
  8
0
 10
11.53930950164795
 20
-50.79096984863281
 30
0.0
 11
12.035051345825195
 21
-50.70871353149414
 31
0.0
  0
LINE
  8
0
 10
12.035051345825195
 20
-50.70871353149414
 30
0.0
 11
12.577082633972168
 21
-50.61259460449219
 31
0.0
  0
LINE
  8
0
 10
12.577082633972168
 20
-50.61259460449219
 30
0.0
 11
13.16618824005127
 21
-50.501556396484375
 31
0.0
  0
LINE
  8
0
 10
13.16618824005127
 20
-50.501556396484375
 30
0.0
 11
13.802699089050293
 21
-50.374610900878906
 31
0.0
  0
LINE
  8
0
 10
13.802699089050293
 20
-50.374610900878906
 30
0.0
 11
14.486499786376953
 21
-50.230743408203125
 31
0.0
  0
LINE
  8
0
 10
14.486499786376953
 20
-50.230743408203125
 30
0.0
 11
15.217021942138672
 21
-50.06898498535156
 31
0.0
  0
LINE
  8
0
 10
15.217021942138672
 20
-50.06898498535156
 30
0.0
 11
15.99325180053711
 21
-49.888389587402344
 31
0.0
  0
LINE
  8
0
 10
15.99325180053711
 20
-49.888389587402344
 30
0.0
 11
16.81372833251953
 21
-49.688026428222656
 31
0.0
  0
LINE
  8
0
 10
16.81372833251953
 20
-49.688026428222656
 30
0.0
 11
17.676528930664062
 21
-49.467002868652344
 31
0.0
  0
LINE
  8
0
 10
17.676528930664062
 20
-49.467002868652344
 30
0.0
 11
18.579252243041992
 21
-49.22463607788086
 31
0.0
  0
LINE
  8
0
 10
18.579252243041992
 20
-49.22463607788086
 30
0.0
 11
19.518957138061523
 21
-48.96061706542969
 31
0.0
  0
LINE
  8
0
 10
19.518957138061523
 20
-48.96061706542969
 30
0.0
 11
20.49217414855957
 21
-48.67502975463867
 31
0.0
  0
LINE
  8
0
 10
20.49217414855957
 20
-48.67502975463867
 30
0.0
 11
21.494888305664062
 21
-48.36832809448242
 31
0.0
  0
LINE
  8
0
 10
21.494888305664062
 20
-48.36832809448242
 30
0.0
 11
22.522560119628906
 21
-48.04138946533203
 31
0.0
  0
LINE
  8
0
 10
22.522560119628906
 20
-48.04138946533203
 30
0.0
 11
23.57010841369629
 21
-47.69548034667969
 31
0.0
  0
LINE
  8
0
 10
23.57010841369629
 20
-47.69548034667969
 30
0.0
 11
24.631916046142578
 21
-47.33223342895508
 31
0.0
  0
LINE
  8
0
 10
24.631916046142578
 20
-47.33223342895508
 30
0.0
 11
25.701839447021484
 21
-46.953697204589844
 31
0.0
  0
LINE
  8
0
 10
25.701839447021484
 20
-46.953697204589844
 30
0.0
 11
26.773181915283203
 21
-46.56230926513672
 31
0.0
  0
LINE
  8
0
 10
26.773181915283203
 20
-46.56230926513672
 30
0.0
 11
27.838741302490234
 21
-46.160888671875
 31
0.0
  0
LINE
  8
0
 10
27.838741302490234
 20
-46.160888671875
 30
0.0
 11
28.890745162963867
 21
-45.752655029296875
 31
0.0
  0
LINE
  8
0
 10
28.890745162963867
 20
-45.752655029296875
 30
0.0
 11
29.920915603637695
 21
-45.34123992919922
 31
0.0
  0
LINE
  8
0
 10
29.920915603637695
 20
-45.34123992919922
 30
0.0
 11
30.92060089111328
 21
-44.930511474609375
 31
0.0
  0
LINE
  8
0
 10
30.92060089111328
 20
-44.930511474609375
 30
0.0
 11
31.88174057006836
 21
-44.52422332763672
 31
0.0
  0
LINE
  8
0
 10
31.88174057006836
 20
-44.52422332763672
 30
0.0
 11
32.79728317260742
 21
-44.12565612792969
 31
0.0
  0
LINE
  8
0
 10
32.79728317260742
 20
-44.12565612792969
 30
0.0
 11
33.66120910644531
 21
-43.73768997192383
 31
0.0
  0
LINE
  8
0
 10
33.66120910644531
 20
-43.73768997192383
 30
0.0
 11
34.46855163574219
 21
-43.36277389526367
 31
0.0
  0
LINE
  8
0
 10
34.46855163574219
 20
-43.36277389526367
 30
0.0
 11
35.215370178222656
 21
-43.002899169921875
 31
0.0
  0
LINE
  8
0
 10
35.215370178222656
 20
-43.002899169921875
 30
0.0
 11
35.89877700805664
 21
-42.659671783447266
 31
0.0
  0
LINE
  8
0
 10
35.89877700805664
 20
-42.659671783447266
 30
0.0
 11
36.516902923583984
 21
-42.33422088623047
 31
0.0
  0
LINE
  8
0
 10
36.516902923583984
 20
-42.33422088623047
 30
0.0
 11
37.068946838378906
 21
-42.027286529541016
 31
0.0
  0
LINE
  8
0
 10
37.068946838378906
 20
-42.027286529541016
 30
0.0
 11
37.55510711669922
 21
-41.7391471862793
 31
0.0
  0
LINE
  8
0
 10
37.55510711669922
 20
-41.7391471862793
 30
0.0
 11
37.97665786743164
 21
-41.46966552734375
 31
0.0
  0
LINE
  8
0
 10
37.97665786743164
 20
-41.46966552734375
 30
0.0
 11
38.335899353027344
 21
-41.21827697753906
 31
0.0
  0
LINE
  8
0
 10
38.335899353027344
 20
-41.21827697753906
 30
0.0
 11
38.63615036010742
 21
-40.98398208618164
 31
0.0
  0
LINE
  8
0
 10
38.63615036010742
 20
-40.98398208618164
 30
0.0
 11
38.881370544433594
 21
-40.765384674072266
 31
0.0
  0
LINE
  8
0
 10
38.881370544433594
 20
-40.765384674072266
 30
0.0
 11
39.07524871826172
 21
-40.56077194213867
 31
0.0
  0
LINE
  8
0
 10
39.07524871826172
 20
-40.56077194213867
 30
0.0
 11
39.22098159790039
 21
-40.36813735961914
 31
0.0
  0
LINE
  8
0
 10
39.22098159790039
 20
-40.36813735961914
 30
0.0
 11
39.3213005065918
 21
-40.18516159057617
 31
0.0
  0
LINE
  8
0
 10
39.3213005065918
 20
-40.18516159057617
 30
0.0
 11
39.37843322753906
 21
-40.00923156738281
 31
0.0
  0
LINE
  8
0
 10
39.37843322753906
 20
-40.00923156738281
 30
0.0
 11
39.39414978027344
 21
-39.83742141723633
 31
0.0
  0
LINE
  8
0
 10
39.39414978027344
 20
-39.83742141723633
 30
0.0
 11
39.369728088378906
 21
-39.66653060913086
 31
0.0
  0
LINE
  8
0
 10
39.369728088378906
 20
-39.66653060913086
 30
0.0
 11
39.30593490600586
 21
-39.49302291870117
 31
0.0
  0
LINE
  8
0
 10
39.30593490600586
 20
-39.49302291870117
 30
0.0
 11
39.203086853027344
 21
-39.313079833984375
 31
0.0
  0
LINE
  8
0
 10
39.203086853027344
 20
-39.313079833984375
 30
0.0
 11
39.06103515625
 21
-39.122596740722656
 31
0.0
  0
LINE
  8
0
 10
39.06103515625
 20
-39.122596740722656
 30
0.0
 11
38.879085540771484
 21
-38.917137145996094
 31
0.0
  0
LINE
  8
0
 10
38.879085540771484
 20
-38.917137145996094
 30
0.0
 11
38.656124114990234
 21
-38.691986083984375
 31
0.0
  0
LINE
  8
0
 10
38.656124114990234
 20
-38.691986083984375
 30
0.0
 11
38.39054870605469
 21
-38.442138671875
 31
0.0
  0
LINE
  8
0
 10
38.39054870605469
 20
-38.442138671875
 30
0.0
 11
38.080745697021484
 21
-38.16278839111328
 31
0.0
  0
LINE
  8
0
 10
38.080745697021484
 20
-38.16278839111328
 30
0.0
 11
37.725547790527344
 21
-37.8497314453125
 31
0.0
  0
LINE
  8
0
 10
37.725547790527344
 20
-37.8497314453125
 30
0.0
 11
37.32426452636719
 21
-37.49945068359375
 31
0.0
  0
LINE
  8
0
 10
37.32426452636719
 20
-37.49945068359375
 30
0.0
 11
36.8766975402832
 21
-37.10910415649414
 31
0.0
  0
LINE
  8
0
 10
36.8766975402832
 20
-37.10910415649414
 30
0.0
 11
36.38311767578125
 21
-36.67653274536133
 31
0.0
  0
LINE
  8
0
 10
36.38311767578125
 20
-36.67653274536133
 30
0.0
 11
35.84429168701172
 21
-36.20023727416992
 31
0.0
  0
LINE
  8
0
 10
35.84429168701172
 20
-36.20023727416992
 30
0.0
 11
35.26148223876953
 21
-35.6794319152832
 31
0.0
  0
LINE
  8
0
 10
35.26148223876953
 20
-35.6794319152832
 30
0.0
 11
34.636409759521484
 21
-35.11396026611328
 31
0.0
  0
LINE
  8
0
 10
34.636409759521484
 20
-35.11396026611328
 30
0.0
 11
33.9713249206543
 21
-34.50439453125
 31
0.0
  0
LINE
  8
0
 10
33.9713249206543
 20
-34.50439453125
 30
0.0
 11
33.2689094543457
 21
-33.85194396972656
 31
0.0
  0
LINE
  8
0
 10
33.2689094543457
 20
-33.85194396972656
 30
0.0
 11
32.53236389160156
 21
-33.15851974487305
 31
0.0
  0
LINE
  8
0
 10
32.53236389160156
 20
-33.15851974487305
 30
0.0
 11
31.76537322998047
 21
-32.42668914794922
 31
0.0
  0
LINE
  8
0
 10
31.76537322998047
 20
-32.42668914794922
 30
0.0
 11
30.97205352783203
 21
-31.659683227539062
 31
0.0
  0
LINE
  8
0
 10
30.97205352783203
 20
-31.659683227539062
 30
0.0
 11
30.15675926208496
 21
-30.861072540283203
 31
0.0
  0
LINE
  8
0
 10
30.15675926208496
 20
-30.861072540283203
 30
0.0
 11
29.323949813842773
 21
-30.034709930419922
 31
0.0
  0
LINE
  8
0
 10
29.323949813842773
 20
-30.034709930419922
 30
0.0
 11
28.47820281982422
 21
-29.184696197509766
 31
0.0
  0
LINE
  8
0
 10
28.47820281982422
 20
-29.184696197509766
 30
0.0
 11
27.62420082092285
 21
-28.315372467041016
 31
0.0
  0
LINE
  8
0
 10
27.62420082092285
 20
-28.315372467041016
 30
0.0
 11
26.766742706298828
 21
-27.43134307861328
 31
0.0
  0
LINE
  8
0
 10
26.766742706298828
 20
-27.43134307861328
 30
0.0
 11
25.910737991333008
 21
-26.537445068359375
 31
0.0
  0
LINE
  8
0
 10
25.910737991333008
 20
-26.537445068359375
 30
0.0
 11
25.061201095581055
 21
-25.63876724243164
 31
0.0
  0
LINE
  8
0
 10
25.061201095581055
 20
-25.63876724243164
 30
0.0
 11
24.223270416259766
 21
-24.740665435791016
 31
0.0
  0
LINE
  8
0
 10
24.223270416259766
 20
-24.740665435791016
 30
0.0
 11
23.402183532714844
 21
-23.84872055053711
 31
0.0
  0
LINE
  8
0
 10
23.402183532714844
 20
-23.84872055053711
 30
0.0
 11
22.603282928466797
 21
-22.968788146972656
 31
0.0
  0
LINE
  8
0
 10
22.603282928466797
 20
-22.968788146972656
 30
0.0
 11
21.83203887939453
 21
-22.106948852539062
 31
0.0
  0
LINE
  8
0
 10
21.83203887939453
 20
-22.106948852539062
 30
0.0
 11
21.094011306762695
 21
-21.26953887939453
 31
0.0
  0
LINE
  8
0
 10
21.094011306762695
 20
-21.26953887939453
 30
0.0
 11
20.394649505615234
 21
-20.462875366210938
 31
0.0
  0
LINE
  8
0
 10
20.394649505615234
 20
-20.462875366210938
 30
0.0
 11
19.73871612548828
 21
-19.69257354736328
 31
0.0
  0
LINE
  8
0
 10
19.73871612548828
 20
-19.69257354736328
 30
0.0
 11
19.13016128540039
 21
-18.963443756103516
 31
0.0
  0
LINE
  8
0
 10
19.13016128540039
 20
-18.963443756103516
 30
0.0
 11
18.572139739990234
 21
-18.27945327758789
 31
0.0
  0
LINE
  8
0
 10
18.572139739990234
 20
-18.27945327758789
 30
0.0
 11
18.066986083984375
 21
-17.643735885620117
 31
0.0
  0
LINE
  8
0
 10
18.066986083984375
 20
-17.643735885620117
 30
0.0
 11
17.616228103637695
 21
-17.058609008789062
 31
0.0
  0
LINE
  8
0
 10
17.616228103637695
 20
-17.058609008789062
 30
0.0
 11
17.2205867767334
 21
-16.525537490844727
 31
0.0
  0
LINE
  8
0
 10
17.2205867767334
 20
-16.525537490844727
 30
0.0
 11
16.879972457885742
 21
-16.0451717376709
 31
0.0
  0
LINE
  8
0
 10
16.879972457885742
 20
-16.0451717376709
 30
0.0
 11
16.59347915649414
 21
-15.617319107055664
 31
0.0
  0
LINE
  8
0
 10
16.59347915649414
 20
-15.617319107055664
 30
0.0
 11
16.35939598083496
 21
-15.240957260131836
 31
0.0
  0
LINE
  8
0
 10
16.35939598083496
 20
-15.240957260131836
 30
0.0
 11
16.175207138061523
 21
-14.914238929748535
 31
0.0
  0
LINE
  8
0
 10
16.175207138061523
 20
-14.914238929748535
 30
0.0
 11
16.03758430480957
 21
-14.634474754333496
 31
0.0
  0
LINE
  8
0
 10
16.03758430480957
 20
-14.634474754333496
 30
0.0
 11
15.942423820495605
 21
-14.398188591003418
 31
0.0
  0
LINE
  8
0
 10
15.942423820495605
 20
-14.398188591003418
 30
0.0
 11
15.885421752929688
 21
-14.201513290405273
 31
0.0
  0
LINE
  8
0
 10
15.885421752929688
 20
-14.201513290405273
 30
0.0
 11
15.862696647644043
 21
-14.040704727172852
 31
0.0
  0
LINE
  8
0
 10
15.862696647644043
 20
-14.040704727172852
 30
0.0
 11
15.870858192443848
 21
-13.912166595458984
 31
0.0
  0
LINE
  8
0
 10
15.870858192443848
 20
-13.912166595458984
 30
0.0
 11
15.907013893127441
 21
-13.812463760375977
 31
0.0
  0
LINE
  8
0
 10
15.907013893127441
 20
-13.812463760375977
 30
0.0
 11
15.96875286102295
 21
-13.738320350646973
 31
0.0
  0
LINE
  8
0
 10
15.96875286102295
 20
-13.738320350646973
 30
0.0
 11
16.054166793823242
 21
-13.686619758605957
 31
0.0
  0
LINE
  8
0
 10
16.054166793823242
 20
-13.686619758605957
 30
0.0
 11
16.161834716796875
 21
-13.654396057128906
 31
0.0
  0
LINE
  8
0
 10
16.161834716796875
 20
-13.654396057128906
 30
0.0
 11
16.29082679748535
 21
-13.6388578414917
 31
0.0
  0
LINE
  8
0
 10
16.29082679748535
 20
-13.6388578414917
 30
0.0
 11
16.440711975097656
 21
-13.63735580444336
 31
0.0
  0
LINE
  8
0
 10
16.440711975097656
 20
-13.63735580444336
 30
0.0
 11
16.611543655395508
 21
-13.647401809692383
 31
0.0
  0
LINE
  8
0
 10
16.611543655395508
 20
-13.647401809692383
 30
0.0
 11
16.803871154785156
 21
-13.666677474975586
 31
0.0
  0
LINE
  8
0
 10
16.803871154785156
 20
-13.666677474975586
 30
0.0
 11
17.01873207092285
 21
-13.693010330200195
 31
0.0
  0
LINE
  8
0
 10
17.01873207092285
 20
-13.693010330200195
 30
0.0
 11
17.257570266723633
 21
-13.724384307861328
 31
0.0
  0
LINE
  8
0
 10
17.257570266723633
 20
-13.724384307861328
 30
0.0
 11
17.5217227935791
 21
-13.7589111328125
 31
0.0
  0
LINE
  8
0
 10
17.5217227935791
 20
-13.7589111328125
 30
0.0
 11
17.812156677246094
 21
-13.794815063476562
 31
0.0
  0
LINE
  8
0
 10
17.812156677246094
 20
-13.794815063476562
 30
0.0
 11
18.129444122314453
 21
-13.830431938171387
 31
0.0
  0
LINE
  8
0
 10
18.129444122314453
 20
-13.830431938171387
 30
0.0
 11
18.473779678344727
 21
-13.864204406738281
 31
0.0
  0
LINE
  8
0
 10
18.473779678344727
 20
-13.864204406738281
 30
0.0
 11
18.8449649810791
 21
-13.894691467285156
 31
0.0
  0
LINE
  8
0
 10
18.8449649810791
 20
-13.894691467285156
 30
0.0
 11
19.242422103881836
 21
-13.92055892944336
 31
0.0
  0
LINE
  8
0
 10
19.242422103881836
 20
-13.92055892944336
 30
0.0
 11
19.665178298950195
 21
-13.940585136413574
 31
0.0
  0
LINE
  8
0
 10
19.665178298950195
 20
-13.940585136413574
 30
0.0
 11
20.111879348754883
 21
-13.953661918640137
 31
0.0
  0
LINE
  8
0
 10
20.111879348754883
 20
-13.953661918640137
 30
0.0
 11
20.580785751342773
 21
-13.958791732788086
 31
0.0
  0
LINE
  8
0
 10
20.580785751342773
 20
-13.958791732788086
 30
0.0
 11
21.069774627685547
 21
-13.955081939697266
 31
0.0
  0
LINE
  8
0
 10
21.069774627685547
 20
-13.955081939697266
 30
0.0
 11
21.576326370239258
 21
-13.94175910949707
 31
0.0
  0
LINE
  8
0
 10
21.576326370239258
 20
-13.94175910949707
 30
0.0
 11
22.097545623779297
 21
-13.918159484863281
 31
0.0
  0
LINE
  8
0
 10
22.097545623779297
 20
-13.918159484863281
 30
0.0
 11
22.630264282226562
 21
-13.883744239807129
 31
0.0
  0
LINE
  8
0
 10
22.630264282226562
 20
-13.883744239807129
 30
0.0
 11
23.171327590942383
 21
-13.838164329528809
 31
0.0
  0
LINE
  8
0
 10
23.171327590942383
 20
-13.838164329528809
 30
0.0
 11
23.717670440673828
 21
-13.781257629394531
 31
0.0
  0
LINE
  8
0
 10
23.717670440673828
 20
-13.781257629394531
 30
0.0
 11
24.266305923461914
 21
-13.713059425354004
 31
0.0
  0
LINE
  8
0
 10
24.266305923461914
 20
-13.713059425354004
 30
0.0
 11
24.8143310546875
 21
-13.633792877197266
 31
0.0
  0
LINE
  8
0
 10
24.8143310546875
 20
-13.633792877197266
 30
0.0
 11
25.358951568603516
 21
-13.543880462646484
 31
0.0
  0
LINE
  8
0
 10
25.358951568603516
 20
-13.543880462646484
 30
0.0
 11
25.89742660522461
 21
-13.44393539428711
 31
0.0
  0
LINE
  8
0
 10
25.89742660522461
 20
-13.44393539428711
 30
0.0
 11
26.427120208740234
 21
-13.334762573242188
 31
0.0
  0
LINE
  8
0
 10
26.427120208740234
 20
-13.334762573242188
 30
0.0
 11
26.945480346679688
 21
-13.21735954284668
 31
0.0
  0
LINE
  8
0
 10
26.945480346679688
 20
-13.21735954284668
 30
0.0
 11
27.450037002563477
 21
-13.092921257019043
 31
0.0
  0
LINE
  8
0
 10
27.450037002563477
 20
-13.092921257019043
 30
0.0
 11
27.938413619995117
 21
-12.962835311889648
 31
0.0
  0
LINE
  8
0
 10
27.938413619995117
 20
-12.962835311889648
 30
0.0
 11
28.408306121826172
 21
-12.828678131103516
 31
0.0
  0
LINE
  8
0
 10
28.408306121826172
 20
-12.828678131103516
 30
0.0
 11
28.857513427734375
 21
-12.692209243774414
 31
0.0
  0
LINE
  8
0
 10
28.857513427734375
 20
-12.692209243774414
 30
0.0
 11
29.28394889831543
 21
-12.555187225341797
 31
0.0
  0
LINE
  8
0
 10
29.28394889831543
 20
-12.555187225341797
 30
0.0
 11
29.685691833496094
 21
-12.419149398803711
 31
0.0
  0
LINE
  8
0
 10
29.685691833496094
 20
-12.419149398803711
 30
0.0
 11
30.060997009277344
 21
-12.285394668579102
 31
0.0
  0
LINE
  8
0
 10
30.060997009277344
 20
-12.285394668579102
 30
0.0
 11
30.408283233642578
 21
-12.15498161315918
 31
0.0
  0
LINE
  8
0
 10
30.408283233642578
 20
-12.15498161315918
 30
0.0
 11
30.72614097595215
 21
-12.028721809387207
 31
0.0
  0
LINE
  8
0
 10
30.72614097595215
 20
-12.028721809387207
 30
0.0
 11
31.013324737548828
 21
-11.907187461853027
 31
0.0
  0
LINE
  8
0
 10
31.013324737548828
 20
-11.907187461853027
 30
0.0
 11
31.268775939941406
 21
-11.790711402893066
 31
0.0
  0
LINE
  8
0
 10
31.268775939941406
 20
-11.790711402893066
 30
0.0
 11
31.491586685180664
 21
-11.679377555847168
 31
0.0
  0
LINE
  8
0
 10
31.491586685180664
 20
-11.679377555847168
 30
0.0
 11
31.6810245513916
 21
-11.573036193847656
 31
0.0
  0
LINE
  8
0
 10
31.6810245513916
 20
-11.573036193847656
 30
0.0
 11
31.836536407470703
 21
-11.471294403076172
 31
0.0
  0
LINE
  8
0
 10
31.836536407470703
 20
-11.471294403076172
 30
0.0
 11
31.957725524902344
 21
-11.37350845336914
 31
0.0
  0
LINE
  8
0
 10
31.957725524902344
 20
-11.37350845336914
 30
0.0
 11
32.044368743896484
 21
-11.27880573272705
 31
0.0
  0
LINE
  8
0
 10
32.044368743896484
 20
-11.27880573272705
 30
0.0
 11
32.09640884399414
 21
-11.186064720153809
 31
0.0
  0
LINE
  8
0
 10
32.09640884399414
 20
-11.186064720153809
 30
0.0
 11
32.11387634277344
 21
-11.09394359588623
 31
0.0
  0
LINE
  8
0
 10
32.11387634277344
 20
-11.09394359588623
 30
0.0
 11
32.096893310546875
 21
-11.000885009765625
 31
0.0
  0
LINE
  8
0
 10
32.096893310546875
 20
-11.000885009765625
 30
0.0
 11
32.04560470581055
 21
-10.905110359191895
 31
0.0
  0
LINE
  8
0
 10
32.04560470581055
 20
-10.905110359191895
 30
0.0
 11
31.96025848388672
 21
-10.8046293258667
 31
0.0
  0
LINE
  8
0
 10
31.96025848388672
 20
-10.8046293258667
 30
0.0
 11
31.841161727905273
 21
-10.697240829467773
 31
0.0
  0
LINE
  8
0
 10
31.841161727905273
 20
-10.697240829467773
 30
0.0
 11
31.688671112060547
 21
-10.580516815185547
 31
0.0
  0
LINE
  8
0
 10
31.688671112060547
 20
-10.580516815185547
 30
0.0
 11
31.50322151184082
 21
-10.451822280883789
 31
0.0
  0
LINE
  8
0
 10
31.50322151184082
 20
-10.451822280883789
 30
0.0
 11
31.285301208496094
 21
-10.308300018310547
 31
0.0
  0
LINE
  8
0
 10
31.285301208496094
 20
-10.308300018310547
 30
0.0
 11
31.035476684570312
 21
-10.14688491821289
 31
0.0
  0
LINE
  8
0
 10
31.035476684570312
 20
-10.14688491821289
 30
0.0
 11
30.754375457763672
 21
-9.964287757873535
 31
0.0
  0
LINE
  8
0
 10
30.754375457763672
 20
-9.964287757873535
 30
0.0
 11
30.44268226623535
 21
-9.757009506225586
 31
0.0
  0
LINE
  8
0
 10
30.44268226623535
 20
-9.757009506225586
 30
0.0
 11
30.10116195678711
 21
-9.521337509155273
 31
0.0
  0
LINE
  8
0
 10
30.10116195678711
 20
-9.521337509155273
 30
0.0
 11
29.730619430541992
 21
-9.25351333618164
 31
0.0
  0
LINE
  8
0
 10
29.730619430541992
 20
-9.25351333618164
 30
0.0
 11
29.33194923400879
 21
-8.95020866394043
 31
0.0
  0
LINE
  8
0
 10
29.33194923400879
 20
-8.95020866394043
 30
0.0
 11
28.90606117248535
 21
-8.608613014221191
 31
0.0
  0
LINE
  8
0
 10
28.90606117248535
 20
-8.608613014221191
 30
0.0
 11
28.45394515991211
 21
-8.226457595825195
 31
0.0
  0
LINE
  8
0
 10
28.45394515991211
 20
-8.226457595825195
 30
0.0
 11
27.976642608642578
 21
-7.802009582519531
 31
0.0
  0
LINE
  8
0
 10
27.976642608642578
 20
-7.802009582519531
 30
0.0
 11
27.475242614746094
 21
-7.334070682525635
 31
0.0
  0
LINE
  8
0
 10
27.475242614746094
 20
-7.334070682525635
 30
0.0
 11
26.950883865356445
 21
-6.8219757080078125
 31
0.0
  0
LINE
  8
0
 10
26.950883865356445
 20
-6.8219757080078125
 30
0.0
 11
26.404781341552734
 21
-6.26560115814209
 31
0.0
  0
LINE
  8
0
 10
26.404781341552734
 20
-6.26560115814209
 30
0.0
 11
25.838178634643555
 21
-5.665350914001465
 31
0.0
  0
LINE
  8
0
 10
25.838178634643555
 20
-5.665350914001465
 30
0.0
 11
25.25238609313965
 21
-5.0221710205078125
 31
0.0
  0
LINE
  8
0
 10
25.25238609313965
 20
-5.0221710205078125
 30
0.0
 11
24.648771286010742
 21
-4.3375396728515625
 31
0.0
  0
LINE
  8
0
 10
24.648771286010742
 20
-4.3375396728515625
 30
0.0
 11
24.02873992919922
 21
-3.613471508026123
 31
0.0
  0
LINE
  8
0
 10
24.02873992919922
 20
-3.613471508026123
 30
0.0
 11
23.39378547668457
 21
-2.852508068084717
 31
0.0
  0
LINE
  8
0
 10
23.39378547668457
 20
-2.852508068084717
 30
0.0
 11
22.745532989501953
 21
-2.05765438079834
 31
0.0
  0
LINE
  8
0
 10
22.745532989501953
 20
-2.05765438079834
 30
0.0
 11
22.08588981628418
 21
-1.2322735786437988
 31
0.0
  0
LINE
  8
0
 10
22.08588981628418
 20
-1.2322735786437988
 30
0.0
 11
21.417055130004883
 21
-0.3800835609436035
 31
0.0
  0
LINE
  8
0
 10
21.417055130004883
 20
-0.3800835609436035
 30
0.0
 11
20.74151039123535
 21
0.494842529296875
 31
0.0
  0
LINE
  8
0
 10
20.74151039123535
 20
0.494842529296875
 30
0.0
 11
20.062030792236328
 21
1.3880796432495117
 31
0.0
  0
LINE
  8
0
 10
20.062030792236328
 20
1.3880796432495117
 30
0.0
 11
19.381677627563477
 21
2.2948503494262695
 31
0.0
  0
LINE
  8
0
 10
19.381677627563477
 20
2.2948503494262695
 30
0.0
 11
18.703798294067383
 21
3.210020065307617
 31
0.0
  0
LINE
  8
0
 10
18.703798294067383
 20
3.210020065307617
 30
0.0
 11
18.032028198242188
 21
4.128105163574219
 31
0.0
  0
LINE
  8
0
 10
18.032028198242188
 20
4.128105163574219
 30
0.0
 11
17.370290756225586
 21
5.043264389038086
 31
0.0
  0
LINE
  8
0
 10
17.370290756225586
 20
5.043264389038086
 30
0.0
 11
16.722808837890625
 21
5.949307441711426
 31
0.0
  0
LINE
  8
0
 10
16.722808837890625
 20
5.949307441711426
 30
0.0
 11
16.094070434570312
 21
6.839685440063477
 31
0.0
  0
LINE
  8
0
 10
16.094070434570312
 20
6.839685440063477
 30
0.0
 11
15.488873481750488
 21
7.7074995040893555
 31
0.0
  0
LINE
  8
0
 10
15.488873481750488
 20
7.7074995040893555
 30
0.0
 11
14.912195205688477
 21
8.545626640319824
 31
0.0
  0
LINE
  8
0
 10
14.912195205688477
 20
8.545626640319824
 30
0.0
 11
14.368624687194824
 21
9.347453117370605
 31
0.0
  0
LINE
  8
0
 10
14.368624687194824
 20
9.347453117370605
 30
0.0
 11
13.862013816833496
 21
10.107325553894043
 31
0.0
  0
LINE
  8
0
 10
13.862013816833496
 20
10.107325553894043
 30
0.0
 11
13.395464897155762
 21
10.820576667785645
 31
0.0
  0
LINE
  8
0
 10
13.395464897155762
 20
10.820576667785645
 30
0.0
 11
12.971325874328613
 21
11.483519554138184
 31
0.0
  0
LINE
  8
0
 10
12.971325874328613
 20
11.483519554138184
 30
0.0
 11
12.591193199157715
 21
12.093443870544434
 31
0.0
  0
LINE
  8
0
 10
12.591193199157715
 20
12.093443870544434
 30
0.0
 11
12.25590705871582
 21
12.648619651794434
 31
0.0
  0
LINE
  8
0
 10
12.25590705871582
 20
12.648619651794434
 30
0.0
 11
11.965561866760254
 21
13.148308753967285
 31
0.0
  0
LINE
  8
0
 10
11.965561866760254
 20
13.148308753967285
 30
0.0
 11
11.719494819641113
 21
13.592743873596191
 31
0.0
  0
LINE
  8
0
 10
11.719494819641113
 20
13.592743873596191
 30
0.0
 11
11.516291618347168
 21
13.983138084411621
 31
0.0
  0
LINE
  8
0
 10
11.516291618347168
 20
13.983138084411621
 30
0.0
 11
11.35378360748291
 21
14.321694374084473
 31
0.0
  0
LINE
  8
0
 10
11.35378360748291
 20
14.321694374084473
 30
0.0
 11
11.22905158996582
 21
14.611584663391113
 31
0.0
  0
LINE
  8
0
 10
11.22905158996582
 20
14.611584663391113
 30
0.0
 11
11.138429641723633
 21
14.856968879699707
 31
0.0
  0
LINE
  8
0
 10
11.138429641723633
 20
14.856968879699707
 30
0.0
 11
11.077770233154297
 21
15.062670707702637
 31
0.0
  0
LINE
  8
0
 10
11.077770233154297
 20
15.062670707702637
 30
0.0
 11
11.043156623840332
 21
15.23337459564209
 31
0.0
  0
LINE
  8
0
 10
11.043156623840332
 20
15.23337459564209
 30
0.0
 11
11.031102180480957
 21
15.373400688171387
 31
0.0
  0
LINE
  8
0
 10
11.031102180480957
 20
15.373400688171387
 30
0.0
 11
11.038557052612305
 21
15.486681938171387
 31
0.0
  0
LINE
  8
0
 10
11.038557052612305
 20
15.486681938171387
 30
0.0
 11
11.062911987304688
 21
15.576788902282715
 31
0.0
  0
LINE
  8
0
 10
11.062911987304688
 20
15.576788902282715
 30
0.0
 11
11.101991653442383
 21
15.646912574768066
 31
0.0
  0
LINE
  8
0
 10
11.101991653442383
 20
15.646912574768066
 30
0.0
 11
11.154053688049316
 21
15.69986629486084
 31
0.0
  0
LINE
  8
0
 10
11.154053688049316
 20
15.69986629486084
 30
0.0
 11
11.217795372009277
 21
15.738093376159668
 31
0.0
  0
LINE
  8
0
 10
11.217795372009277
 20
15.738093376159668
 30
0.0
 11
11.292348861694336
 21
15.763670921325684
 31
0.0
  0
LINE
  8
0
 10
11.292348861694336
 20
15.763670921325684
 30
0.0
 11
11.377281188964844
 21
15.778279304504395
 31
0.0
  0
LINE
  8
0
 10
11.377281188964844
 20
15.778279304504395
 30
0.0
 11
11.4725980758667
 21
15.783247947692871
 31
0.0
  0
LINE
  8
0
 10
11.4725980758667
 20
15.783247947692871
 30
0.0
 11
11.578739166259766
 21
15.779522895812988
 31
0.0
  0
LINE
  8
0
 10
11.578739166259766
 20
15.779522895812988
 30
0.0
 11
11.696566581726074
 21
15.767680168151855
 31
0.0
  0
LINE
  8
0
 10
11.696566581726074
 20
15.767680168151855
 30
0.0
 11
11.827116012573242
 21
15.748126029968262
 31
0.0
  0
LINE
  8
0
 10
11.827116012573242
 20
15.748126029968262
 30
0.0
 11
11.971290588378906
 21
15.721329689025879
 31
0.0
  0
LINE
  8
0
 10
11.971290588378906
 20
15.721329689025879
 30
0.0
 11
12.129809379577637
 21
15.687830924987793
 31
0.0
  0
LINE
  8
0
 10
12.129809379577637
 20
15.687830924987793
 30
0.0
 11
12.303221702575684
 21
15.648276329040527
 31
0.0
  0
LINE
  8
0
 10
12.303221702575684
 20
15.648276329040527
 30
0.0
 11
12.491899490356445
 21
15.603398323059082
 31
0.0
  0
LINE
  8
0
 10
12.491899490356445
 20
15.603398323059082
 30
0.0
 11
12.696033477783203
 21
15.554007530212402
 31
0.0
  0
LINE
  8
0
 10
12.696033477783203
 20
15.554007530212402
 30
0.0
 11
12.91563892364502
 21
15.501011848449707
 31
0.0
  0
LINE
  8
0
 10
12.91563892364502
 20
15.501011848449707
 30
0.0
 11
13.150556564331055
 21
15.445403099060059
 31
0.0
  0
LINE
  8
0
 10
13.150556564331055
 20
15.445403099060059
 30
0.0
 11
13.400447845458984
 21
15.388260841369629
 31
0.0
  0
LINE
  8
0
 10
13.400447845458984
 20
15.388260841369629
 30
0.0
 11
13.664798736572266
 21
15.330765724182129
 31
0.0
  0
LINE
  8
0
 10
13.664798736572266
 20
15.330765724182129
 30
0.0
 11
13.94292163848877
 21
15.27416706085205
 31
0.0
  0
LINE
  8
0
 10
13.94292163848877
 20
15.27416706085205
 30
0.0
 11
14.233943939208984
 21
15.219817161560059
 31
0.0
  0
LINE
  8
0
 10
14.233943939208984
 20
15.219817161560059
 30
0.0
 11
14.536831855773926
 21
15.169127464294434
 31
0.0
  0
LINE
  8
0
 10
14.536831855773926
 20
15.169127464294434
 30
0.0
 11
14.850420951843262
 21
15.123429298400879
 31
0.0
  0
LINE
  8
0
 10
14.850420951843262
 20
15.123429298400879
 30
0.0
 11
15.17346477508545
 21
15.08388614654541
 31
0.0
  0
LINE
  8
0
 10
15.17346477508545
 20
15.08388614654541
 30
0.0
 11
15.50461196899414
 21
15.051482200622559
 31
0.0
  0
LINE
  8
0
 10
15.50461196899414
 20
15.051482200622559
 30
0.0
 11
15.842428207397461
 21
15.027029991149902
 31
0.0
  0
LINE
  8
0
 10
15.842428207397461
 20
15.027029991149902
 30
0.0
 11
16.185380935668945
 21
15.011162757873535
 31
0.0
  0
LINE
  8
0
 10
16.185380935668945
 20
15.011162757873535
 30
0.0
 11
16.53185272216797
 21
15.004342079162598
 31
0.0
  0
LINE
  8
0
 10
16.53185272216797
 20
15.004342079162598
 30
0.0
 11
16.880128860473633
 21
15.006844520568848
 31
0.0
  0
LINE
  8
0
 10
16.880128860473633
 20
15.006844520568848
 30
0.0
 11
17.22840118408203
 21
15.018782615661621
 31
0.0
  0
LINE
  8
0
 10
17.22840118408203
 20
15.018782615661621
 30
0.0
 11
17.57477569580078
 21
15.040087699890137
 31
0.0
  0
LINE
  8
0
 10
17.57477569580078
 20
15.040087699890137
 30
0.0
 11
17.917261123657227
 21
15.07051944732666
 31
0.0
  0
LINE
  8
0
 10
17.917261123657227
 20
15.07051944732666
 30
0.0
 11
18.2537784576416
 21
15.10965633392334
 31
0.0
  0
LINE
  8
0
 10
18.2537784576416
 20
15.10965633392334
 30
0.0
 11
18.5821475982666
 21
15.156901359558105
 31
0.0
  0
LINE
  8
0
 10
18.5821475982666
 20
15.156901359558105
 30
0.0
 11
18.900169372558594
 21
15.21153736114502
 31
0.0
  0
LINE
  8
0
 10
18.900169372558594
 20
15.21153736114502
 30
0.0
 11
19.20573616027832
 21
15.272852897644043
 31
0.0
  0
LINE
  8
0
 10
19.20573616027832
 20
15.272852897644043
 30
0.0
 11
19.496904373168945
 21
15.340170860290527
 31
0.0
  0
LINE
  8
0
 10
19.496904373168945
 20
15.340170860290527
 30
0.0
 11
19.77188491821289
 21
15.412859916687012
 31
0.0
  0
LINE
  8
0
 10
19.77188491821289
 20
15.412859916687012
 30
0.0
 11
20.029054641723633
 21
15.490344047546387
 31
0.0
  0
LINE
  8
0
 10
20.029054641723633
 20
15.490344047546387
 30
0.0
 11
20.26693344116211
 21
15.57209300994873
 31
0.0
  0
LINE
  8
0
 10
20.26693344116211
 20
15.57209300994873
 30
0.0
 11
20.48420524597168
 21
15.657601356506348
 31
0.0
  0
LINE
  8
0
 10
20.48420524597168
 20
15.657601356506348
 30
0.0
 11
20.679702758789062
 21
15.746434211730957
 31
0.0
  0
LINE
  8
0
 10
20.679702758789062
 20
15.746434211730957
 30
0.0
 11
20.852420806884766
 21
15.838183403015137
 31
0.0
  0
LINE
  8
0
 10
20.852420806884766
 20
15.838183403015137
 30
0.0
 11
21.001514434814453
 21
15.932496070861816
 31
0.0
  0
LINE
  8
0
 10
21.001514434814453
 20
15.932496070861816
 30
0.0
 11
21.12628173828125
 21
16.02906036376953
 31
0.0
  0
LINE
  8
0
 10
21.12628173828125
 20
16.02906036376953
 30
0.0
 11
21.226192474365234
 21
16.127605438232422
 31
0.0
  0
LINE
  8
0
 10
21.226192474365234
 20
16.127605438232422
 30
0.0
 11
21.300857543945312
 21
16.227924346923828
 31
0.0
  0
LINE
  8
0
 10
21.300857543945312
 20
16.227924346923828
 30
0.0
 11
21.349977493286133
 21
16.329975128173828
 31
0.0
  0
LINE
  8
0
 10
21.349977493286133
 20
16.329975128173828
 30
0.0
 11
21.37322998046875
 21
16.434062957763672
 31
0.0
  0
LINE
  8
0
 10
21.37322998046875
 20
16.434062957763672
 30
0.0
 11
21.370267868041992
 21
16.54085922241211
 31
0.0
  0
LINE
  8
0
 10
21.370267868041992
 20
16.54085922241211
 30
0.0
 11
21.340730667114258
 21
16.65139389038086
 31
0.0
  0
LINE
  8
0
 10
21.340730667114258
 20
16.65139389038086
 30
0.0
 11
21.284215927124023
 21
16.767066955566406
 31
0.0
  0
LINE
  8
0
 10
21.284215927124023
 20
16.767066955566406
 30
0.0
 11
21.200302124023438
 21
16.88964080810547
 31
0.0
  0
LINE
  8
0
 10
21.200302124023438
 20
16.88964080810547
 30
0.0
 11
21.08854103088379
 21
17.021236419677734
 31
0.0
  0
LINE
  8
0
 10
21.08854103088379
 20
17.021236419677734
 30
0.0
 11
20.94845962524414
 21
17.164348602294922
 31
0.0
  0
LINE
  8
0
 10
20.94845962524414
 20
17.164348602294922
 30
0.0
 11
20.779552459716797
 21
17.321842193603516
 31
0.0
  0
LINE
  8
0
 10
20.779552459716797
 20
17.321842193603516
 30
0.0
 11
20.581298828125
 21
17.49691390991211
 31
0.0
  0
LINE
  8
0
 10
20.581298828125
 20
17.49691390991211
 30
0.0
 11
20.353145599365234
 21
17.693172454833984
 31
0.0
  0
LINE
  8
0
 10
20.353145599365234
 20
17.693172454833984
 30
0.0
 11
20.094511032104492
 21
17.914546966552734
 31
0.0
  0
LINE
  8
0
 10
20.094511032104492
 20
17.914546966552734
 30
0.0
 11
19.804813385009766
 21
18.165271759033203
 31
0.0
  0
LINE
  8
0
 10
19.804813385009766
 20
18.165271759033203
 30
0.0
 11
19.48365592956543
 21
18.449310302734375
 31
0.0
  0
LINE
  8
0
 10
19.48365592956543
 20
18.449310302734375
 30
0.0
 11
19.13091468811035
 21
18.769981384277344
 31
0.0
  0
LINE
  8
0
 10
19.13091468811035
 20
18.769981384277344
 30
0.0
 11
18.746782302856445
 21
19.12997055053711
 31
0.0
  0
LINE
  8
0
 10
18.746782302856445
 20
19.12997055053711
 30
0.0
 11
18.33172607421875
 21
19.531291961669922
 31
0.0
  0
LINE
  8
0
 10
18.33172607421875
 20
19.531291961669922
 30
0.0
 11
17.886520385742188
 21
19.97533416748047
 31
0.0
  0
LINE
  8
0
 10
17.886520385742188
 20
19.97533416748047
 30
0.0
 11
17.4122314453125
 21
20.462814331054688
 31
0.0
  0
LINE
  8
0
 10
17.4122314453125
 20
20.462814331054688
 30
0.0
 11
16.910215377807617
 21
20.993820190429688
 31
0.0
  0
LINE
  8
0
 10
16.910215377807617
 20
20.993820190429688
 30
0.0
 11
16.382131576538086
 21
21.567771911621094
 31
0.0
  0
LINE
  8
0
 10
16.382131576538086
 20
21.567771911621094
 30
0.0
 11
15.829930305480957
 21
22.183460235595703
 31
0.0
  0
LINE
  8
0
 10
15.829930305480957
 20
22.183460235595703
 30
0.0
 11
15.255858421325684
 21
22.839000701904297
 31
0.0
  0
LINE
  8
0
 10
15.255858421325684
 20
22.839000701904297
 30
0.0
 11
14.662456512451172
 21
23.531875610351562
 31
0.0
  0
LINE
  8
0
 10
14.662456512451172
 20
23.531875610351562
 30
0.0
 11
14.052557945251465
 21
24.258926391601562
 31
0.0
  0
LINE
  8
0
 10
14.052557945251465
 20
24.258926391601562
 30
0.0
 11
13.429226875305176
 21
25.01644515991211
 31
0.0
  0
LINE
  8
0
 10
13.429226875305176
 20
25.01644515991211
 30
0.0
 11
12.795548439025879
 21
25.800579071044922
 31
0.0
  0
LINE
  8
0
 10
12.795548439025879
 20
25.800579071044922
 30
0.0
 11
12.154569625854492
 21
26.607406616210938
 31
0.0
  0
LINE
  8
0
 10
12.154569625854492
 20
26.607406616210938
 30
0.0
 11
11.509308815002441
 21
27.432964324951172
 31
0.0
  0
LINE
  8
0
 10
11.509308815002441
 20
27.432964324951172
 30
0.0
 11
10.862737655639648
 21
28.27322769165039
 31
0.0
  0
LINE
  8
0
 10
10.862737655639648
 20
28.27322769165039
 30
0.0
 11
10.217795372009277
 21
29.12411880493164
 31
0.0
  0
LINE
  8
0
 10
10.217795372009277
 20
29.12411880493164
 30
0.0
 11
9.577384948730469
 21
29.98151397705078
 31
0.0
  0
LINE
  8
0
 10
9.577384948730469
 20
29.98151397705078
 30
0.0
 11
8.944368362426758
 21
30.841217041015625
 31
0.0
  0
LINE
  8
0
 10
8.944368362426758
 20
30.841217041015625
 30
0.0
 11
8.321572303771973
 21
31.69900131225586
 31
0.0
  0
LINE
  8
0
 10
8.321572303771973
 20
31.69900131225586
 30
0.0
 11
7.711786270141602
 21
32.55057907104492
 31
0.0
  0
LINE
  8
0
 10
7.711786270141602
 20
32.55057907104492
 30
0.0
 11
7.117761135101318
 21
33.391597747802734
 31
0.0
  0
LINE
  8
0
 10
7.117761135101318
 20
33.391597747802734
 30
0.0
 11
6.542210578918457
 21
34.21767044067383
 31
0.0
  0
LINE
  8
0
 10
6.542210578918457
 20
34.21767044067383
 30
0.0
 11
5.9878058433532715
 21
35.024349212646484
 31
0.0
  0
LINE
  8
0
 10
5.9878058433532715
 20
35.024349212646484
 30
0.0
 11
5.457032680511475
 21
35.807369232177734
 31
0.0
  0
LINE
  8
0
 10
5.457032680511475
 20
35.807369232177734
 30
0.0
 11
4.95200777053833
 21
36.56290817260742
 31
0.0
  0
LINE
  8
0
 10
4.95200777053833
 20
36.56290817260742
 30
0.0
 11
4.474450588226318
 21
37.28766632080078
 31
0.0
  0
LINE
  8
0
 10
4.474450588226318
 20
37.28766632080078
 30
0.0
 11
4.025676727294922
 21
37.97882080078125
 31
0.0
  0
LINE
  8
0
 10
4.025676727294922
 20
37.97882080078125
 30
0.0
 11
3.6066033840179443
 21
38.6340446472168
 31
0.0
  0
LINE
  8
0
 10
3.6066033840179443
 20
38.6340446472168
 30
0.0
 11
3.217755079269409
 21
39.251529693603516
 31
0.0
  0
LINE
  8
0
 10
3.217755079269409
 20
39.251529693603516
 30
0.0
 11
2.859250545501709
 21
39.82996368408203
 31
0.0
  0
LINE
  8
0
 10
2.859250545501709
 20
39.82996368408203
 30
0.0
 11
2.5308117866516113
 21
40.36852264404297
 31
0.0
  0
LINE
  8
0
 10
2.5308117866516113
 20
40.36852264404297
 30
0.0
 11
2.2317633628845215
 21
40.866878509521484
 31
0.0
  0
LINE
  8
0
 10
2.2317633628845215
 20
40.866878509521484
 30
0.0
 11
1.9610289335250854
 21
41.32521438598633
 31
0.0
  0
LINE
  8
0
 10
1.9610289335250854
 20
41.32521438598633
 30
0.0
 11
1.7171341180801392
 21
41.74421310424805
 31
0.0
  0
LINE
  8
0
 10
1.7171341180801392
 20
41.74421310424805
 30
0.0
 11
1.498205542564392
 21
42.12504196166992
 31
0.0
  0
LINE
  8
0
 10
1.498205542564392
 20
42.12504196166992
 30
0.0
 11
1.302009105682373
 21
42.469329833984375
 31
0.0
  0
LINE
  8
0
 10
1.302009105682373
 20
42.469329833984375
 30
0.0
 11
1.1262123584747314
 21
42.778812408447266
 31
0.0
  0
LINE
  8
0
 10
1.1262123584747314
 20
42.778812408447266
 30
0.0
 11
0.9685644507408142
 21
43.05508041381836
 31
0.0
  0
LINE
  8
0
 10
0.9685644507408142
 20
43.05508041381836
 30
0.0
 11
0.8269051909446716
 21
43.299583435058594
 31
0.0
  0
LINE
  8
0
 10
0.8269051909446716
 20
43.299583435058594
 30
0.0
 11
0.6991655230522156
 21
43.513641357421875
 31
0.0
  0
LINE
  8
0
 10
0.6991655230522156
 20
43.513641357421875
 30
0.0
 11
0.5833675861358643
 21
43.69839096069336
 31
0.0
  0
LINE
  8
0
 10
0.5833675861358643
 20
43.69839096069336
 30
0.0
 11
0.4776245653629303
 21
43.85487747192383
 31
0.0
  0
LINE
  8
0
 10
0.4776245653629303
 20
43.85487747192383
 30
0.0
 11
0.380140483379364
 21
43.98394775390625
 31
0.0
  0
LINE
  8
0
 10
0.380140483379364
 20
43.98394775390625
 30
0.0
 11
0.28921061754226685
 21
44.08633804321289
 31
0.0
  0
LINE
  8
0
 10
0.28921061754226685
 20
44.08633804321289
 30
0.0
 11
0.2032211571931839
 21
44.16263961791992
 31
0.0
  0
LINE
  8
0
 10
0.2032211571931839
 20
44.16263961791992
 30
0.0
 11
0.12064928561449051
 21
44.2132682800293
 31
0.0
  0
LINE
  8
0
 10
0.12064928561449051
 20
44.2132682800293
 30
0.0
 11
0.040063321590423584
 21
44.238525390625
 31
0.0
  0
LINE
  8
0
 10
0.040063321590423584
 20
44.238525390625
 30
0.0
 11
-0.03987789899110794
 21
44.23855209350586
 31
0.0
  0
LINE
  8
0
 10
-0.03987789899110794
 20
44.23855209350586
 30
0.0
 11
-0.12046082317829132
 21
44.213356018066406
 31
0.0
  0
LINE
  8
0
 10
-0.12046082317829132
 20
44.213356018066406
 30
0.0
 11
-0.20302651822566986
 21
44.162784576416016
 31
0.0
  0
LINE
  8
0
 10
-0.20302651822566986
 20
44.162784576416016
 30
0.0
 11
-0.2890063226222992
 21
44.0865478515625
 31
0.0
  0
LINE
  8
0
 10
-0.2890063226222992
 20
44.0865478515625
 30
0.0
 11
-0.3799228370189667
 21
43.98421859741211
 31
0.0
  0
LINE
  8
0
 10
-0.3799228370189667
 20
43.98421859741211
 30
0.0
 11
-0.47738975286483765
 21
43.85519790649414
 31
0.0
  0
LINE
  8
0
 10
-0.47738975286483765
 20
43.85519790649414
 30
0.0
 11
-0.583111584186554
 21
43.69878387451172
 31
0.0
  0
LINE
  8
0
 10
-0.583111584186554
 20
43.69878387451172
 30
0.0
 11
-0.6988840103149414
 21
43.51409912109375
 31
0.0
  0
LINE
  8
0
 10
-0.6988840103149414
 20
43.51409912109375
 30
0.0
 11
-0.8265937566757202
 21
43.300113677978516
 31
0.0
  0
LINE
  8
0
 10
-0.8265937566757202
 20
43.300113677978516
 30
0.0
 11
-0.9682184457778931
 21
43.05567932128906
 31
0.0
  0
LINE
  8
0
 10
-0.9682184457778931
 20
43.05567932128906
 30
0.0
 11
-1.1258268356323242
 21
42.779483795166016
 31
0.0
  0
LINE
  8
0
 10
-1.1258268356323242
 20
42.779483795166016
 30
0.0
 11
-1.3015785217285156
 21
42.4700813293457
 31
0.0
  0
LINE
  8
0
 10
-1.3015785217285156
 20
42.4700813293457
 30
0.0
 11
-1.497725009918213
 21
42.125877380371094
 31
0.0
  0
LINE
  8
0
 10
-1.497725009918213
 20
42.125877380371094
 30
0.0
 11
-1.716598391532898
 21
41.7451286315918
 31
0.0
  0
LINE
  8
0
 10
-1.716598391532898
 20
41.7451286315918
 30
0.0
 11
-1.9604328870773315
 21
41.326229095458984
 31
0.0
  0
LINE
  8
0
 10
-1.9604328870773315
 20
41.326229095458984
 30
0.0
 11
-2.2311031818389893
 21
40.86799240112305
 31
0.0
  0
LINE
  8
0
 10
-2.2311031818389893
 20
40.86799240112305
 30
0.0
 11
-2.5300850868225098
 21
40.369728088378906
 31
0.0
  0
LINE
  8
0
 10
-2.5300850868225098
 20
40.369728088378906
 30
0.0
 11
-2.8584539890289307
 21
39.83126449584961
 31
0.0
  0
LINE
  8
0
 10
-2.8584539890289307
 20
39.83126449584961
 30
0.0
 11
-3.216888427734375
 21
39.25292205810547
 31
0.0
  0
LINE
  8
0
 10
-3.216888427734375
 20
39.25292205810547
 30
0.0
 11
-3.6056668758392334
 21
38.635520935058594
 31
0.0
  0
LINE
  8
0
 10
-3.6056668758392334
 20
38.635520935058594
 30
0.0
 11
-4.024669170379639
 21
37.98038101196289
 31
0.0
  0
LINE
  8
0
 10
-4.024669170379639
 20
37.98038101196289
 30
0.0
 11
-4.47337532043457
 21
37.289310455322266
 31
0.0
  0
LINE
  8
0
 10
-4.47337532043457
 20
37.289310455322266
 30
0.0
 11
-4.950868129730225
 21
36.56462478637695
 31
0.0
  0
LINE
  8
0
 10
-4.950868129730225
 20
36.56462478637695
 30
0.0
 11
-5.4558305740356445
 21
35.80915069580078
 31
0.0
  0
LINE
  8
0
 10
-5.4558305740356445
 20
35.80915069580078
 30
0.0
 11
-5.986545085906982
 21
35.02619171142578
 31
0.0
  0
LINE
  8
0
 10
-5.986545085906982
 20
35.02619171142578
 30
0.0
 11
-6.54089879989624
 21
34.21956253051758
 31
0.0
  0
LINE
  8
0
 10
-6.54089879989624
 20
34.21956253051758
 30
0.0
 11
-7.116402626037598
 21
33.393531799316406
 31
0.0
  0
LINE
  8
0
 10
-7.116402626037598
 20
33.393531799316406
 30
0.0
 11
-7.71038818359375
 21
32.55253982543945
 31
0.0
  0
LINE
  8
0
 10
-7.71038818359375
 20
32.55253982543945
 30
0.0
 11
-8.320141792297363
 21
31.70098876953125
 31
0.0
  0
LINE
  8
0
 10
-8.320141792297363
 20
31.70098876953125
 30
0.0
 11
-8.942910194396973
 21
30.84320831298828
 31
0.0
  0
LINE
  8
0
 10
-8.942910194396973
 20
30.84320831298828
 30
0.0
 11
-9.575906753540039
 21
29.983505249023438
 31
0.0
  0
LINE
  8
0
 10
-9.575906753540039
 20
29.983505249023438
 30
0.0
 11
-10.216303825378418
 21
29.126102447509766
 31
0.0
  0
LINE
  8
0
 10
-10.216303825378418
 20
29.126102447509766
 30
0.0
 11
-10.861237525939941
 21
28.275192260742188
 31
0.0
  0
LINE
  8
0
 10
-10.861237525939941
 20
28.275192260742188
 30
0.0
 11
-11.507808685302734
 21
27.434898376464844
 31
0.0
  0
LINE
  8
0
 10
-11.507808685302734
 20
27.434898376464844
 30
0.0
 11
-12.153075218200684
 21
26.609302520751953
 31
0.0
  0
LINE
  8
0
 10
-12.153075218200684
 20
26.609302520751953
 30
0.0
 11
-12.7940673828125
 21
25.802425384521484
 31
0.0
  0
LINE
  8
0
 10
-12.7940673828125
 20
25.802425384521484
 30
0.0
 11
-13.427767753601074
 21
25.018234252929688
 31
0.0
  0
LINE
  8
0
 10
-13.427767753601074
 20
25.018234252929688
 30
0.0
 11
-14.051128387451172
 21
24.26064682006836
 31
0.0
  0
LINE
  8
0
 10
-14.051128387451172
 20
24.26064682006836
 30
0.0
 11
-14.661057472229004
 21
23.533527374267578
 31
0.0
  0
LINE
  8
0
 10
-14.661057472229004
 20
23.533527374267578
 30
0.0
 11
-15.254501342773438
 21
22.840564727783203
 31
0.0
  0
LINE
  8
0
 10
-15.254501342773438
 20
22.840564727783203
 30
0.0
 11
-15.828622817993164
 21
22.184932708740234
 31
0.0
  0
LINE
  8
0
 10
-15.828622817993164
 20
22.184932708740234
 30
0.0
 11
-16.380878448486328
 21
21.56916046142578
 31
0.0
  0
LINE
  8
0
 10
-16.380878448486328
 20
21.56916046142578
 30
0.0
 11
-16.909019470214844
 21
20.995101928710938
 31
0.0
  0
LINE
  8
0
 10
-16.909019470214844
 20
20.995101928710938
 30
0.0
 11
-17.411094665527344
 21
20.46399688720703
 31
0.0
  0
LINE
  8
0
 10
-17.411094665527344
 20
20.46399688720703
 30
0.0
 11
-17.885456085205078
 21
19.97641372680664
 31
0.0
  0
LINE
  8
0
 10
-17.885456085205078
 20
19.97641372680664
 30
0.0
 11
-18.330730438232422
 21
19.532272338867188
 31
0.0
  0
LINE
  8
0
 10
-18.330730438232422
 20
19.532272338867188
 30
0.0
 11
-18.7458553314209
 21
19.13085174560547
 31
0.0
  0
LINE
  8
0
 10
-18.7458553314209
 20
19.13085174560547
 30
0.0
 11
-19.130062103271484
 21
18.770774841308594
 31
0.0
  0
LINE
  8
0
 10
-19.130062103271484
 20
18.770774841308594
 30
0.0
 11
-19.482872009277344
 21
18.45001220703125
 31
0.0
  0
LINE
  8
0
 10
-19.482872009277344
 20
18.45001220703125
 30
0.0
 11
-19.804105758666992
 21
18.1658935546875
 31
0.0
  0
LINE
  8
0
 10
-19.804105758666992
 20
18.1658935546875
 30
0.0
 11
-20.093875885009766
 21
17.91509246826172
 31
0.0
  0
LINE
  8
0
 10
-20.093875885009766
 20
17.91509246826172
 30
0.0
 11
-20.352581024169922
 21
17.69365692138672
 31
0.0
  0
LINE
  8
0
 10
-20.352581024169922
 20
17.69365692138672
 30
0.0
 11
-20.5808048248291
 21
17.497344970703125
 31
0.0
  0
LINE
  8
0
 10
-20.5808048248291
 20
17.497344970703125
 30
0.0
 11
-20.77912712097168
 21
17.322223663330078
 31
0.0
  0
LINE
  8
0
 10
-20.77912712097168
 20
17.322223663330078
 30
0.0
 11
-20.948097229003906
 21
17.164703369140625
 31
0.0
  0
LINE
  8
0
 10
-20.948097229003906
 20
17.164703369140625
 30
0.0
 11
-21.08824920654297
 21
17.021556854248047
 31
0.0
  0
LINE
  8
0
 10
-21.08824920654297
 20
17.021556854248047
 30
0.0
 11
-21.200075149536133
 21
16.889934539794922
 31
0.0
  0
LINE
  8
0
 10
-21.200075149536133
 20
16.889934539794922
 30
0.0
 11
-21.284053802490234
 21
16.767345428466797
 31
0.0
  0
LINE
  8
0
 10
-21.284053802490234
 20
16.767345428466797
 30
0.0
 11
-21.34062957763672
 21
16.651657104492188
 31
0.0
  0
LINE
  8
0
 10
-21.34062957763672
 20
16.651657104492188
 30
0.0
 11
-21.37023162841797
 21
16.54111099243164
 31
0.0
  0
LINE
  8
0
 10
-21.37023162841797
 20
16.54111099243164
 30
0.0
 11
-21.373254776000977
 21
16.434310913085938
 31
0.0
  0
LINE
  8
0
 10
-21.373254776000977
 20
16.434310913085938
 30
0.0
 11
-21.350065231323242
 21
16.330215454101562
 31
0.0
  0
LINE
  8
0
 10
-21.350065231323242
 20
16.330215454101562
 30
0.0
 11
-21.30100440979004
 21
16.228160858154297
 31
0.0
  0
LINE
  8
0
 10
-21.30100440979004
 20
16.228160858154297
 30
0.0
 11
-21.226396560668945
 21
16.127838134765625
 31
0.0
  0
LINE
  8
0
 10
-21.226396560668945
 20
16.127838134765625
 30
0.0
 11
-21.126543045043945
 21
16.029285430908203
 31
0.0
  0
LINE
  8
0
 10
-21.126543045043945
 20
16.029285430908203
 30
0.0
 11
-21.001832962036133
 21
15.932717323303223
 31
0.0
  0
LINE
  8
0
 10
-21.001832962036133
 20
15.932717323303223
 30
0.0
 11
-20.85279655456543
 21
15.838400840759277
 31
0.0
  0
LINE
  8
0
 10
-20.85279655456543
 20
15.838400840759277
 30
0.0
 11
-20.68012809753418
 21
15.7466402053833
 31
0.0
  0
LINE
  8
0
 10
-20.68012809753418
 20
15.7466402053833
 30
0.0
 11
-20.484683990478516
 21
15.657805442810059
 31
0.0
  0
LINE
  8
0
 10
-20.484683990478516
 20
15.657805442810059
 30
0.0
 11
-20.26746368408203
 21
15.572283744812012
 31
0.0
  0
LINE
  8
0
 10
-20.26746368408203
 20
15.572283744812012
 30
0.0
 11
-20.029630661010742
 21
15.490530967712402
 31
0.0
  0
LINE
  8
0
 10
-20.029630661010742
 20
15.490530967712402
 30
0.0
 11
-19.772502899169922
 21
15.413031578063965
 31
0.0
  0
LINE
  8
0
 10
-19.772502899169922
 20
15.413031578063965
 30
0.0
 11
-19.497560501098633
 21
15.34032917022705
 31
0.0
  0
LINE
  8
0
 10
-19.497560501098633
 20
15.34032917022705
 30
0.0
 11
-19.20642852783203
 21
15.27299976348877
 31
0.0
  0
LINE
  8
0
 10
-19.20642852783203
 20
15.27299976348877
 30
0.0
 11
-18.900896072387695
 21
15.211674690246582
 31
0.0
  0
LINE
  8
0
 10
-18.900896072387695
 20
15.211674690246582
 30
0.0
 11
-18.58289909362793
 21
15.157017707824707
 31
0.0
  0
LINE
  8
0
 10
-18.58289909362793
 20
15.157017707824707
 30
0.0
 11
-18.254541397094727
 21
15.109753608703613
 31
0.0
  0
LINE
  8
0
 10
-18.254541397094727
 20
15.109753608703613
 30
0.0
 11
-17.91804313659668
 21
15.070595741271973
 31
0.0
  0
LINE
  8
0
 10
-17.91804313659668
 20
15.070595741271973
 30
0.0
 11
-17.57556915283203
 21
15.04015064239502
 31
0.0
  0
LINE
  8
0
 10
-17.57556915283203
 20
15.04015064239502
 30
0.0
 11
-17.22920036315918
 21
15.018820762634277
 31
0.0
  0
LINE
  8
0
 10
-17.22920036315918
 20
15.018820762634277
 30
0.0
 11
-16.880929946899414
 21
15.00685977935791
 31
0.0
  0
LINE
  8
0
 10
-16.880929946899414
 20
15.00685977935791
 30
0.0
 11
-16.53264808654785
 21
15.004332542419434
 31
0.0
  0
LINE
  8
0
 10
-16.53264808654785
 20
15.004332542419434
 30
0.0
 11
-16.186174392700195
 21
15.011137962341309
 31
0.0
  0
LINE
  8
0
 10
-16.186174392700195
 20
15.011137962341309
 30
0.0
 11
-15.84321117401123
 21
15.026984214782715
 31
0.0
  0
LINE
  8
0
 10
-15.84321117401123
 20
15.026984214782715
 30
0.0
 11
-15.50538158416748
 21
15.051419258117676
 31
0.0
  0
LINE
  8
0
 10
-15.50538158416748
 20
15.051419258117676
 30
0.0
 11
-15.174216270446777
 21
15.0838041305542
 31
0.0
  0
LINE
  8
0
 10
-15.174216270446777
 20
15.0838041305542
 30
0.0
 11
-14.851153373718262
 21
15.123332023620605
 31
0.0
  0
LINE
  8
0
 10
-14.851153373718262
 20
15.123332023620605
 30
0.0
 11
-14.5375394821167
 21
15.169014930725098
 31
0.0
  0
LINE
  8
0
 10
-14.5375394821167
 20
15.169014930725098
 30
0.0
 11
-14.234625816345215
 21
15.219695091247559
 31
0.0
  0
LINE
  8
0
 10
-14.234625816345215
 20
15.219695091247559
 30
0.0
 11
-13.943572998046875
 21
15.27403736114502
 31
0.0
  0
LINE
  8
0
 10
-13.943572998046875
 20
15.27403736114502
 30
0.0
 11
-13.665420532226562
 21
15.3306303024292
 31
0.0
  0
LINE
  8
0
 10
-13.665420532226562
 20
15.3306303024292
 30
0.0
 11
-13.401039123535156
 21
15.388131141662598
 31
0.0
  0
LINE
  8
0
 10
-13.401039123535156
 20
15.388131141662598
 30
0.0
 11
-13.151111602783203
 21
15.445269584655762
 31
0.0
  0
LINE
  8
0
 10
-13.151111602783203
 20
15.445269584655762
 30
0.0
 11
-12.916160583496094
 21
15.500887870788574
 31
0.0
  0
LINE
  8
0
 10
-12.916160583496094
 20
15.500887870788574
 30
0.0
 11
-12.696518898010254
 21
15.5538911819458
 31
0.0
  0
LINE
  8
0
 10
-12.696518898010254
 20
15.5538911819458
 30
0.0
 11
-12.492351531982422
 21
15.603289604187012
 31
0.0
  0
LINE
  8
0
 10
-12.492351531982422
 20
15.603289604187012
 30
0.0
 11
-12.30363941192627
 21
15.64818286895752
 31
0.0
  0
LINE
  8
0
 10
-12.30363941192627
 20
15.64818286895752
 30
0.0
 11
-12.130188941955566
 21
15.687745094299316
 31
0.0
  0
LINE
  8
0
 10
-12.130188941955566
 20
15.687745094299316
 30
0.0
 11
-11.971635818481445
 21
15.7212553024292
 31
0.0
  0
LINE
  8
0
 10
-11.971635818481445
 20
15.7212553024292
 30
0.0
 11
-11.827430725097656
 21
15.74807071685791
 31
0.0
  0
LINE
  8
0
 10
-11.827430725097656
 20
15.74807071685791
 30
0.0
 11
-11.696852684020996
 21
15.767643928527832
 31
0.0
  0
LINE
  8
0
 10
-11.696852684020996
 20
15.767643928527832
 30
0.0
 11
-11.578997611999512
 21
15.779500007629395
 31
0.0
  0
LINE
  8
0
 10
-11.578997611999512
 20
15.779500007629395
 30
0.0
 11
-11.472829818725586
 21
15.783249855041504
 31
0.0
  0
LINE
  8
0
 10
-11.472829818725586
 20
15.783249855041504
 30
0.0
 11
-11.37748908996582
 21
15.778300285339355
 31
0.0
  0
LINE
  8
0
 10
-11.37748908996582
 20
15.778300285339355
 30
0.0
 11
-11.292531967163086
 21
15.763712882995605
 31
0.0
  0
LINE
  8
0
 10
-11.292531967163086
 20
15.763712882995605
 30
0.0
 11
-11.2179536819458
 21
15.738167762756348
 31
0.0
  0
LINE
  8
0
 10
-11.2179536819458
 20
15.738167762756348
 30
0.0
 11
-11.15418815612793
 21
15.699967384338379
 31
0.0
  0
LINE
  8
0
 10
-11.15418815612793
 20
15.699967384338379
 30
0.0
 11
-11.10209846496582
 21
15.647049903869629
 31
0.0
  0
LINE
  8
0
 10
-11.10209846496582
 20
15.647049903869629
 30
0.0
 11
-11.062986373901367
 21
15.576970100402832
 31
0.0
  0
LINE
  8
0
 10
-11.062986373901367
 20
15.576970100402832
 30
0.0
 11
-11.038595199584961
 21
15.486912727355957
 31
0.0
  0
LINE
  8
0
 10
-11.038595199584961
 20
15.486912727355957
 30
0.0
 11
-11.031097412109375
 21
15.373690605163574
 31
0.0
  0
LINE
  8
0
 10
-11.031097412109375
 20
15.373690605163574
 30
0.0
 11
-11.04310417175293
 21
15.233729362487793
 31
0.0
  0
LINE
  8
0
 10
-11.04310417175293
 20
15.233729362487793
 30
0.0
 11
-11.077664375305176
 21
15.063101768493652
 31
0.0
  0
LINE
  8
0
 10
-11.077664375305176
 20
15.063101768493652
 30
0.0
 11
-11.138258934020996
 21
14.8574857711792
 31
0.0
  0
LINE
  8
0
 10
-11.138258934020996
 20
14.8574857711792
 30
0.0
 11
-11.228806495666504
 21
14.612196922302246
 31
0.0
  0
LINE
  8
0
 10
-11.228806495666504
 20
14.612196922302246
 30
0.0
 11
-11.353453636169434
 21
14.322413444519043
 31
0.0
  0
LINE
  8
0
 10
-11.353453636169434
 20
14.322413444519043
 30
0.0
 11
-11.515872955322266
 21
13.983973503112793
 31
0.0
  0
LINE
  8
0
 10
-11.515872955322266
 20
13.983973503112793
 30
0.0
 11
-11.71898078918457
 21
13.593703269958496
 31
0.0
  0
LINE
  8
0
 10
-11.71898078918457
 20
13.593703269958496
 30
0.0
 11
-11.964947700500488
 21
13.14939022064209
 31
0.0
  0
LINE
  8
0
 10
-11.964947700500488
 20
13.14939022064209
 30
0.0
 11
-12.255189895629883
 21
12.649832725524902
 31
0.0
  0
LINE
  8
0
 10
-12.255189895629883
 20
12.649832725524902
 30
0.0
 11
-12.590371131896973
 21
12.094779014587402
 31
0.0
  0
LINE
  8
0
 10
-12.590371131896973
 20
12.094779014587402
 30
0.0
 11
-12.970401763916016
 21
11.48498249053955
 31
0.0
  0
LINE
  8
0
 10
-12.970401763916016
 20
11.48498249053955
 30
0.0
 11
-13.394441604614258
 21
10.822159767150879
 31
0.0
  0
LINE
  8
0
 10
-13.394441604614258
 20
10.822159767150879
 30
0.0
 11
-13.860896110534668
 21
10.109017372131348
 31
0.0
  0
LINE
  8
0
 10
-13.860896110534668
 20
10.109017372131348
 30
0.0
 11
-14.367417335510254
 21
9.34924602508545
 31
0.0
  0
LINE
  8
0
 10
-14.367417335510254
 20
9.34924602508545
 30
0.0
 11
-14.910906791687012
 21
8.547513008117676
 31
0.0
  0
LINE
  8
0
 10
-14.910906791687012
 20
8.547513008117676
 30
0.0
 11
-15.487515449523926
 21
7.709461212158203
 31
0.0
  0
LINE
  8
0
 10
-15.487515449523926
 20
7.709461212158203
 30
0.0
 11
-16.092653274536133
 21
6.841706275939941
 31
0.0
  0
LINE
  8
0
 10
-16.092653274536133
 20
6.841706275939941
 30
0.0
 11
-16.72134017944336
 21
5.951372146606445
 31
0.0
  0
LINE
  8
0
 10
-16.72134017944336
 20
5.951372146606445
 30
0.0
 11
-17.36878776550293
 21
5.045357704162598
 31
0.0
  0
LINE
  8
0
 10
-17.36878776550293
 20
5.045357704162598
 30
0.0
 11
-18.030494689941406
 21
4.13021183013916
 31
0.0
  0
LINE
  8
0
 10
-18.030494689941406
 20
4.13021183013916
 30
0.0
 11
-18.702245712280273
 21
3.2121267318725586
 31
0.0
  0
LINE
  8
0
 10
-18.702245712280273
 20
3.2121267318725586
 30
0.0
 11
-19.380117416381836
 21
2.2969446182250977
 31
0.0
  0
LINE
  8
0
 10
-19.380117416381836
 20
2.2969446182250977
 30
0.0
 11
-20.060468673706055
 21
1.3901491165161133
 31
0.0
  0
LINE
  8
0
 10
-20.060468673706055
 20
1.3901491165161133
 30
0.0
 11
-20.739952087402344
 21
0.4968748092651367
 31
0.0
  0
LINE
  8
0
 10
-20.739952087402344
 20
0.4968748092651367
 30
0.0
 11
-21.415510177612305
 21
-0.3780989646911621
 31
0.0
  0
LINE
  8
0
 10
-21.415510177612305
 20
-0.3780989646911621
 30
0.0
 11
-22.08435821533203
 21
-1.2303457260131836
 31
0.0
  0
LINE
  8
0
 10
-22.08435821533203
 20
-1.2303457260131836
 30
0.0
 11
-22.744028091430664
 21
-2.055793285369873
 31
0.0
  0
LINE
  8
0
 10
-22.744028091430664
 20
-2.055793285369873
 30
0.0
 11
-23.392314910888672
 21
-2.8507213592529297
 31
0.0
  0
LINE
  8
0
 10
-23.392314910888672
 20
-2.8507213592529297
 30
0.0
 11
-24.027299880981445
 21
-3.611764430999756
 31
0.0
  0
LINE
  8
0
 10
-24.027299880981445
 20
-3.611764430999756
 30
0.0
 11
-24.64736557006836
 21
-4.335921287536621
 31
0.0
  0
LINE
  8
0
 10
-24.64736557006836
 20
-4.335921287536621
 30
0.0
 11
-25.251018524169922
 21
-5.020646095275879
 31
0.0
  0
LINE
  8
0
 10
-25.251018524169922
 20
-5.020646095275879
 30
0.0
 11
-25.836856842041016
 21
-5.663923740386963
 31
0.0
  0
LINE
  8
0
 10
-25.836856842041016
 20
-5.663923740386963
 30
0.0
 11
-26.403501510620117
 21
-6.264271259307861
 31
0.0
  0
LINE
  8
0
 10
-26.403501510620117
 20
-6.264271259307861
 30
0.0
 11
-26.94965362548828
 21
-6.820748329162598
 31
0.0
  0
LINE
  8
0
 10
-26.94965362548828
 20
-6.820748329162598
 30
0.0
 11
-27.474058151245117
 21
-7.332943916320801
 31
0.0
  0
LINE
  8
0
 10
-27.474058151245117
 20
-7.332943916320801
 30
0.0
 11
-27.97551918029785
 21
-7.800984859466553
 31
0.0
  0
LINE
  8
0
 10
-27.97551918029785
 20
-7.800984859466553
 30
0.0
 11
-28.452877044677734
 21
-8.225530624389648
 31
0.0
  0
LINE
  8
0
 10
-28.452877044677734
 20
-8.225530624389648
 30
0.0
 11
-28.90505027770996
 21
-8.607782363891602
 31
0.0
  0
LINE
  8
0
 10
-28.90505027770996
 20
-8.607782363891602
 30
0.0
 11
-29.33099937438965
 21
-8.949469566345215
 31
0.0
  0
LINE
  8
0
 10
-29.33099937438965
 20
-8.949469566345215
 30
0.0
 11
-29.729736328125
 21
-9.252859115600586
 31
0.0
  0
LINE
  8
0
 10
-29.729736328125
 20
-9.252859115600586
 30
0.0
 11
-30.100337982177734
 21
-9.520758628845215
 31
0.0
  0
LINE
  8
0
 10
-30.100337982177734
 20
-9.520758628845215
 30
0.0
 11
-30.441932678222656
 21
-9.756502151489258
 31
0.0
  0
LINE
  8
0
 10
-30.441932678222656
 20
-9.756502151489258
 30
0.0
 11
-30.753690719604492
 21
-9.963842391967773
 31
0.0
  0
LINE
  8
0
 10
-30.753690719604492
 20
-9.963842391967773
 30
0.0
 11
-31.034868240356445
 21
-10.146492004394531
 31
0.0
  0
LINE
  8
0
 10
-31.034868240356445
 20
-10.146492004394531
 30
0.0
 11
-31.284765243530273
 21
-10.307953834533691
 31
0.0
  0
LINE
  8
0
 10
-31.284765243530273
 20
-10.307953834533691
 30
0.0
 11
-31.502758026123047
 21
-10.451509475708008
 31
0.0
  0
LINE
  8
0
 10
-31.502758026123047
 20
-10.451509475708008
 30
0.0
 11
-31.688283920288086
 21
-10.580236434936523
 31
0.0
  0
LINE
  8
0
 10
-31.688283920288086
 20
-10.580236434936523
 30
0.0
 11
-31.840850830078125
 21
-10.69698429107666
 31
0.0
  0
LINE
  8
0
 10
-31.840850830078125
 20
-10.69698429107666
 30
0.0
 11
-31.960025787353516
 21
-10.804391860961914
 31
0.0
  0
LINE
  8
0
 10
-31.960025787353516
 20
-10.804391860961914
 30
0.0
 11
-32.04544448852539
 21
-10.904886245727539
 31
0.0
  0
LINE
  8
0
 10
-32.04544448852539
 20
-10.904886245727539
 30
0.0
 11
-32.09680938720703
 21
-11.000669479370117
 31
0.0
  0
LINE
  8
0
 10
-32.09680938720703
 20
-11.000669479370117
 30
0.0
 11
-32.11387634277344
 21
-11.093732833862305
 31
0.0
  0
LINE
  8
0
 10
-32.11387634277344
 20
-11.093732833862305
 30
0.0
 11
-32.09648513793945
 21
-11.185853958129883
 31
0.0
  0
LINE
  8
0
 10
-32.09648513793945
 20
-11.185853958129883
 30
0.0
 11
-32.044525146484375
 21
-11.278592109680176
 31
0.0
  0
LINE
  8
0
 10
-32.044525146484375
 20
-11.278592109680176
 30
0.0
 11
-31.957963943481445
 21
-11.373290061950684
 31
0.0
  0
LINE
  8
0
 10
-31.957963943481445
 20
-11.373290061950684
 30
0.0
 11
-31.83685302734375
 21
-11.471065521240234
 31
0.0
  0
LINE
  8
0
 10
-31.83685302734375
 20
-11.471065521240234
 30
0.0
 11
-31.68142318725586
 21
-11.572798728942871
 31
0.0
  0
LINE
  8
0
 10
-31.68142318725586
 20
-11.572798728942871
 30
0.0
 11
-31.4920597076416
 21
-11.679126739501953
 31
0.0
  0
LINE
  8
0
 10
-31.4920597076416
 20
-11.679126739501953
 30
0.0
 11
-31.269325256347656
 21
-11.790448188781738
 31
0.0
  0
LINE
  8
0
 10
-31.269325256347656
 20
-11.790448188781738
 30
0.0
 11
-31.01395034790039
 21
-11.906913757324219
 31
0.0
  0
LINE
  8
0
 10
-31.01395034790039
 20
-11.906913757324219
 30
0.0
 11
-30.726831436157227
 21
-12.028436660766602
 31
0.0
  0
LINE
  8
0
 10
-30.726831436157227
 20
-12.028436660766602
 30
0.0
 11
-30.409048080444336
 21
-12.15468692779541
 31
0.0
  0
LINE
  8
0
 10
-30.409048080444336
 20
-12.15468692779541
 30
0.0
 11
-30.06182861328125
 21
-12.285093307495117
 31
0.0
  0
LINE
  8
0
 10
-30.06182861328125
 20
-12.285093307495117
 30
0.0
 11
-29.68658447265625
 21
-12.418838500976562
 31
0.0
  0
LINE
  8
0
 10
-29.68658447265625
 20
-12.418838500976562
 30
0.0
 11
-29.28489875793457
 21
-12.554872512817383
 31
0.0
  0
LINE
  8
0
 10
-29.28489875793457
 20
-12.554872512817383
 30
0.0
 11
-28.8585205078125
 21
-12.691896438598633
 31
0.0
  0
LINE
  8
0
 10
-28.8585205078125
 20
-12.691896438598633
 30
0.0
 11
-28.409364700317383
 21
-12.828369140625
 31
0.0
  0
LINE
  8
0
 10
-28.409364700317383
 20
-12.828369140625
 30
0.0
 11
-27.939512252807617
 21
-12.962532043457031
 31
0.0
  0
LINE
  8
0
 10
-27.939512252807617
 20
-12.962532043457031
 30
0.0
 11
-27.4511775970459
 21
-13.092630386352539
 31
0.0
  0
LINE
  8
0
 10
-27.4511775970459
 20
-13.092630386352539
 30
0.0
 11
-26.9466552734375
 21
-13.217082023620605
 31
0.0
  0
LINE
  8
0
 10
-26.9466552734375
 20
-13.217082023620605
 30
0.0
 11
-26.428327560424805
 21
-13.334502220153809
 31
0.0
  0
LINE
  8
0
 10
-26.428327560424805
 20
-13.334502220153809
 30
0.0
 11
-25.89865493774414
 21
-13.443695068359375
 31
0.0
  0
LINE
  8
0
 10
-25.89865493774414
 20
-13.443695068359375
 30
0.0
 11
-25.360198974609375
 21
-13.54366397857666
 31
0.0
  0
LINE
  8
0
 10
-25.360198974609375
 20
-13.54366397857666
 30
0.0
 11
-24.81559181213379
 21
-13.633599281311035
 31
0.0
  0
LINE
  8
0
 10
-24.81559181213379
 20
-13.633599281311035
 30
0.0
 11
-24.26756477355957
 21
-13.712888717651367
 31
0.0
  0
LINE
  8
0
 10
-24.26756477355957
 20
-13.712888717651367
 30
0.0
 11
-23.718929290771484
 21
-13.781112670898438
 31
0.0
  0
LINE
  8
0
 10
-23.718929290771484
 20
-13.781112670898438
 30
0.0
 11
-23.172578811645508
 21
-13.83804702758789
 31
0.0
  0
LINE
  8
0
 10
-23.172578811645508
 20
-13.83804702758789
 30
0.0
 11
-22.631498336791992
 21
-13.883651733398438
 31
0.0
  0
LINE
  8
0
 10
-22.631498336791992
 20
-13.883651733398438
 30
0.0
 11
-22.098758697509766
 21
-13.918091773986816
 31
0.0
  0
LINE
  8
0
 10
-22.098758697509766
 20
-13.918091773986816
 30
0.0
 11
-21.57750701904297
 21
-13.941717147827148
 31
0.0
  0
LINE
  8
0
 10
-21.57750701904297
 20
-13.941717147827148
 30
0.0
 11
-21.0709171295166
 21
-13.955062866210938
 31
0.0
  0
LINE
  8
0
 10
-21.0709171295166
 20
-13.955062866210938
 30
0.0
 11
-20.58188819885254
 21
-13.958791732788086
 31
0.0
  0
LINE
  8
0
 10
-20.58188819885254
 20
-13.958791732788086
 30
0.0
 11
-20.112930297851562
 21
-13.953682899475098
 31
0.0
  0
LINE
  8
0
 10
-20.112930297851562
 20
-13.953682899475098
 30
0.0
 11
-19.666175842285156
 21
-13.940624237060547
 31
0.0
  0
LINE
  8
0
 10
-19.666175842285156
 20
-13.940624237060547
 30
0.0
 11
-19.243366241455078
 21
-13.920612335205078
 31
0.0
  0
LINE
  8
0
 10
-19.243366241455078
 20
-13.920612335205078
 30
0.0
 11
-18.845848083496094
 21
-13.894756317138672
 31
0.0
  0
LINE
  8
0
 10
-18.845848083496094
 20
-13.894756317138672
 30
0.0
 11
-18.474597930908203
 21
-13.864278793334961
 31
0.0
  0
LINE
  8
0
 10
-18.474597930908203
 20
-13.864278793334961
 30
0.0
 11
-18.130203247070312
 21
-13.830513000488281
 31
0.0
  0
LINE
  8
0
 10
-18.130203247070312
 20
-13.830513000488281
 30
0.0
 11
-17.812854766845703
 21
-13.794898986816406
 31
0.0
  0
LINE
  8
0
 10
-17.812854766845703
 20
-13.794898986816406
 30
0.0
 11
-17.52235984802246
 21
-13.758992195129395
 31
0.0
  0
LINE
  8
0
 10
-17.52235984802246
 20
-13.758992195129395
 30
0.0
 11
-17.258148193359375
 21
-13.724459648132324
 31
0.0
  0
LINE
  8
0
 10
-17.258148193359375
 20
-13.724459648132324
 30
0.0
 11
-17.019250869750977
 21
-13.693077087402344
 31
0.0
  0
LINE
  8
0
 10
-17.019250869750977
 20
-13.693077087402344
 30
0.0
 11
-16.80433464050293
 21
-13.666729927062988
 31
0.0
  0
LINE
  8
0
 10
-16.80433464050293
 20
-13.666729927062988
 30
0.0
 11
-16.611961364746094
 21
-13.647439002990723
 31
0.0
  0
LINE
  8
0
 10
-16.611961364746094
 20
-13.647439002990723
 30
0.0
 11
-16.441082000732422
 21
-13.637365341186523
 31
0.0
  0
LINE
  8
0
 10
-16.441082000732422
 20
-13.637365341186523
 30
0.0
 11
-16.291149139404297
 21
-13.638838768005371
 31
0.0
  0
LINE
  8
0
 10
-16.291149139404297
 20
-13.638838768005371
 30
0.0
 11
-16.162111282348633
 21
-13.65434455871582
 31
0.0
  0
LINE
  8
0
 10
-16.162111282348633
 20
-13.65434455871582
 30
0.0
 11
-16.054391860961914
 21
-13.686521530151367
 31
0.0
  0
LINE
  8
0
 10
-16.054391860961914
 20
-13.686521530151367
 30
0.0
 11
-15.968924522399902
 21
-13.738178253173828
 31
0.0
  0
LINE
  8
0
 10
-15.968924522399902
 20
-13.738178253173828
 30
0.0
 11
-15.907126426696777
 21
-13.812264442443848
 31
0.0
  0
LINE
  8
0
 10
-15.907126426696777
 20
-13.812264442443848
 30
0.0
 11
-15.870911598205566
 21
-13.911905288696289
 31
0.0
  0
LINE
  8
0
 10
-15.870911598205566
 20
-13.911905288696289
 30
0.0
 11
-15.862682342529297
 21
-14.040374755859375
 31
0.0
  0
LINE
  8
0
 10
-15.862682342529297
 20
-14.040374755859375
 30
0.0
 11
-15.885330200195312
 21
-14.201105117797852
 31
0.0
  0
LINE
  8
0
 10
-15.885330200195312
 20
-14.201105117797852
 30
0.0
 11
-15.94225025177002
 21
-14.397689819335938
 31
0.0
  0
LINE
  8
0
 10
-15.94225025177002
 20
-14.397689819335938
 30
0.0
 11
-16.03731918334961
 21
-14.633883476257324
 31
0.0
  0
LINE
  8
0
 10
-16.03731918334961
 20
-14.633883476257324
 30
0.0
 11
-16.17484474182129
 21
-14.913541793823242
 31
0.0
  0
LINE
  8
0
 10
-16.17484474182129
 20
-14.913541793823242
 30
0.0
 11
-16.35892105102539
 21
-15.240150451660156
 31
0.0
  0
LINE
  8
0
 10
-16.35892105102539
 20
-15.240150451660156
 30
0.0
 11
-16.59288215637207
 21
-15.616395950317383
 31
0.0
  0
LINE
  8
0
 10
-16.59288215637207
 20
-15.616395950317383
 30
0.0
 11
-16.87925148010254
 21
-16.04412841796875
 31
0.0
  0
LINE
  8
0
 10
-16.87925148010254
 20
-16.04412841796875
 30
0.0
 11
-17.219741821289062
 21
-16.52437400817871
 31
0.0
  0
LINE
  8
0
 10
-17.219741821289062
 20
-16.52437400817871
 30
0.0
 11
-17.615257263183594
 21
-17.05732536315918
 31
0.0
  0
LINE
  8
0
 10
-17.615257263183594
 20
-17.05732536315918
 30
0.0
 11
-18.065887451171875
 21
-17.642335891723633
 31
0.0
  0
LINE
  8
0
 10
-18.065887451171875
 20
-17.642335891723633
 30
0.0
 11
-18.57091522216797
 21
-18.277935028076172
 31
0.0
  0
LINE
  8
0
 10
-18.57091522216797
 20
-18.277935028076172
 30
0.0
 11
-19.128822326660156
 21
-18.96181869506836
 31
0.0
  0
LINE
  8
0
 10
-19.128822326660156
 20
-18.96181869506836
 30
0.0
 11
-19.737260818481445
 21
-19.690853118896484
 31
0.0
  0
LINE
  8
0
 10
-19.737260818481445
 20
-19.690853118896484
 30
0.0
 11
-20.393095016479492
 21
-20.461063385009766
 31
0.0
  0
LINE
  8
0
 10
-20.393095016479492
 20
-20.461063385009766
 30
0.0
 11
-21.09235954284668
 21
-21.267654418945312
 31
0.0
  0
LINE
  8
0
 10
-21.09235954284668
 20
-21.267654418945312
 30
0.0
 11
-21.83029556274414
 21
-22.104991912841797
 31
0.0
  0
LINE
  8
0
 10
-21.83029556274414
 20
-22.104991912841797
 30
0.0
 11
-22.601465225219727
 21
-22.966777801513672
 31
0.0
  0
LINE
  8
0
 10
-22.601465225219727
 20
-22.966777801513672
 30
0.0
 11
-23.400304794311523
 21
-23.846670150756836
 31
0.0
  0
LINE
  8
0
 10
-23.400304794311523
 20
-23.846670150756836
 30
0.0
 11
-24.221345901489258
 21
-24.738590240478516
 31
0.0
  0
LINE
  8
0
 10
-24.221345901489258
 20
-24.738590240478516
 30
0.0
 11
-25.05924415588379
 21
-25.636680603027344
 31
0.0
  0
LINE
  8
0
 10
-25.05924415588379
 20
-25.636680603027344
 30
0.0
 11
-25.90874671936035
 21
-26.535350799560547
 31
0.0
  0
LINE
  8
0
 10
-25.90874671936035
 20
-26.535350799560547
 30
0.0
 11
-26.764738082885742
 21
-27.429264068603516
 31
0.0
  0
LINE
  8
0
 10
-26.764738082885742
 20
-27.429264068603516
 30
0.0
 11
-27.6221866607666
 21
-28.313316345214844
 31
0.0
  0
LINE
  8
0
 10
-27.6221866607666
 20
-28.313316345214844
 30
0.0
 11
-28.476198196411133
 21
-29.182674407958984
 31
0.0
  0
LINE
  8
0
 10
-28.476198196411133
 20
-29.182674407958984
 30
0.0
 11
-29.32196807861328
 21
-30.032730102539062
 31
0.0
  0
LINE
  8
0
 10
-29.32196807861328
 20
-30.032730102539062
 30
0.0
 11
-30.154808044433594
 21
-30.859146118164062
 31
0.0
  0
LINE
  8
0
 10
-30.154808044433594
 20
-30.859146118164062
 30
0.0
 11
-30.970151901245117
 21
-31.657825469970703
 31
0.0
  0
LINE
  8
0
 10
-30.970151901245117
 20
-31.657825469970703
 30
0.0
 11
-31.763521194458008
 21
-32.42491149902344
 31
0.0
  0
LINE
  8
0
 10
-31.763521194458008
 20
-32.42491149902344
 30
0.0
 11
-32.530574798583984
 21
-33.156822204589844
 31
0.0
  0
LINE
  8
0
 10
-32.530574798583984
 20
-33.156822204589844
 30
0.0
 11
-33.26719284057617
 21
-33.850341796875
 31
0.0
  0
LINE
  8
0
 10
-33.26719284057617
 20
-33.850341796875
 30
0.0
 11
-33.96968460083008
 21
-34.50288391113281
 31
0.0
  0
LINE
  8
0
 10
-33.96968460083008
 20
-34.50288391113281
 30
0.0
 11
-34.63486862182617
 21
-35.112552642822266
 31
0.0
  0
LINE
  8
0
 10
-34.63486862182617
 20
-35.112552642822266
 30
0.0
 11
-35.2600212097168
 21
-35.67811965942383
 31
0.0
  0
LINE
  8
0
 10
-35.2600212097168
 20
-35.67811965942383
 30
0.0
 11
-35.84293746948242
 21
-36.19903564453125
 31
0.0
  0
LINE
  8
0
 10
-35.84293746948242
 20
-36.19903564453125
 30
0.0
 11
-36.381858825683594
 21
-36.6754264831543
 31
0.0
  0
LINE
  8
0
 10
-36.381858825683594
 20
-36.6754264831543
 30
0.0
 11
-36.87555694580078
 21
-37.10810852050781
 31
0.0
  0
LINE
  8
0
 10
-36.87555694580078
 20
-37.10810852050781
 30
0.0
 11
-37.3232307434082
 21
-37.49855041503906
 31
0.0
  0
LINE
  8
0
 10
-37.3232307434082
 20
-37.49855041503906
 30
0.0
 11
-37.724632263183594
 21
-37.84892654418945
 31
0.0
  0
LINE
  8
0
 10
-37.724632263183594
 20
-37.84892654418945
 30
0.0
 11
-38.07993698120117
 21
-38.16206741333008
 31
0.0
  0
LINE
  8
0
 10
-38.07993698120117
 20
-38.16206741333008
 30
0.0
 11
-38.38984298706055
 21
-38.44149398803711
 31
0.0
  0
LINE
  8
0
 10
-38.38984298706055
 20
-38.44149398803711
 30
0.0
 11
-38.6555290222168
 21
-38.691402435302734
 31
0.0
  0
LINE
  8
0
 10
-38.6555290222168
 20
-38.691402435302734
 30
0.0
 11
-38.87858963012695
 21
-38.91660690307617
 31
0.0
  0
LINE
  8
0
 10
-38.87858963012695
 20
-38.91660690307617
 30
0.0
 11
-39.06063461303711
 21
-39.12210464477539
 31
0.0
  0
LINE
  8
0
 10
-39.06063461303711
 20
-39.12210464477539
 30
0.0
 11
-39.20279312133789
 21
-39.31262969970703
 31
0.0
  0
LINE
  8
0
 10
-39.20279312133789
 20
-39.31262969970703
 30
0.0
 11
-39.30572509765625
 21
-39.492584228515625
 31
0.0
  0
LINE
  8
0
 10
-39.30572509765625
 20
-39.492584228515625
 30
0.0
 11
-39.36960983276367
 21
-39.666099548339844
 31
0.0
  0
LINE
  8
0
 10
-39.36960983276367
 20
-39.666099548339844
 30
0.0
 11
-39.394142150878906
 21
-39.83699417114258
 31
0.0
  0
LINE
  8
0
 10
-39.394142150878906
 20
-39.83699417114258
 30
0.0
 11
-39.3785285949707
 21
-40.00879669189453
 31
0.0
  0
LINE
  8
0
 10
-39.3785285949707
 20
-40.00879669189453
 30
0.0
 11
-39.321495056152344
 21
-40.18471145629883
 31
0.0
  0
LINE
  8
0
 10
-39.321495056152344
 20
-40.18471145629883
 30
0.0
 11
-39.221290588378906
 21
-40.3676643371582
 31
0.0
  0
LINE
  8
0
 10
-39.221290588378906
 20
-40.3676643371582
 30
0.0
 11
-39.075679779052734
 21
-40.56027603149414
 31
0.0
  0
LINE
  8
0
 10
-39.075679779052734
 20
-40.56027603149414
 30
0.0
 11
-38.881919860839844
 21
-40.76485061645508
 31
0.0
  0
LINE
  8
0
 10
-38.881919860839844
 20
-40.76485061645508
 30
0.0
 11
-38.636837005615234
 21
-40.98340606689453
 31
0.0
  0
LINE
  8
0
 10
-38.636837005615234
 20
-40.98340606689453
 30
0.0
 11
-38.33673095703125
 21
-41.2176628112793
 31
0.0
  0
LINE
  8
0
 10
-38.33673095703125
 20
-41.2176628112793
 30
0.0
 11
-37.97764587402344
 21
-41.4690055847168
 31
0.0
  0
LINE
  8
0
 10
-37.97764587402344
 20
-41.4690055847168
 30
0.0
 11
-37.5562629699707
 21
-41.738441467285156
 31
0.0
  0
LINE
  8
0
 10
-37.5562629699707
 20
-41.738441467285156
 30
0.0
 11
-37.07026290893555
 21
-42.026527404785156
 31
0.0
  0
LINE
  8
0
 10
-37.07026290893555
 20
-42.026527404785156
 30
0.0
 11
-36.51840591430664
 21
-42.33342361450195
 31
0.0
  0
LINE
  8
0
 10
-36.51840591430664
 20
-42.33342361450195
 30
0.0
 11
-35.90044021606445
 21
-42.6588134765625
 31
0.0
  0
LINE
  8
0
 10
-35.90044021606445
 20
-42.6588134765625
 30
0.0
 11
-35.21720886230469
 21
-43.00200271606445
 31
0.0
  0
LINE
  8
0
 10
-35.21720886230469
 20
-43.00200271606445
 30
0.0
 11
-34.47055435180664
 21
-43.36182403564453
 31
0.0
  0
LINE
  8
0
 10
-34.47055435180664
 20
-43.36182403564453
 30
0.0
 11
-33.663368225097656
 21
-43.73670196533203
 31
0.0
  0
LINE
  8
0
 10
-33.663368225097656
 20
-43.73670196533203
 30
0.0
 11
-32.79958724975586
 21
-44.124637603759766
 31
0.0
  0
LINE
  8
0
 10
-32.79958724975586
 20
-44.124637603759766
 30
0.0
 11
-31.884178161621094
 21
-44.52317428588867
 31
0.0
  0
LINE
  8
0
 10
-31.884178161621094
 20
-44.52317428588867
 30
0.0
 11
-30.92315101623535
 21
-44.92945098876953
 31
0.0
  0
LINE
  8
0
 10
-30.92315101623535
 20
-44.92945098876953
 30
0.0
 11
-29.923559188842773
 21
-45.34016036987305
 31
0.0
  0
LINE
  8
0
 10
-29.923559188842773
 20
-45.34016036987305
 30
0.0
 11
-28.893465042114258
 21
-45.7515983581543
 31
0.0
  0
LINE
  8
0
 10
-28.893465042114258
 20
-45.7515983581543
 30
0.0
 11
-27.84151268005371
 21
-46.15983200073242
 31
0.0
  0
LINE
  8
0
 10
-27.84151268005371
 20
-46.15983200073242
 30
0.0
 11
-26.77598762512207
 21
-46.56127166748047
 31
0.0
  0
LINE
  8
0
 10
-26.77598762512207
 20
-46.56127166748047
 30
0.0
 11
-25.70465087890625
 21
-46.95268249511719
 31
0.0
  0
LINE
  8
0
 10
-25.70465087890625
 20
-46.95268249511719
 30
0.0
 11
-24.63472557067871
 21
-47.33125305175781
 31
0.0
  0
LINE
  8
0
 10
-24.63472557067871
 20
-47.33125305175781
 30
0.0
 11
-23.57288932800293
 21
-47.694541931152344
 31
0.0
  0
LINE
  8
0
 10
-23.57288932800293
 20
-47.694541931152344
 30
0.0
 11
-22.525306701660156
 21
-48.04050064086914
 31
0.0
  0
LINE
  8
0
 10
-22.525306701660156
 20
-48.04050064086914
 30
0.0
 11
-21.497581481933594
 21
-48.367488861083984
 31
0.0
  0
LINE
  8
0
 10
-21.497581481933594
 20
-48.367488861083984
 30
0.0
 11
-20.494800567626953
 21
-48.67424011230469
 31
0.0
  0
LINE
  8
0
 10
-20.494800567626953
 20
-48.67424011230469
 30
0.0
 11
-19.521509170532227
 21
-48.95988464355469
 31
0.0
  0
LINE
  8
0
 10
-19.521509170532227
 20
-48.95988464355469
 30
0.0
 11
-18.581714630126953
 21
-49.223968505859375
 31
0.0
  0
LINE
  8
0
 10
-18.581714630126953
 20
-49.223968505859375
 30
0.0
 11
-17.678892135620117
 21
-49.46638107299805
 31
0.0
  0
LINE
  8
0
 10
-17.678892135620117
 20
-49.46638107299805
 30
0.0
 11
-16.815982818603516
 21
-49.687461853027344
 31
0.0
  0
LINE
  8
0
 10
-16.815982818603516
 20
-49.687461853027344
 30
0.0
 11
-15.99539852142334
 21
-49.88787841796875
 31
0.0
  0
LINE
  8
0
 10
-15.99539852142334
 20
-49.88787841796875
 30
0.0
 11
-15.219050407409668
 21
-50.068519592285156
 31
0.0
  0
LINE
  8
0
 10
-15.219050407409668
 20
-50.068519592285156
 30
0.0
 11
-14.488407135009766
 21
-50.23033142089844
 31
0.0
  0
LINE
  8
0
 10
-14.488407135009766
 20
-50.23033142089844
 30
0.0
 11
-13.804482460021973
 21
-50.374244689941406
 31
0.0
  0
LINE
  8
0
 10
-13.804482460021973
 20
-50.374244689941406
 30
0.0
 11
-13.16784954071045
 21
-50.50123596191406
 31
0.0
  0
LINE
  8
0
 10
-13.16784954071045
 20
-50.50123596191406
 30
0.0
 11
-12.578619003295898
 21
-50.612308502197266
 31
0.0
  0
LINE
  8
0
 10
-12.578619003295898
 20
-50.612308502197266
 30
0.0
 11
-12.036462783813477
 21
-50.708473205566406
 31
0.0
  0
LINE
  8
0
 10
-12.036462783813477
 20
-50.708473205566406
 30
0.0
 11
-11.540600776672363
 21
-50.7907600402832
 31
0.0
  0
LINE
  8
0
 10
-11.540600776672363
 20
-50.7907600402832
 30
0.0
 11
-11.089804649353027
 21
-50.86024856567383
 31
0.0
  0
LINE
  8
0
 10
-11.089804649353027
 20
-50.86024856567383
 30
0.0
 11
-10.68239688873291
 21
-50.91802215576172
 31
0.0
  0
LINE
  8
0
 10
-10.68239688873291
 20
-50.91802215576172
 30
0.0
 11
-10.316251754760742
 21
-50.965179443359375
 31
0.0
  0
LINE
  8
0
 10
-10.316251754760742
 20
-50.965179443359375
 30
0.0
 11
-9.988791465759277
 21
-51.002845764160156
 31
0.0
  0
LINE
  8
0
 10
-9.988791465759277
 20
-51.002845764160156
 30
0.0
 11
-9.696991920471191
 21
-51.032196044921875
 31
0.0
  0
LINE
  8
0
 10
-9.696991920471191
 20
-51.032196044921875
 30
0.0
 11
-9.437475204467773
 21
-51.05438232421875
 31
0.0
  0
LINE
  8
0
 10
-9.437475204467773
 20
-51.05438232421875
 30
0.0
 11
-9.206911087036133
 21
-51.070518493652344
 31
0.0
  0
LINE
  8
0
 10
-9.206911087036133
 20
-51.070518493652344
 30
0.0
 11
-9.002217292785645
 21
-51.08171463012695
 31
0.0
  0
LINE
  8
0
 10
-9.002217292785645
 20
-51.08171463012695
 30
0.0
 11
-8.820557594299316
 21
-51.088951110839844
 31
0.0
  0
LINE
  8
0
 10
-8.820557594299316
 20
-51.088951110839844
 30
0.0
 11
-8.659347534179688
 21
-51.09321212768555
 31
0.0
  0
LINE
  8
0
 10
-8.659347534179688
 20
-51.09321212768555
 30
0.0
 11
-8.51624870300293
 21
-51.09538269042969
 31
0.0
  0
LINE
  8
0
 10
-8.51624870300293
 20
-51.09538269042969
 30
0.0
 11
-8.389175415039062
 21
-51.0963134765625
 31
0.0
  0
LINE
  8
0
 10
-8.389175415039062
 20
-51.0963134765625
 30
0.0
 11
-8.276293754577637
 21
-51.096797943115234
 31
0.0
  0
LINE
  8
0
 10
-8.276293754577637
 20
-51.096797943115234
 30
0.0
 11
-8.176010131835938
 21
-51.097564697265625
 31
0.0
  0
LINE
  8
0
 10
-8.176010131835938
 20
-51.097564697265625
 30
0.0
 11
-8.08698844909668
 21
-51.09928512573242
 31
0.0
  0
LINE
  8
0
 10
-8.08698844909668
 20
-51.09928512573242
 30
0.0
 11
-8.008138656616211
 21
-51.10258102416992
 31
0.0
  0
LINE
  8
0
 10
-8.008138656616211
 20
-51.10258102416992
 30
0.0
 11
-7.938620090484619
 21
-51.10798645019531
 31
0.0
  0
LINE
  8
0
 10
-7.938620090484619
 20
-51.10798645019531
 30
0.0
 11
-7.877842426300049
 21
-51.11608123779297
 31
0.0
  0
LINE
  8
0
 10
-7.877842426300049
 20
-51.11608123779297
 30
0.0
 11
-7.825372695922852
 21
-51.128822326660156
 31
0.0
  0
LINE
  8
0
 10
-7.825372695922852
 20
-51.128822326660156
 30
0.0
 11
-7.780772686004639
 21
-51.152565002441406
 31
0.0
  0
LINE
  8
0
 10
-7.780772686004639
 20
-51.152565002441406
 30
0.0
 11
-7.743559837341309
 21
-51.19871139526367
 31
0.0
  0
LINE
  8
0
 10
-7.743559837341309
 20
-51.19871139526367
 30
0.0
 11
-7.713203430175781
 21
-51.283714294433594
 31
0.0
  0
LINE
  8
0
 10
-7.713203430175781
 20
-51.283714294433594
 30
0.0
 11
-7.6891255378723145
 21
-51.429039001464844
 31
0.0
  0
LINE
  8
0
 10
-7.6891255378723145
 20
-51.429039001464844
 30
0.0
 11
-7.670703887939453
 21
-51.661251068115234
 31
0.0
  0
LINE
  8
0
 10
-7.670703887939453
 20
-51.661251068115234
 30
0.0
 11
-7.65726900100708
 21
-52.011898040771484
 31
0.0
  0
LINE
  8
0
 10
-7.65726900100708
 20
-52.011898040771484
 30
0.0
 11
-7.648104667663574
 21
-52.51762390136719
 31
0.0
  0
LINE
  8
0
 10
-7.648104667663574
 20
-52.51762390136719
 30
0.0
 11
-7.642449855804443
 21
-53.22007751464844
 31
0.0
  0
LINE
  8
0
 10
-7.642449855804443
 20
-53.22007751464844
 30
0.0
 11
-7.639495849609375
 21
-54.16598129272461
 31
0.0
  0
LINE
  8
0
 10
-7.639495849609375
 20
-54.16598129272461
 30
0.0
 11
-7.638389587402344
 21
-55.407073974609375
 31
0.0
  0
LINE
  8
0
 10
-7.638389587402344
 20
-55.407073974609375
 30
0.0
 11
-7.638228893280029
 21
-57.00015640258789
 31
0.0
  0
LINE
  8
0
 10
7.638227939605713
 20
-57.005340576171875
 30
0.0
 11
-7.638228893280029
 21
-57.00015640258789
 31
0.0
  0
ENDSEC
  0
EOF
