  0
SECTION
  2
HEADER
  9
$ACADVER
  1
AC1009
  9
$INSBASE
 10
0.0
 20
0.0
 30
0.0
  9
$EXTMIN
 10
0.0
 20
0.0
 30
0.0
  9
$EXTMAX
 10
0.0
 20
0.0
 30
0.0
  0
ENDSEC
  0
SECTION
  2
TABLES
  0
TABLE
  2
VPORT
 70
1
  0
VPORT
  2
*ACTIVE
 70
0
 10
0.0
 20
0.0
 11
1.0
 21
1.0
 12
-5.0
 22
1.0
 13
0.0
 23
0.0
 14
0.1
 24
0.1
 15
0.1
 25
0.1
 16
0.0
 26
0.0
 36
1.0
 17
0.0
 27
0.0
 37
0.0
 40
10.0
 41
1.0
 42
50.0
 43
0.0
 44
0.0
 50
0.0
 51
0.0
 71
0
 72
100
 73
1
 74
1
 75
0
 76
0
 77
0
 78
0
  0
ENDTAB
  0
TABLE
  2
LTYPE
 70
8
  0
LTYPE
  2
CONTINUOUS
 70
0
  3
Solid line
 72
65
 73
0
 40
0.0
  0
LTYPE
  2
DOT
 70
0
  3
. . . . . . .
 72
65
 73
2
 40
0.25
 49
0.0
 49
-0.25
  0
LTYPE
  2
DASHED
 70
0
  3
__ __ __ __ __
 72
65
 73
2
 40
0.8
 49
0.5
 49
-0.3
  0
LTYPE
  2
DASHDOT
 70
0
  3
__ . __ . __ .
 72
65
 73
4
 40
1.0
 49
0.5
 49
-0.25
 49
0.0
 49
-0.25
  0
LTYPE
  2
DIVIDE
 70
0
  3
____ . . ____ . . 
 72
65
 73
6
 40
1.25
 49
0.5
 49
-0.25
 49
0.0
 49
-0.25
 49
0.0
 49
-0.25
  0
LTYPE
  2
BORDER
 70
0
  3
__ __ . __ __ . 
 72
65
 73
6
 40
1.75
 49
0.5
 49
-0.25
 49
0.5
 49
-0.25
 49
0.0
 49
-0.25
  0
LTYPE
  2
HIDDEN
 70
0
  3
__ __ __ __ __
 72
65
 73
2
 40
0.4
 49
0.25
 49
-0.25
  0
LTYPE
  2
CENTER
 70
0
  3
____ _ ____ _ __
 72
65
 73
4
 40
2.0
 49
1.25
 49
-0.25
 49
0.25
 49
-0.25
  0
ENDTAB
  0
TABLE
  2
LAYER
 70
1
  0
LAYER
  2
PYDXF
 70
64
 62
7
  6
continuous
  0
ENDTAB
  0
TABLE
  2
STYLE
 70
1
  0
STYLE
  2
STANDARD
 70
0
 40
0
 41
1.0
 50
0.0
 71
0
 42
1
 3
ARIAL.TTF
 4

  0
ENDTAB
  0
TABLE
  2
VIEW
 70
1
  0
VIEW
  2
BF_TOPVIEW
 70
0
 40
120.0
 10
0.0
 20
0.0
 41
200.0
 11
0.0
 21
0.0
 31
1.0
 12
0.0
 22
0.0
 32
0.0
 42
50.0
 43
0.0
 44
0.0
 50
0.0
 71
0
  0
ENDTAB
  0
ENDSEC
  0
SECTION
  2
BLOCKS
  0
ENDSEC
  0
SECTION
  2
ENTITIES
  0
LINE
  8
0
 10
4.030284404754639
 20
-56.40657043457031
 30
0.0
 11
4.030377388000488
 21
-54.83197021484375
 31
0.0
  0
LINE
  8
0
 10
4.030377388000488
 20
-54.83197021484375
 30
0.0
 11
4.031077861785889
 21
-53.605186462402344
 31
0.0
  0
LINE
  8
0
 10
4.031077861785889
 20
-53.605186462402344
 30
0.0
 11
4.033152103424072
 21
-52.670143127441406
 31
0.0
  0
LINE
  8
0
 10
4.033152103424072
 20
-52.670143127441406
 30
0.0
 11
4.037527084350586
 21
-51.97570037841797
 31
0.0
  0
LINE
  8
0
 10
4.037527084350586
 20
-51.97570037841797
 30
0.0
 11
4.04530143737793
 21
-51.47568130493164
 31
0.0
  0
LINE
  8
0
 10
4.04530143737793
 20
-51.47568130493164
 30
0.0
 11
4.057737350463867
 21
-51.12894821166992
 31
0.0
  0
LINE
  8
0
 10
4.057737350463867
 20
-51.12894821166992
 30
0.0
 11
4.076267242431641
 21
-50.89930725097656
 31
0.0
  0
LINE
  8
0
 10
4.076267242431641
 20
-50.89930725097656
 30
0.0
 11
4.102487087249756
 21
-50.75554656982422
 31
0.0
  0
LINE
  8
0
 10
4.102487087249756
 20
-50.75554656982422
 30
0.0
 11
4.1381635665893555
 21
-50.67145538330078
 31
0.0
  0
LINE
  8
0
 10
4.1381635665893555
 20
-50.67145538330078
 30
0.0
 11
4.185229301452637
 21
-50.62579345703125
 31
0.0
  0
LINE
  8
0
 10
4.185229301452637
 20
-50.62579345703125
 30
0.0
 11
4.24578332901001
 21
-50.6023063659668
 31
0.0
  0
LINE
  8
0
 10
4.24578332901001
 20
-50.6023063659668
 30
0.0
 11
4.322090148925781
 21
-50.589698791503906
 31
0.0
  0
LINE
  8
0
 10
4.322090148925781
 20
-50.589698791503906
 30
0.0
 11
4.416585922241211
 21
-50.581703186035156
 31
0.0
  0
LINE
  8
0
 10
4.416585922241211
 20
-50.581703186035156
 30
0.0
 11
4.53181791305542
 21
-50.57634353637695
 31
0.0
  0
LINE
  8
0
 10
4.53181791305542
 20
-50.57634353637695
 30
0.0
 11
4.6702165603637695
 21
-50.573081970214844
 31
0.0
  0
LINE
  8
0
 10
4.6702165603637695
 20
-50.573081970214844
 30
0.0
 11
4.833981513977051
 21
-50.57137680053711
 31
0.0
  0
LINE
  8
0
 10
4.833981513977051
 20
-50.57137680053711
 30
0.0
 11
5.0250749588012695
 21
-50.570621490478516
 31
0.0
  0
LINE
  8
0
 10
5.0250749588012695
 20
-50.570621490478516
 30
0.0
 11
5.245222568511963
 21
-50.57014083862305
 31
0.0
  0
LINE
  8
0
 10
5.245222568511963
 20
-50.57014083862305
 30
0.0
 11
5.495914459228516
 21
-50.56922149658203
 31
0.0
  0
LINE
  8
0
 10
5.495914459228516
 20
-50.56922149658203
 30
0.0
 11
5.77840518951416
 21
-50.567081451416016
 31
0.0
  0
LINE
  8
0
 10
5.77840518951416
 20
-50.567081451416016
 30
0.0
 11
6.093713760375977
 21
-50.562889099121094
 31
0.0
  0
LINE
  8
0
 10
6.093713760375977
 20
-50.562889099121094
 30
0.0
 11
6.4426188468933105
 21
-50.55574035644531
 31
0.0
  0
LINE
  8
0
 10
6.4426188468933105
 20
-50.55574035644531
 30
0.0
 11
6.825672149658203
 21
-50.544708251953125
 31
0.0
  0
LINE
  8
0
 10
6.825672149658203
 20
-50.544708251953125
 30
0.0
 11
7.2431793212890625
 21
-50.52877426147461
 31
0.0
  0
LINE
  8
0
 10
7.2431793212890625
 20
-50.52877426147461
 30
0.0
 11
7.695215225219727
 21
-50.50688552856445
 31
0.0
  0
LINE
  8
0
 10
7.695215225219727
 20
-50.50688552856445
 30
0.0
 11
8.181621551513672
 21
-50.4779167175293
 31
0.0
  0
LINE
  8
0
 10
8.181621551513672
 20
-50.4779167175293
 30
0.0
 11
8.702070236206055
 21
-50.44073486328125
 31
0.0
  0
LINE
  8
0
 10
8.702070236206055
 20
-50.44073486328125
 30
0.0
 11
9.256207466125488
 21
-50.394187927246094
 31
0.0
  0
LINE
  8
0
 10
9.256207466125488
 20
-50.394187927246094
 30
0.0
 11
9.843688011169434
 21
-50.337162017822266
 31
0.0
  0
LINE
  8
0
 10
9.843688011169434
 20
-50.337162017822266
 30
0.0
 11
10.46417236328125
 21
-50.268558502197266
 31
0.0
  0
LINE
  8
0
 10
10.46417236328125
 20
-50.268558502197266
 30
0.0
 11
11.117330551147461
 21
-50.18730163574219
 31
0.0
  0
LINE
  8
0
 10
11.117330551147461
 20
-50.18730163574219
 30
0.0
 11
11.802841186523438
 21
-50.09236526489258
 31
0.0
  0
LINE
  8
0
 10
11.802841186523438
 20
-50.09236526489258
 30
0.0
 11
12.520389556884766
 21
-49.982696533203125
 31
0.0
  0
LINE
  8
0
 10
12.520389556884766
 20
-49.982696533203125
 30
0.0
 11
13.26966381072998
 21
-49.85730743408203
 31
0.0
  0
LINE
  8
0
 10
13.26966381072998
 20
-49.85730743408203
 30
0.0
 11
14.050362586975098
 21
-49.715206146240234
 31
0.0
  0
LINE
  8
0
 10
14.050362586975098
 20
-49.715206146240234
 30
0.0
 11
14.862195014953613
 21
-49.5554313659668
 31
0.0
  0
LINE
  8
0
 10
14.862195014953613
 20
-49.5554313659668
 30
0.0
 11
15.704878807067871
 21
-49.3770637512207
 31
0.0
  0
LINE
  8
0
 10
15.704878807067871
 20
-49.3770637512207
 30
0.0
 11
16.5781307220459
 21
-49.17915344238281
 31
0.0
  0
LINE
  8
0
 10
16.5781307220459
 20
-49.17915344238281
 30
0.0
 11
17.481647491455078
 21
-48.960853576660156
 31
0.0
  0
LINE
  8
0
 10
17.481647491455078
 20
-48.960853576660156
 30
0.0
 11
18.414819717407227
 21
-48.72146224975586
 31
0.0
  0
LINE
  8
0
 10
18.414819717407227
 20
-48.72146224975586
 30
0.0
 11
19.376361846923828
 21
-48.460693359375
 31
0.0
  0
LINE
  8
0
 10
19.376361846923828
 20
-48.460693359375
 30
0.0
 11
20.364320755004883
 21
-48.17861557006836
 31
0.0
  0
LINE
  8
0
 10
20.364320755004883
 20
-48.17861557006836
 30
0.0
 11
21.376060485839844
 21
-47.875675201416016
 31
0.0
  0
LINE
  8
0
 10
21.376060485839844
 20
-47.875675201416016
 30
0.0
 11
22.408267974853516
 21
-47.55276107788086
 31
0.0
  0
LINE
  8
0
 10
22.408267974853516
 20
-47.55276107788086
 30
0.0
 11
23.456945419311523
 21
-47.21109390258789
 31
0.0
  0
LINE
  8
0
 10
23.456945419311523
 20
-47.21109390258789
 30
0.0
 11
24.517425537109375
 21
-46.85231399536133
 31
0.0
  0
LINE
  8
0
 10
24.517425537109375
 20
-46.85231399536133
 30
0.0
 11
25.584339141845703
 21
-46.478424072265625
 31
0.0
  0
LINE
  8
0
 10
25.584339141845703
 20
-46.478424072265625
 30
0.0
 11
26.651657104492188
 21
-46.091854095458984
 31
0.0
  0
LINE
  8
0
 10
26.651657104492188
 20
-46.091854095458984
 30
0.0
 11
27.7126522064209
 21
-45.69536590576172
 31
0.0
  0
LINE
  8
0
 10
27.7126522064209
 20
-45.69536590576172
 30
0.0
 11
28.759950637817383
 21
-45.292152404785156
 31
0.0
  0
LINE
  8
0
 10
28.759950637817383
 20
-45.292152404785156
 30
0.0
 11
29.785451889038086
 21
-44.88578414916992
 31
0.0
  0
LINE
  8
0
 10
29.785451889038086
 20
-44.88578414916992
 30
0.0
 11
30.780620574951172
 21
-44.480106353759766
 31
0.0
  0
LINE
  8
0
 10
30.780620574951172
 20
-44.480106353759766
 30
0.0
 11
31.737411499023438
 21
-44.07880401611328
 31
0.0
  0
LINE
  8
0
 10
31.737411499023438
 20
-44.07880401611328
 30
0.0
 11
32.648807525634766
 21
-43.68513488769531
 31
0.0
  0
LINE
  8
0
 10
32.648807525634766
 20
-43.68513488769531
 30
0.0
 11
33.508827209472656
 21
-43.301937103271484
 31
0.0
  0
LINE
  8
0
 10
33.508827209472656
 20
-43.301937103271484
 30
0.0
 11
34.31251525878906
 21
-42.9316291809082
 31
0.0
  0
LINE
  8
0
 10
34.31251525878906
 20
-42.9316291809082
 30
0.0
 11
35.05595397949219
 21
-42.576175689697266
 31
0.0
  0
LINE
  8
0
 10
35.05595397949219
 20
-42.576175689697266
 30
0.0
 11
35.736270904541016
 21
-42.237159729003906
 31
0.0
  0
LINE
  8
0
 10
35.736270904541016
 20
-42.237159729003906
 30
0.0
 11
36.35159683227539
 21
-41.91571044921875
 31
0.0
  0
LINE
  8
0
 10
36.35159683227539
 20
-41.91571044921875
 30
0.0
 11
36.90113830566406
 21
-41.612552642822266
 31
0.0
  0
LINE
  8
0
 10
36.90113830566406
 20
-41.612552642822266
 30
0.0
 11
37.38510513305664
 21
-41.327945709228516
 31
0.0
  0
LINE
  8
0
 10
37.38510513305664
 20
-41.327945709228516
 30
0.0
 11
37.804752349853516
 21
-41.0617790222168
 31
0.0
  0
LINE
  8
0
 10
37.804752349853516
 20
-41.0617790222168
 30
0.0
 11
38.1623649597168
 21
-40.813472747802734
 31
0.0
  0
LINE
  8
0
 10
38.1623649597168
 20
-40.813472747802734
 30
0.0
 11
38.46126174926758
 21
-40.582061767578125
 31
0.0
  0
LINE
  8
0
 10
38.46126174926758
 20
-40.582061767578125
 30
0.0
 11
38.705379486083984
 21
-40.36614990234375
 31
0.0
  0
LINE
  8
0
 10
38.705379486083984
 20
-40.36614990234375
 30
0.0
 11
38.898372650146484
 21
-40.1640510559082
 31
0.0
  0
LINE
  8
0
 10
38.898372650146484
 20
-40.1640510559082
 30
0.0
 11
39.0434455871582
 21
-39.973777770996094
 31
0.0
  0
LINE
  8
0
 10
39.0434455871582
 20
-39.973777770996094
 30
0.0
 11
39.143310546875
 21
-39.79304885864258
 31
0.0
  0
LINE
  8
0
 10
39.143310546875
 20
-39.79304885864258
 30
0.0
 11
39.20018768310547
 21
-39.61927795410156
 31
0.0
  0
LINE
  8
0
 10
39.20018768310547
 20
-39.61927795410156
 30
0.0
 11
39.21583557128906
 21
-39.4495849609375
 31
0.0
  0
LINE
  8
0
 10
39.21583557128906
 20
-39.4495849609375
 30
0.0
 11
39.1915168762207
 21
-39.280784606933594
 31
0.0
  0
LINE
  8
0
 10
39.1915168762207
 20
-39.280784606933594
 30
0.0
 11
39.12801742553711
 21
-39.109413146972656
 31
0.0
  0
LINE
  8
0
 10
39.12801742553711
 20
-39.109413146972656
 30
0.0
 11
39.02565002441406
 21
-38.93169021606445
 31
0.0
  0
LINE
  8
0
 10
39.02565002441406
 20
-38.93169021606445
 30
0.0
 11
38.88423156738281
 21
-38.7435417175293
 31
0.0
  0
LINE
  8
0
 10
38.88423156738281
 20
-38.7435417175293
 30
0.0
 11
38.7031135559082
 21
-38.54060745239258
 31
0.0
  0
LINE
  8
0
 10
38.7031135559082
 20
-38.54060745239258
 30
0.0
 11
38.48115539550781
 21
-38.318214416503906
 31
0.0
  0
LINE
  8
0
 10
38.48115539550781
 20
-38.318214416503906
 30
0.0
 11
38.2167854309082
 21
-38.071441650390625
 31
0.0
  0
LINE
  8
0
 10
38.2167854309082
 20
-38.071441650390625
 30
0.0
 11
37.90839767456055
 21
-37.79553985595703
 31
0.0
  0
LINE
  8
0
 10
37.90839767456055
 20
-37.79553985595703
 30
0.0
 11
37.554805755615234
 21
-37.486328125
 31
0.0
  0
LINE
  8
0
 10
37.554805755615234
 20
-37.486328125
 30
0.0
 11
37.15534210205078
 21
-37.140350341796875
 31
0.0
  0
LINE
  8
0
 10
37.15534210205078
 20
-37.140350341796875
 30
0.0
 11
36.70979690551758
 21
-36.754798889160156
 31
0.0
  0
LINE
  8
0
 10
36.70979690551758
 20
-36.754798889160156
 30
0.0
 11
36.218448638916016
 21
-36.32754135131836
 31
0.0
  0
LINE
  8
0
 10
36.218448638916016
 20
-36.32754135131836
 30
0.0
 11
35.682071685791016
 21
-35.85710144042969
 31
0.0
  0
LINE
  8
0
 10
35.682071685791016
 20
-35.85710144042969
 30
0.0
 11
35.10189437866211
 21
-35.34268569946289
 31
0.0
  0
LINE
  8
0
 10
35.10189437866211
 20
-35.34268569946289
 30
0.0
 11
34.47966384887695
 21
-34.7841796875
 31
0.0
  0
LINE
  8
0
 10
34.47966384887695
 20
-34.7841796875
 30
0.0
 11
33.81758117675781
 21
-34.18209457397461
 31
0.0
  0
LINE
  8
0
 10
33.81758117675781
 20
-34.18209457397461
 30
0.0
 11
33.11835479736328
 21
-33.53767395019531
 31
0.0
  0
LINE
  8
0
 10
33.11835479736328
 20
-33.53767395019531
 30
0.0
 11
32.38514709472656
 21
-32.85276794433594
 31
0.0
  0
LINE
  8
0
 10
32.38514709472656
 20
-32.85276794433594
 30
0.0
 11
31.62162971496582
 21
-32.12993240356445
 31
0.0
  0
LINE
  8
0
 10
31.62162971496582
 20
-32.12993240356445
 30
0.0
 11
30.8319034576416
 21
-31.372344970703125
 31
0.0
  0
LINE
  8
0
 10
30.8319034576416
 20
-31.372344970703125
 30
0.0
 11
30.020296096801758
 21
-30.583545684814453
 31
0.0
  0
LINE
  8
0
 10
30.020296096801758
 20
-30.583545684814453
 30
0.0
 11
29.191259384155273
 21
-29.767343521118164
 31
0.0
  0
LINE
  8
0
 10
29.191259384155273
 20
-29.767343521118164
 30
0.0
 11
28.34933853149414
 21
-28.927772521972656
 31
0.0
  0
LINE
  8
0
 10
28.34933853149414
 20
-28.927772521972656
 30
0.0
 11
27.49919891357422
 21
-28.069133758544922
 31
0.0
  0
LINE
  8
0
 10
27.49919891357422
 20
-28.069133758544922
 30
0.0
 11
26.645627975463867
 21
-27.195964813232422
 31
0.0
  0
LINE
  8
0
 10
26.645627975463867
 20
-27.195964813232422
 30
0.0
 11
25.793498992919922
 21
-26.313047409057617
 31
0.0
  0
LINE
  8
0
 10
25.793498992919922
 20
-26.313047409057617
 30
0.0
 11
24.947811126708984
 21
-25.425418853759766
 31
0.0
  0
LINE
  8
0
 10
24.947811126708984
 20
-25.425418853759766
 30
0.0
 11
24.11367416381836
 21
-24.53835105895996
 31
0.0
  0
LINE
  8
0
 10
24.11367416381836
 20
-24.53835105895996
 30
0.0
 11
23.296297073364258
 21
-23.657367706298828
 31
0.0
  0
LINE
  8
0
 10
23.296297073364258
 20
-23.657367706298828
 30
0.0
 11
22.501012802124023
 21
-22.78824234008789
 31
0.0
  0
LINE
  8
0
 10
22.501012802124023
 20
-22.78824234008789
 30
0.0
 11
21.733257293701172
 21
-21.936992645263672
 31
0.0
  0
LINE
  8
0
 10
21.733257293701172
 20
-21.936992645263672
 30
0.0
 11
20.998573303222656
 21
-21.10987091064453
 31
0.0
  0
LINE
  8
0
 10
20.998573303222656
 20
-21.10987091064453
 30
0.0
 11
20.3023681640625
 21
-20.313108444213867
 31
0.0
  0
LINE
  8
0
 10
20.3023681640625
 20
-20.313108444213867
 30
0.0
 11
19.649398803710938
 21
-19.552268981933594
 31
0.0
  0
LINE
  8
0
 10
19.649398803710938
 20
-19.552268981933594
 30
0.0
 11
19.04359245300293
 21
-18.83208656311035
 31
0.0
  0
LINE
  8
0
 10
19.04359245300293
 20
-18.83208656311035
 30
0.0
 11
18.488094329833984
 21
-18.156497955322266
 31
0.0
  0
LINE
  8
0
 10
18.488094329833984
 20
-18.156497955322266
 30
0.0
 11
17.985218048095703
 21
-17.528581619262695
 31
0.0
  0
LINE
  8
0
 10
17.985218048095703
 20
-17.528581619262695
 30
0.0
 11
17.536502838134766
 21
-16.95064353942871
 31
0.0
  0
LINE
  8
0
 10
17.536502838134766
 20
-16.95064353942871
 30
0.0
 11
17.14264488220215
 21
-16.424114227294922
 31
0.0
  0
LINE
  8
0
 10
17.14264488220215
 20
-16.424114227294922
 30
0.0
 11
16.803569793701172
 21
-15.9496488571167
 31
0.0
  0
LINE
  8
0
 10
16.803569793701172
 20
-15.9496488571167
 30
0.0
 11
16.518373489379883
 21
-15.52705192565918
 31
0.0
  0
LINE
  8
0
 10
16.518373489379883
 20
-15.52705192565918
 30
0.0
 11
16.285350799560547
 21
-15.155309677124023
 31
0.0
  0
LINE
  8
0
 10
16.285350799560547
 20
-15.155309677124023
 30
0.0
 11
16.10199546813965
 21
-14.832605361938477
 31
0.0
  0
LINE
  8
0
 10
16.10199546813965
 20
-14.832605361938477
 30
0.0
 11
15.964993476867676
 21
-14.556276321411133
 31
0.0
  0
LINE
  8
0
 10
15.964993476867676
 20
-14.556276321411133
 30
0.0
 11
15.87026309967041
 21
-14.322890281677246
 31
0.0
  0
LINE
  8
0
 10
15.87026309967041
 20
-14.322890281677246
 30
0.0
 11
15.813517570495605
 21
-14.128633499145508
 31
0.0
  0
LINE
  8
0
 10
15.813517570495605
 20
-14.128633499145508
 30
0.0
 11
15.790894508361816
 21
-13.96979808807373
 31
0.0
  0
LINE
  8
0
 10
15.790894508361816
 20
-13.96979808807373
 30
0.0
 11
15.79902172088623
 21
-13.842838287353516
 31
0.0
  0
LINE
  8
0
 10
15.79902172088623
 20
-13.842838287353516
 30
0.0
 11
15.835014343261719
 21
-13.744361877441406
 31
0.0
  0
LINE
  8
0
 10
15.835014343261719
 20
-13.744361877441406
 30
0.0
 11
15.896475791931152
 21
-13.671128273010254
 31
0.0
  0
LINE
  8
0
 10
15.896475791931152
 20
-13.671128273010254
 30
0.0
 11
15.981504440307617
 21
-13.620063781738281
 31
0.0
  0
LINE
  8
0
 10
15.981504440307617
 20
-13.620063781738281
 30
0.0
 11
16.088685989379883
 21
-13.588240623474121
 31
0.0
  0
LINE
  8
0
 10
16.088685989379883
 20
-13.588240623474121
 30
0.0
 11
16.217098236083984
 21
-13.572892189025879
 31
0.0
  0
LINE
  8
0
 10
16.217098236083984
 20
-13.572892189025879
 30
0.0
 11
16.366304397583008
 21
-13.571406364440918
 31
0.0
  0
LINE
  8
0
 10
16.366304397583008
 20
-13.571406364440918
 30
0.0
 11
16.536367416381836
 21
-13.581335067749023
 31
0.0
  0
LINE
  8
0
 10
16.536367416381836
 20
-13.581335067749023
 30
0.0
 11
16.72782325744629
 21
-13.600372314453125
 31
0.0
  0
LINE
  8
0
 10
16.72782325744629
 20
-13.600372314453125
 30
0.0
 11
16.94171905517578
 21
-13.626382827758789
 31
0.0
  0
LINE
  8
0
 10
16.94171905517578
 20
-13.626382827758789
 30
0.0
 11
17.179475784301758
 21
-13.657368659973145
 31
0.0
  0
LINE
  8
0
 10
17.179475784301758
 20
-13.657368659973145
 30
0.0
 11
17.44243621826172
 21
-13.691473007202148
 31
0.0
  0
LINE
  8
0
 10
17.44243621826172
 20
-13.691473007202148
 30
0.0
 11
17.73155975341797
 21
-13.726936340332031
 31
0.0
  0
LINE
  8
0
 10
17.73155975341797
 20
-13.726936340332031
 30
0.0
 11
18.047414779663086
 21
-13.762117385864258
 31
0.0
  0
LINE
  8
0
 10
18.047414779663086
 20
-13.762117385864258
 30
0.0
 11
18.39019775390625
 21
-13.7954740524292
 31
0.0
  0
LINE
  8
0
 10
18.39019775390625
 20
-13.7954740524292
 30
0.0
 11
18.759708404541016
 21
-13.825586318969727
 31
0.0
  0
LINE
  8
0
 10
18.759708404541016
 20
-13.825586318969727
 30
0.0
 11
19.155370712280273
 21
-13.85113525390625
 31
0.0
  0
LINE
  8
0
 10
19.155370712280273
 20
-13.85113525390625
 30
0.0
 11
19.576215744018555
 21
-13.870914459228516
 31
0.0
  0
LINE
  8
0
 10
19.576215744018555
 20
-13.870914459228516
 30
0.0
 11
20.020906448364258
 21
-13.883831024169922
 31
0.0
  0
LINE
  8
0
 10
20.020906448364258
 20
-13.883831024169922
 30
0.0
 11
20.487695693969727
 21
-13.888893127441406
 31
0.0
  0
LINE
  8
0
 10
20.487695693969727
 20
-13.888893127441406
 30
0.0
 11
20.974472045898438
 21
-13.885231971740723
 31
0.0
  0
LINE
  8
0
 10
20.974472045898438
 20
-13.885231971740723
 30
0.0
 11
21.478736877441406
 21
-13.872069358825684
 31
0.0
  0
LINE
  8
0
 10
21.478736877441406
 20
-13.872069358825684
 30
0.0
 11
21.997600555419922
 21
-13.84875774383545
 31
0.0
  0
LINE
  8
0
 10
21.997600555419922
 20
-13.84875774383545
 30
0.0
 11
22.527912139892578
 21
-13.814763069152832
 31
0.0
  0
LINE
  8
0
 10
22.527912139892578
 20
-13.814763069152832
 30
0.0
 11
23.0665283203125
 21
-13.76974105834961
 31
0.0
  0
LINE
  8
0
 10
23.0665283203125
 20
-13.76974105834961
 30
0.0
 11
23.61040496826172
 21
-13.713532447814941
 31
0.0
  0
LINE
  8
0
 10
23.61040496826172
 20
-13.713532447814941
 30
0.0
 11
24.156557083129883
 21
-13.646169662475586
 31
0.0
  0
LINE
  8
0
 10
24.156557083129883
 20
-13.646169662475586
 30
0.0
 11
24.702116012573242
 21
-13.567877769470215
 31
0.0
  0
LINE
  8
0
 10
24.702116012573242
 20
-13.567877769470215
 30
0.0
 11
25.2442626953125
 21
-13.47906494140625
 31
0.0
  0
LINE
  8
0
 10
25.2442626953125
 20
-13.47906494140625
 30
0.0
 11
25.780302047729492
 21
-13.380346298217773
 31
0.0
  0
LINE
  8
0
 10
25.780302047729492
 20
-13.380346298217773
 30
0.0
 11
26.30760383605957
 21
-13.272513389587402
 31
0.0
  0
LINE
  8
0
 10
26.30760383605957
 20
-13.272513389587402
 30
0.0
 11
26.8236141204834
 21
-13.156550407409668
 31
0.0
  0
LINE
  8
0
 10
26.8236141204834
 20
-13.156550407409668
 30
0.0
 11
27.325891494750977
 21
-13.033638954162598
 31
0.0
  0
LINE
  8
0
 10
27.325891494750977
 20
-13.033638954162598
 30
0.0
 11
27.81205177307129
 21
-12.905150413513184
 31
0.0
  0
LINE
  8
0
 10
27.81205177307129
 20
-12.905150413513184
 30
0.0
 11
28.27981948852539
 21
-12.772637367248535
 31
0.0
  0
LINE
  8
0
 10
28.27981948852539
 20
-12.772637367248535
 30
0.0
 11
28.72698974609375
 21
-12.637846946716309
 31
0.0
  0
LINE
  8
0
 10
28.72698974609375
 20
-12.637846946716309
 30
0.0
 11
29.151491165161133
 21
-12.502503395080566
 31
0.0
  0
LINE
  8
0
 10
29.151491165161133
 20
-12.502503395080566
 30
0.0
 11
29.55141258239746
 21
-12.368138313293457
 31
0.0
  0
LINE
  8
0
 10
29.55141258239746
 20
-12.368138313293457
 30
0.0
 11
29.925010681152344
 21
-12.236029624938965
 31
0.0
  0
LINE
  8
0
 10
29.925010681152344
 20
-12.236029624938965
 30
0.0
 11
30.270723342895508
 21
-12.107216835021973
 31
0.0
  0
LINE
  8
0
 10
30.270723342895508
 20
-12.107216835021973
 30
0.0
 11
30.58713150024414
 21
-11.982508659362793
 31
0.0
  0
LINE
  8
0
 10
30.58713150024414
 20
-11.982508659362793
 30
0.0
 11
30.873014450073242
 21
-11.862466812133789
 31
0.0
  0
LINE
  8
0
 10
30.873014450073242
 20
-11.862466812133789
 30
0.0
 11
31.127304077148438
 21
-11.747424125671387
 31
0.0
  0
LINE
  8
0
 10
31.127304077148438
 20
-11.747424125671387
 30
0.0
 11
31.349098205566406
 21
-11.637457847595215
 31
0.0
  0
LINE
  8
0
 10
31.349098205566406
 20
-11.637457847595215
 30
0.0
 11
31.537675857543945
 21
-11.532425880432129
 31
0.0
  0
LINE
  8
0
 10
31.537675857543945
 20
-11.532425880432129
 30
0.0
 11
31.69247055053711
 21
-11.431931495666504
 31
0.0
  0
LINE
  8
0
 10
31.69247055053711
 20
-11.431931495666504
 30
0.0
 11
31.8131046295166
 21
-11.33535099029541
 31
0.0
  0
LINE
  8
0
 10
31.8131046295166
 20
-11.33535099029541
 30
0.0
 11
31.89933967590332
 21
-11.24181079864502
 31
0.0
  0
LINE
  8
0
 10
31.89933967590332
 20
-11.24181079864502
 30
0.0
 11
31.951133728027344
 21
-11.150209426879883
 31
0.0
  0
LINE
  8
0
 10
31.951133728027344
 20
-11.150209426879883
 30
0.0
 11
31.968521118164062
 21
-11.059221267700195
 31
0.0
  0
LINE
  8
0
 10
31.968521118164062
 20
-11.059221267700195
 30
0.0
 11
31.95159339904785
 21
-10.967302322387695
 31
0.0
  0
LINE
  8
0
 10
31.95159339904785
 20
-10.967302322387695
 30
0.0
 11
31.900531768798828
 21
-10.872702598571777
 31
0.0
  0
LINE
  8
0
 10
31.900531768798828
 20
-10.872702598571777
 30
0.0
 11
31.815563201904297
 21
-10.773453712463379
 31
0.0
  0
LINE
  8
0
 10
31.815563201904297
 20
-10.773453712463379
 30
0.0
 11
31.696998596191406
 21
-10.66738224029541
 31
0.0
  0
LINE
  8
0
 10
31.696998596191406
 20
-10.66738224029541
 30
0.0
 11
31.545177459716797
 21
-10.55208683013916
 31
0.0
  0
LINE
  8
0
 10
31.545177459716797
 20
-10.55208683013916
 30
0.0
 11
31.360557556152344
 21
-10.424969673156738
 31
0.0
  0
LINE
  8
0
 10
31.360557556152344
 20
-10.424969673156738
 30
0.0
 11
31.143617630004883
 21
-10.283207893371582
 31
0.0
  0
LINE
  8
0
 10
31.143617630004883
 20
-10.283207893371582
 30
0.0
 11
30.894908905029297
 21
-10.12376594543457
 31
0.0
  0
LINE
  8
0
 10
30.894908905029297
 20
-10.12376594543457
 30
0.0
 11
30.615066528320312
 21
-9.943406105041504
 31
0.0
  0
LINE
  8
0
 10
30.615066528320312
 20
-9.943406105041504
 30
0.0
 11
30.304773330688477
 21
-9.73866081237793
 31
0.0
  0
LINE
  8
0
 10
30.304773330688477
 20
-9.73866081237793
 30
0.0
 11
29.96478843688965
 21
-9.505871772766113
 31
0.0
  0
LINE
  8
0
 10
29.96478843688965
 20
-9.505871772766113
 30
0.0
 11
29.59590721130371
 21
-9.241325378417969
 31
0.0
  0
LINE
  8
0
 10
29.59590721130371
 20
-9.241325378417969
 30
0.0
 11
29.199031829833984
 21
-8.941733360290527
 31
0.0
  0
LINE
  8
0
 10
29.199031829833984
 20
-8.941733360290527
 30
0.0
 11
28.775053024291992
 21
-8.604314804077148
 31
0.0
  0
LINE
  8
0
 10
28.775053024291992
 20
-8.604314804077148
 30
0.0
 11
28.32497787475586
 21
-8.226840019226074
 31
0.0
  0
LINE
  8
0
 10
28.32497787475586
 20
-8.226840019226074
 30
0.0
 11
27.849824905395508
 21
-7.807590484619141
 31
0.0
  0
LINE
  8
0
 10
27.849824905395508
 20
-7.807590484619141
 30
0.0
 11
27.350679397583008
 21
-7.3453779220581055
 31
0.0
  0
LINE
  8
0
 10
27.350679397583008
 20
-7.3453779220581055
 30
0.0
 11
26.82868766784668
 21
-6.8395586013793945
 31
0.0
  0
LINE
  8
0
 10
26.82868766784668
 20
-6.8395586013793945
 30
0.0
 11
26.2850399017334
 21
-6.2899956703186035
 31
0.0
  0
LINE
  8
0
 10
26.2850399017334
 20
-6.2899956703186035
 30
0.0
 11
25.720996856689453
 21
-5.697103500366211
 31
0.0
  0
LINE
  8
0
 10
25.720996856689453
 20
-5.697103500366211
 30
0.0
 11
25.13784408569336
 21
-5.061802387237549
 31
0.0
  0
LINE
  8
0
 10
25.13784408569336
 20
-5.061802387237549
 30
0.0
 11
24.536949157714844
 21
-4.385565757751465
 31
0.0
  0
LINE
  8
0
 10
24.536949157714844
 20
-4.385565757751465
 30
0.0
 11
23.91971778869629
 21
-3.670368194580078
 31
0.0
  0
LINE
  8
0
 10
23.91971778869629
 20
-3.670368194580078
 30
0.0
 11
23.28762435913086
 21
-2.9187402725219727
 31
0.0
  0
LINE
  8
0
 10
23.28762435913086
 20
-2.9187402725219727
 30
0.0
 11
22.642290115356445
 21
-2.1336281299591064
 31
0.0
  0
LINE
  8
0
 10
22.642290115356445
 20
-2.1336281299591064
 30
0.0
 11
21.985633850097656
 21
-1.318376064300537
 31
0.0
  0
LINE
  8
0
 10
21.985633850097656
 20
-1.318376064300537
 30
0.0
 11
21.3198184967041
 21
-0.47664546966552734
 31
0.0
  0
LINE
  8
0
 10
21.3198184967041
 20
-0.47664546966552734
 30
0.0
 11
20.647327423095703
 21
0.3875509798526764
 31
0.0
  0
LINE
  8
0
 10
20.647327423095703
 20
0.3875509798526764
 30
0.0
 11
19.97092056274414
 21
1.269821047782898
 31
0.0
  0
LINE
  8
0
 10
19.97092056274414
 20
1.269821047782898
 30
0.0
 11
19.29364013671875
 21
2.165466785430908
 31
0.0
  0
LINE
  8
0
 10
19.29364013671875
 20
2.165466785430908
 30
0.0
 11
18.61882781982422
 21
3.069395065307617
 31
0.0
  0
LINE
  8
0
 10
18.61882781982422
 20
3.069395065307617
 30
0.0
 11
17.95009422302246
 21
3.976210117340088
 31
0.0
  0
LINE
  8
0
 10
17.95009422302246
 20
3.976210117340088
 30
0.0
 11
17.291362762451172
 21
4.880124092102051
 31
0.0
  0
LINE
  8
0
 10
17.291362762451172
 20
4.880124092102051
 30
0.0
 11
16.646806716918945
 21
5.775038242340088
 31
0.0
  0
LINE
  8
0
 10
16.646806716918945
 20
5.775038242340088
 30
0.0
 11
16.020925521850586
 21
6.654469013214111
 31
0.0
  0
LINE
  8
0
 10
16.020925521850586
 20
6.654469013214111
 30
0.0
 11
15.41848373413086
 21
7.511609077453613
 31
0.0
  0
LINE
  8
0
 10
15.41848373413086
 20
7.511609077453613
 30
0.0
 11
14.844425201416016
 21
8.339423179626465
 31
0.0
  0
LINE
  8
0
 10
14.844425201416016
 20
8.339423179626465
 30
0.0
 11
14.30332088470459
 21
9.131397247314453
 31
0.0
  0
LINE
  8
0
 10
14.30332088470459
 20
9.131397247314453
 30
0.0
 11
13.79902172088623
 21
9.881911277770996
 31
0.0
  0
LINE
  8
0
 10
13.79902172088623
 20
9.881911277770996
 30
0.0
 11
13.33460521697998
 21
10.58637523651123
 31
0.0
  0
LINE
  8
0
 10
13.33460521697998
 20
10.58637523651123
 30
0.0
 11
12.912407875061035
 21
11.241146087646484
 31
0.0
  0
LINE
  8
0
 10
12.912407875061035
 20
11.241146087646484
 30
0.0
 11
12.534008979797363
 21
11.8435640335083
 31
0.0
  0
LINE
  8
0
 10
12.534008979797363
 20
11.8435640335083
 30
0.0
 11
12.200267791748047
 21
12.39189338684082
 31
0.0
  0
LINE
  8
0
 10
12.200267791748047
 20
12.39189338684082
 30
0.0
 11
11.911261558532715
 21
12.885412216186523
 31
0.0
  0
LINE
  8
0
 10
11.911261558532715
 20
12.885412216186523
 30
0.0
 11
11.666330337524414
 21
13.324356079101562
 31
0.0
  0
LINE
  8
0
 10
11.666330337524414
 20
13.324356079101562
 30
0.0
 11
11.464067459106445
 21
13.70992660522461
 31
0.0
  0
LINE
  8
0
 10
11.464067459106445
 20
13.70992660522461
 30
0.0
 11
11.302311897277832
 21
14.044303894042969
 31
0.0
  0
LINE
  8
0
 10
11.302311897277832
 20
14.044303894042969
 30
0.0
 11
11.178165435791016
 21
14.330610275268555
 31
0.0
  0
LINE
  8
0
 10
11.178165435791016
 20
14.330610275268555
 30
0.0
 11
11.087972640991211
 21
14.572955131530762
 31
0.0
  0
LINE
  8
0
 10
11.087972640991211
 20
14.572955131530762
 30
0.0
 11
11.027603149414062
 21
14.776108741760254
 31
0.0
  0
LINE
  8
0
 10
11.027603149414062
 20
14.776108741760254
 30
0.0
 11
10.993158340454102
 21
14.944703102111816
 31
0.0
  0
LINE
  8
0
 10
10.993158340454102
 20
14.944703102111816
 30
0.0
 11
10.981168746948242
 21
15.082988739013672
 31
0.0
  0
LINE
  8
0
 10
10.981168746948242
 20
15.082988739013672
 30
0.0
 11
10.988601684570312
 21
15.194865226745605
 31
0.0
  0
LINE
  8
0
 10
10.988601684570312
 20
15.194865226745605
 30
0.0
 11
11.012856483459473
 21
15.283852577209473
 31
0.0
  0
LINE
  8
0
 10
11.012856483459473
 20
15.283852577209473
 30
0.0
 11
11.051766395568848
 21
15.353102684020996
 31
0.0
  0
LINE
  8
0
 10
11.051766395568848
 20
15.353102684020996
 30
0.0
 11
11.103601455688477
 21
15.405397415161133
 31
0.0
  0
LINE
  8
0
 10
11.103601455688477
 20
15.405397415161133
 30
0.0
 11
11.167060852050781
 21
15.44314956665039
 31
0.0
  0
LINE
  8
0
 10
11.167060852050781
 20
15.44314956665039
 30
0.0
 11
11.241283416748047
 21
15.468403816223145
 31
0.0
  0
LINE
  8
0
 10
11.241283416748047
 20
15.468403816223145
 30
0.0
 11
11.325837135314941
 21
15.482828140258789
 31
0.0
  0
LINE
  8
0
 10
11.325837135314941
 20
15.482828140258789
 30
0.0
 11
11.420731544494629
 21
15.487732887268066
 31
0.0
  0
LINE
  8
0
 10
11.420731544494629
 20
15.487732887268066
 30
0.0
 11
11.526400566101074
 21
15.484045028686523
 31
0.0
  0
LINE
  8
0
 10
11.526400566101074
 20
15.484045028686523
 30
0.0
 11
11.64370059967041
 21
15.472341537475586
 31
0.0
  0
LINE
  8
0
 10
11.64370059967041
 20
15.472341537475586
 30
0.0
 11
11.773669242858887
 21
15.45302677154541
 31
0.0
  0
LINE
  8
0
 10
11.773669242858887
 20
15.45302677154541
 30
0.0
 11
11.917198181152344
 21
15.426552772521973
 31
0.0
  0
LINE
  8
0
 10
11.917198181152344
 20
15.426552772521973
 30
0.0
 11
12.075011253356934
 21
15.393461227416992
 31
0.0
  0
LINE
  8
0
 10
12.075011253356934
 20
15.393461227416992
 30
0.0
 11
12.247651100158691
 21
15.354390144348145
 31
0.0
  0
LINE
  8
0
 10
12.247651100158691
 20
15.354390144348145
 30
0.0
 11
12.4354829788208
 21
15.310059547424316
 31
0.0
  0
LINE
  8
0
 10
12.4354829788208
 20
15.310059547424316
 30
0.0
 11
12.638703346252441
 21
15.261275291442871
 31
0.0
  0
LINE
  8
0
 10
12.638703346252441
 20
15.261275291442871
 30
0.0
 11
12.857329368591309
 21
15.208924293518066
 31
0.0
  0
LINE
  8
0
 10
12.857329368591309
 20
15.208924293518066
 30
0.0
 11
13.091193199157715
 21
15.153995513916016
 31
0.0
  0
LINE
  8
0
 10
13.091193199157715
 20
15.153995513916016
 30
0.0
 11
13.339964866638184
 21
15.097558975219727
 31
0.0
  0
LINE
  8
0
 10
13.339964866638184
 20
15.097558975219727
 30
0.0
 11
13.603130340576172
 21
15.04076862335205
 31
0.0
  0
LINE
  8
0
 10
13.603130340576172
 20
15.04076862335205
 30
0.0
 11
13.880001068115234
 21
14.984867095947266
 31
0.0
  0
LINE
  8
0
 10
13.880001068115234
 20
14.984867095947266
 30
0.0
 11
14.169722557067871
 21
14.931182861328125
 31
0.0
  0
LINE
  8
0
 10
14.169722557067871
 20
14.931182861328125
 30
0.0
 11
14.471246719360352
 21
14.881119728088379
 31
0.0
  0
LINE
  8
0
 10
14.471246719360352
 20
14.881119728088379
 30
0.0
 11
14.78342342376709
 21
14.83598804473877
 31
0.0
  0
LINE
  8
0
 10
14.78342342376709
 20
14.83598804473877
 30
0.0
 11
15.105013847351074
 21
14.79693603515625
 31
0.0
  0
LINE
  8
0
 10
15.105013847351074
 20
14.79693603515625
 30
0.0
 11
15.434672355651855
 21
14.764935493469238
 31
0.0
  0
LINE
  8
0
 10
15.434672355651855
 20
14.764935493469238
 30
0.0
 11
15.770963668823242
 21
14.740789413452148
 31
0.0
  0
LINE
  8
0
 10
15.770963668823242
 20
14.740789413452148
 30
0.0
 11
16.112369537353516
 21
14.725123405456543
 31
0.0
  0
LINE
  8
0
 10
16.112369537353516
 20
14.725123405456543
 30
0.0
 11
16.457273483276367
 21
14.718389511108398
 31
0.0
  0
LINE
  8
0
 10
16.457273483276367
 20
14.718389511108398
 30
0.0
 11
16.803974151611328
 21
14.720869064331055
 31
0.0
  0
LINE
  8
0
 10
16.803974151611328
 20
14.720869064331055
 30
0.0
 11
17.150678634643555
 21
14.73266887664795
 31
0.0
  0
LINE
  8
0
 10
17.150678634643555
 20
14.73266887664795
 30
0.0
 11
17.495485305786133
 21
14.753721237182617
 31
0.0
  0
LINE
  8
0
 10
17.495485305786133
 20
14.753721237182617
 30
0.0
 11
17.836414337158203
 21
14.783782958984375
 31
0.0
  0
LINE
  8
0
 10
17.836414337158203
 20
14.783782958984375
 30
0.0
 11
18.171401977539062
 21
14.822443962097168
 31
0.0
  0
LINE
  8
0
 10
18.171401977539062
 20
14.822443962097168
 30
0.0
 11
18.498289108276367
 21
14.869118690490723
 31
0.0
  0
LINE
  8
0
 10
18.498289108276367
 20
14.869118690490723
 30
0.0
 11
18.814861297607422
 21
14.923090934753418
 31
0.0
  0
LINE
  8
0
 10
18.814861297607422
 20
14.923090934753418
 30
0.0
 11
19.11903190612793
 21
14.983654975891113
 31
0.0
  0
LINE
  8
0
 10
19.11903190612793
 20
14.983654975891113
 30
0.0
 11
19.408870697021484
 21
15.050148010253906
 31
0.0
  0
LINE
  8
0
 10
19.408870697021484
 20
15.050148010253906
 30
0.0
 11
19.682598114013672
 21
15.121949195861816
 31
0.0
  0
LINE
  8
0
 10
19.682598114013672
 20
15.121949195861816
 30
0.0
 11
19.938594818115234
 21
15.198490142822266
 31
0.0
  0
LINE
  8
0
 10
19.938594818115234
 20
15.198490142822266
 30
0.0
 11
20.17538070678711
 21
15.27923583984375
 31
0.0
  0
LINE
  8
0
 10
20.17538070678711
 20
15.27923583984375
 30
0.0
 11
20.391651153564453
 21
15.363698959350586
 31
0.0
  0
LINE
  8
0
 10
20.391651153564453
 20
15.363698959350586
 30
0.0
 11
20.58624267578125
 21
15.451436996459961
 31
0.0
  0
LINE
  8
0
 10
20.58624267578125
 20
15.451436996459961
 30
0.0
 11
20.75816535949707
 21
15.54206657409668
 31
0.0
  0
LINE
  8
0
 10
20.75816535949707
 20
15.54206657409668
 30
0.0
 11
20.90656280517578
 21
15.635220527648926
 31
0.0
  0
LINE
  8
0
 10
20.90656280517578
 20
15.635220527648926
 30
0.0
 11
21.03074836730957
 21
15.730599403381348
 31
0.0
  0
LINE
  8
0
 10
21.03074836730957
 20
15.730599403381348
 30
0.0
 11
21.130189895629883
 21
15.82794189453125
 31
0.0
  0
LINE
  8
0
 10
21.130189895629883
 20
15.82794189453125
 30
0.0
 11
21.204498291015625
 21
15.92702865600586
 31
0.0
  0
LINE
  8
0
 10
21.204498291015625
 20
15.92702865600586
 30
0.0
 11
21.253366470336914
 21
16.0278263092041
 31
0.0
  0
LINE
  8
0
 10
21.253366470336914
 20
16.0278263092041
 30
0.0
 11
21.276493072509766
 21
16.130640029907227
 31
0.0
  0
LINE
  8
0
 10
21.276493072509766
 20
16.130640029907227
 30
0.0
 11
21.27352523803711
 21
16.23612403869629
 31
0.0
  0
LINE
  8
0
 10
21.27352523803711
 20
16.23612403869629
 30
0.0
 11
21.244096755981445
 21
16.345308303833008
 31
0.0
  0
LINE
  8
0
 10
21.244096755981445
 20
16.345308303833008
 30
0.0
 11
21.187808990478516
 21
16.459564208984375
 31
0.0
  0
LINE
  8
0
 10
21.187808990478516
 20
16.459564208984375
 30
0.0
 11
21.10425567626953
 21
16.580636978149414
 31
0.0
  0
LINE
  8
0
 10
21.10425567626953
 20
16.580636978149414
 30
0.0
 11
20.99297523498535
 21
16.710628509521484
 31
0.0
  0
LINE
  8
0
 10
20.99297523498535
 20
16.710628509521484
 30
0.0
 11
20.85350227355957
 21
16.85199546813965
 31
0.0
  0
LINE
  8
0
 10
20.85350227355957
 20
16.85199546813965
 30
0.0
 11
20.68533706665039
 21
17.007558822631836
 31
0.0
  0
LINE
  8
0
 10
20.68533706665039
 20
17.007558822631836
 30
0.0
 11
20.487951278686523
 21
17.180509567260742
 31
0.0
  0
LINE
  8
0
 10
20.487951278686523
 20
17.180509567260742
 30
0.0
 11
20.260801315307617
 21
17.374370574951172
 31
0.0
  0
LINE
  8
0
 10
20.260801315307617
 20
17.374370574951172
 30
0.0
 11
20.00330924987793
 21
17.593050003051758
 31
0.0
  0
LINE
  8
0
 10
20.00330924987793
 20
17.593050003051758
 30
0.0
 11
19.71489715576172
 21
17.840726852416992
 31
0.0
  0
LINE
  8
0
 10
19.71489715576172
 20
17.840726852416992
 30
0.0
 11
19.395156860351562
 21
18.12131118774414
 31
0.0
  0
LINE
  8
0
 10
19.395156860351562
 20
18.12131118774414
 30
0.0
 11
19.043987274169922
 21
18.438079833984375
 31
0.0
  0
LINE
  8
0
 10
19.043987274169922
 20
18.438079833984375
 30
0.0
 11
18.661563873291016
 21
18.793678283691406
 31
0.0
  0
LINE
  8
0
 10
18.661563873291016
 20
18.793678283691406
 30
0.0
 11
18.248355865478516
 21
19.190107345581055
 31
0.0
  0
LINE
  8
0
 10
18.248355865478516
 20
19.190107345581055
 30
0.0
 11
17.805139541625977
 21
19.628732681274414
 31
0.0
  0
LINE
  8
0
 10
17.805139541625977
 20
19.628732681274414
 30
0.0
 11
17.332956314086914
 21
20.11027717590332
 31
0.0
  0
LINE
  8
0
 10
17.332956314086914
 20
20.11027717590332
 30
0.0
 11
16.833187103271484
 21
20.634798049926758
 31
0.0
  0
LINE
  8
0
 10
16.833187103271484
 20
20.634798049926758
 30
0.0
 11
16.30747413635254
 21
21.201744079589844
 31
0.0
  0
LINE
  8
0
 10
16.30747413635254
 20
21.201744079589844
 30
0.0
 11
15.757749557495117
 21
21.809900283813477
 31
0.0
  0
LINE
  8
0
 10
15.757749557495117
 20
21.809900283813477
 30
0.0
 11
15.186243057250977
 21
22.45743751525879
 31
0.0
  0
LINE
  8
0
 10
15.186243057250977
 20
22.45743751525879
 30
0.0
 11
14.595508575439453
 21
23.1418399810791
 31
0.0
  0
LINE
  8
0
 10
14.595508575439453
 20
23.1418399810791
 30
0.0
 11
13.988358497619629
 21
23.859981536865234
 31
0.0
  0
LINE
  8
0
 10
13.988358497619629
 20
23.859981536865234
 30
0.0
 11
13.36783504486084
 21
24.60822296142578
 31
0.0
  0
LINE
  8
0
 10
13.36783504486084
 20
24.60822296142578
 30
0.0
 11
12.737015724182129
 21
25.38274383544922
 31
0.0
  0
LINE
  8
0
 10
12.737015724182129
 20
25.38274383544922
 30
0.0
 11
12.098917961120605
 21
26.179702758789062
 31
0.0
  0
LINE
  8
0
 10
12.098917961120605
 20
26.179702758789062
 30
0.0
 11
11.456574440002441
 21
26.995136260986328
 31
0.0
  0
LINE
  8
0
 10
11.456574440002441
 20
26.995136260986328
 30
0.0
 11
10.8129301071167
 21
27.82508659362793
 31
0.0
  0
LINE
  8
0
 10
10.8129301071167
 20
27.82508659362793
 30
0.0
 11
10.17091178894043
 21
28.6655330657959
 31
0.0
  0
LINE
  8
0
 10
10.17091178894043
 20
28.6655330657959
 30
0.0
 11
9.533390045166016
 21
29.512413024902344
 31
0.0
  0
LINE
  8
0
 10
9.533390045166016
 20
29.512413024902344
 30
0.0
 11
8.903247833251953
 21
30.361557006835938
 31
0.0
  0
LINE
  8
0
 10
8.903247833251953
 20
30.361557006835938
 30
0.0
 11
8.283283233642578
 21
31.208803176879883
 31
0.0
  0
LINE
  8
0
 10
8.283283233642578
 20
31.208803176879883
 30
0.0
 11
7.676270961761475
 21
32.04990768432617
 31
0.0
  0
LINE
  8
0
 10
7.676270961761475
 20
32.04990768432617
 30
0.0
 11
7.084950923919678
 21
32.88058090209961
 31
0.0
  0
LINE
  8
0
 10
7.084950923919678
 20
32.88058090209961
 30
0.0
 11
6.512012958526611
 21
33.69650650024414
 31
0.0
  0
LINE
  8
0
 10
6.512012958526611
 20
33.69650650024414
 30
0.0
 11
5.960140228271484
 21
34.493247985839844
 31
0.0
  0
LINE
  8
0
 10
5.960140228271484
 20
34.493247985839844
 30
0.0
 11
5.431795120239258
 21
35.26662063598633
 31
0.0
  0
LINE
  8
0
 10
5.431795120239258
 20
35.26662063598633
 30
0.0
 11
4.9290852546691895
 21
36.012855529785156
 31
0.0
  0
LINE
  8
0
 10
4.9290852546691895
 20
36.012855529785156
 30
0.0
 11
4.45370626449585
 21
36.72869110107422
 31
0.0
  0
LINE
  8
0
 10
4.45370626449585
 20
36.72869110107422
 30
0.0
 11
4.006994724273682
 21
37.411312103271484
 31
0.0
  0
LINE
  8
0
 10
4.006994724273682
 20
37.411312103271484
 30
0.0
 11
3.5898518562316895
 21
38.058448791503906
 31
0.0
  0
LINE
  8
0
 10
3.5898518562316895
 20
38.058448791503906
 30
0.0
 11
3.2027947902679443
 21
38.668312072753906
 31
0.0
  0
LINE
  8
0
 10
3.2027947902679443
 20
38.668312072753906
 30
0.0
 11
2.845944881439209
 21
39.239593505859375
 31
0.0
  0
LINE
  8
0
 10
2.845944881439209
 20
39.239593505859375
 30
0.0
 11
2.519016981124878
 21
39.77150344848633
 31
0.0
  0
LINE
  8
0
 10
2.519016981124878
 20
39.77150344848633
 30
0.0
 11
2.221353530883789
 21
40.26369094848633
 31
0.0
  0
LINE
  8
0
 10
2.221353530883789
 20
40.26369094848633
 30
0.0
 11
1.9518743753433228
 21
40.71635055541992
 31
0.0
  0
LINE
  8
0
 10
1.9518743753433228
 20
40.71635055541992
 30
0.0
 11
1.7091116905212402
 21
41.130157470703125
 31
0.0
  0
LINE
  8
0
 10
1.7091116905212402
 20
41.130157470703125
 30
0.0
 11
1.4911949634552002
 21
41.50627899169922
 31
0.0
  0
LINE
  8
0
 10
1.4911949634552002
 20
41.50627899169922
 30
0.0
 11
1.295910120010376
 21
41.84629440307617
 31
0.0
  0
LINE
  8
0
 10
1.295910120010376
 20
41.84629440307617
 30
0.0
 11
1.1209306716918945
 21
42.151939392089844
 31
0.0
  0
LINE
  8
0
 10
1.1209306716918945
 20
42.151939392089844
 30
0.0
 11
0.9640153646469116
 21
42.424781799316406
 31
0.0
  0
LINE
  8
0
 10
0.9640153646469116
 20
42.424781799316406
 30
0.0
 11
0.8230136036872864
 21
42.66625213623047
 31
0.0
  0
LINE
  8
0
 10
0.8230136036872864
 20
42.66625213623047
 30
0.0
 11
0.6958636045455933
 21
42.87763977050781
 31
0.0
  0
LINE
  8
0
 10
0.6958636045455933
 20
42.87763977050781
 30
0.0
 11
0.58060222864151
 21
43.060096740722656
 31
0.0
  0
LINE
  8
0
 10
0.58060222864151
 20
43.060096740722656
 30
0.0
 11
0.47534817457199097
 21
43.21461868286133
 31
0.0
  0
LINE
  8
0
 10
0.47534817457199097
 20
43.21461868286133
 30
0.0
 11
0.378313809633255
 21
43.34208679199219
 31
0.0
  0
LINE
  8
0
 10
0.378313809633255
 20
43.34208679199219
 30
0.0
 11
0.2877998650074005
 21
43.44319152832031
 31
0.0
  0
LINE
  8
0
 10
0.2877998650074005
 20
43.44319152832031
 30
0.0
 11
0.2022043913602829
 21
43.518516540527344
 31
0.0
  0
LINE
  8
0
 10
0.2022043913602829
 20
43.518516540527344
 30
0.0
 11
0.12000938504934311
 21
43.56850051879883
 31
0.0
  0
LINE
  8
0
 10
0.12000938504934311
 20
43.56850051879883
 30
0.0
 11
0.039789654314517975
 21
43.593414306640625
 31
0.0
  0
LINE
  8
0
 10
0.039789654314517975
 20
43.593414306640625
 30
0.0
 11
-0.03978966176509857
 21
43.593421936035156
 31
0.0
  0
LINE
  8
0
 10
-0.03978966176509857
 20
43.593421936035156
 30
0.0
 11
-0.12001132220029831
 21
43.56850051879883
 31
0.0
  0
LINE
  8
0
 10
-0.12001132220029831
 20
43.56850051879883
 30
0.0
 11
-0.20220643281936646
 21
43.51852035522461
 31
0.0
  0
LINE
  8
0
 10
-0.20220643281936646
 20
43.51852035522461
 30
0.0
 11
-0.28780198097229004
 21
43.44319152832031
 31
0.0
  0
LINE
  8
0
 10
-0.28780198097229004
 20
43.44319152832031
 30
0.0
 11
-0.378313809633255
 21
43.342079162597656
 31
0.0
  0
LINE
  8
0
 10
-0.378313809633255
 20
43.342079162597656
 30
0.0
 11
-0.47535064816474915
 21
43.21461868286133
 31
0.0
  0
LINE
  8
0
 10
-0.47535064816474915
 20
43.21461868286133
 30
0.0
 11
-0.5806049704551697
 21
43.060096740722656
 31
0.0
  0
LINE
  8
0
 10
-0.5806049704551697
 20
43.060096740722656
 30
0.0
 11
-0.695866584777832
 21
42.87764358520508
 31
0.0
  0
LINE
  8
0
 10
-0.695866584777832
 20
42.87764358520508
 30
0.0
 11
-0.8230136632919312
 21
42.6662483215332
 31
0.0
  0
LINE
  8
0
 10
-0.8230136632919312
 20
42.6662483215332
 30
0.0
 11
-0.9640153646469116
 21
42.424781799316406
 31
0.0
  0
LINE
  8
0
 10
-0.9640153646469116
 20
42.424781799316406
 30
0.0
 11
-1.1209347248077393
 21
42.15193557739258
 31
0.0
  0
LINE
  8
0
 10
-1.1209347248077393
 20
42.15193557739258
 30
0.0
 11
-1.295914888381958
 21
41.84628677368164
 31
0.0
  0
LINE
  8
0
 10
-1.295914888381958
 20
41.84628677368164
 30
0.0
 11
-1.4911997318267822
 21
41.50626754760742
 31
0.0
  0
LINE
  8
0
 10
-1.4911997318267822
 20
41.50626754760742
 30
0.0
 11
-1.7091116905212402
 21
41.13016128540039
 31
0.0
  0
LINE
  8
0
 10
-1.7091116905212402
 20
41.13016128540039
 30
0.0
 11
-1.9518805742263794
 21
40.716339111328125
 31
0.0
  0
LINE
  8
0
 10
-1.9518805742263794
 20
40.716339111328125
 30
0.0
 11
-2.221360445022583
 21
40.26367950439453
 31
0.0
  0
LINE
  8
0
 10
-2.221360445022583
 20
40.26367950439453
 30
0.0
 11
-2.519024610519409
 21
39.771488189697266
 31
0.0
  0
LINE
  8
0
 10
-2.519024610519409
 20
39.771488189697266
 30
0.0
 11
-2.84594464302063
 21
39.23958969116211
 31
0.0
  0
LINE
  8
0
 10
-2.84594464302063
 20
39.23958969116211
 30
0.0
 11
-3.2027945518493652
 21
38.668312072753906
 31
0.0
  0
LINE
  8
0
 10
-3.2027945518493652
 20
38.668312072753906
 30
0.0
 11
-3.5898611545562744
 21
38.05843734741211
 31
0.0
  0
LINE
  8
0
 10
-3.5898611545562744
 20
38.05843734741211
 30
0.0
 11
-4.007004737854004
 21
37.41129684448242
 31
0.0
  0
LINE
  8
0
 10
-4.007004737854004
 20
37.41129684448242
 30
0.0
 11
-4.453718185424805
 21
36.728675842285156
 31
0.0
  0
LINE
  8
0
 10
-4.453718185424805
 20
36.728675842285156
 30
0.0
 11
-4.929085731506348
 21
36.01285934448242
 31
0.0
  0
LINE
  8
0
 10
-4.929085731506348
 20
36.01285934448242
 30
0.0
 11
-5.431807518005371
 21
35.2666015625
 31
0.0
  0
LINE
  8
0
 10
-5.431807518005371
 20
35.2666015625
 30
0.0
 11
-5.960153579711914
 21
34.49323272705078
 31
0.0
  0
LINE
  8
0
 10
-5.960153579711914
 20
34.49323272705078
 30
0.0
 11
-6.512026309967041
 21
33.69648742675781
 31
0.0
  0
LINE
  8
0
 10
-6.512026309967041
 20
33.69648742675781
 30
0.0
 11
-7.0849504470825195
 21
32.88057327270508
 31
0.0
  0
LINE
  8
0
 10
-7.0849504470825195
 20
32.88057327270508
 30
0.0
 11
-7.676270008087158
 21
32.04990005493164
 31
0.0
  0
LINE
  8
0
 10
-7.676270008087158
 20
32.04990005493164
 30
0.0
 11
-8.28329849243164
 21
31.208784103393555
 31
0.0
  0
LINE
  8
0
 10
-8.28329849243164
 20
31.208784103393555
 30
0.0
 11
-8.903263092041016
 21
30.36153793334961
 31
0.0
  0
LINE
  8
0
 10
-8.903263092041016
 20
30.36153793334961
 30
0.0
 11
-9.533406257629395
 21
29.512393951416016
 31
0.0
  0
LINE
  8
0
 10
-9.533406257629395
 20
29.512393951416016
 30
0.0
 11
-10.170910835266113
 21
28.665529251098633
 31
0.0
  0
LINE
  8
0
 10
-10.170910835266113
 20
28.665529251098633
 30
0.0
 11
-10.812947273254395
 21
27.8250675201416
 31
0.0
  0
LINE
  8
0
 10
-10.812947273254395
 20
27.8250675201416
 30
0.0
 11
-11.45659065246582
 21
26.995115280151367
 31
0.0
  0
LINE
  8
0
 10
-11.45659065246582
 20
26.995115280151367
 30
0.0
 11
-12.098936080932617
 21
26.179689407348633
 31
0.0
  0
LINE
  8
0
 10
-12.098936080932617
 20
26.179689407348633
 30
0.0
 11
-12.737016677856445
 21
25.382747650146484
 31
0.0
  0
LINE
  8
0
 10
-12.737016677856445
 20
25.382747650146484
 30
0.0
 11
-13.367835998535156
 21
24.60822296142578
 31
0.0
  0
LINE
  8
0
 10
-13.367835998535156
 20
24.60822296142578
 30
0.0
 11
-13.988372802734375
 21
23.859966278076172
 31
0.0
  0
LINE
  8
0
 10
-13.988372802734375
 20
23.859966278076172
 30
0.0
 11
-14.5955228805542
 21
23.141822814941406
 31
0.0
  0
LINE
  8
0
 10
-14.5955228805542
 20
23.141822814941406
 30
0.0
 11
-15.186258316040039
 21
22.457427978515625
 31
0.0
  0
LINE
  8
0
 10
-15.186258316040039
 20
22.457427978515625
 30
0.0
 11
-15.757749557495117
 21
21.809900283813477
 31
0.0
  0
LINE
  8
0
 10
-15.757749557495117
 20
21.809900283813477
 30
0.0
 11
-16.307483673095703
 21
21.20172691345215
 31
0.0
  0
LINE
  8
0
 10
-16.307483673095703
 20
21.20172691345215
 30
0.0
 11
-16.833200454711914
 21
20.63478660583496
 31
0.0
  0
LINE
  8
0
 10
-16.833200454711914
 20
20.63478660583496
 30
0.0
 11
-17.33296775817871
 21
20.11026382446289
 31
0.0
  0
LINE
  8
0
 10
-17.33296775817871
 20
20.11026382446289
 30
0.0
 11
-17.805139541625977
 21
19.62873077392578
 31
0.0
  0
LINE
  8
0
 10
-17.805139541625977
 20
19.62873077392578
 30
0.0
 11
-18.24835777282715
 21
19.190109252929688
 31
0.0
  0
LINE
  8
0
 10
-18.24835777282715
 20
19.190109252929688
 30
0.0
 11
-18.661569595336914
 21
18.79366683959961
 31
0.0
  0
LINE
  8
0
 10
-18.661569595336914
 20
18.79366683959961
 30
0.0
 11
-19.043994903564453
 21
18.43807029724121
 31
0.0
  0
LINE
  8
0
 10
-19.043994903564453
 20
18.43807029724121
 30
0.0
 11
-19.39516258239746
 21
18.121305465698242
 31
0.0
  0
LINE
  8
0
 10
-19.39516258239746
 20
18.121305465698242
 30
0.0
 11
-19.71489906311035
 21
17.840726852416992
 31
0.0
  0
LINE
  8
0
 10
-19.71489906311035
 20
17.840726852416992
 30
0.0
 11
-20.00331687927246
 21
17.593046188354492
 31
0.0
  0
LINE
  8
0
 10
-20.00331687927246
 20
17.593046188354492
 30
0.0
 11
-20.260807037353516
 21
17.374364852905273
 31
0.0
  0
LINE
  8
0
 10
-20.260807037353516
 20
17.374364852905273
 30
0.0
 11
-20.487958908081055
 21
17.180505752563477
 31
0.0
  0
LINE
  8
0
 10
-20.487958908081055
 20
17.180505752563477
 30
0.0
 11
-20.68533706665039
 21
17.007558822631836
 31
0.0
  0
LINE
  8
0
 10
-20.68533706665039
 20
17.007558822631836
 30
0.0
 11
-20.85350799560547
 21
16.851991653442383
 31
0.0
  0
LINE
  8
0
 10
-20.85350799560547
 20
16.851991653442383
 30
0.0
 11
-20.992977142333984
 21
16.71062469482422
 31
0.0
  0
LINE
  8
0
 10
-20.992977142333984
 20
16.71062469482422
 30
0.0
 11
-21.104257583618164
 21
16.58063507080078
 31
0.0
  0
LINE
  8
0
 10
-21.104257583618164
 20
16.58063507080078
 30
0.0
 11
-21.187814712524414
 21
16.459562301635742
 31
0.0
  0
LINE
  8
0
 10
-21.187814712524414
 20
16.459562301635742
 30
0.0
 11
-21.244096755981445
 21
16.345308303833008
 31
0.0
  0
LINE
  8
0
 10
-21.244096755981445
 20
16.345308303833008
 30
0.0
 11
-21.27352523803711
 21
16.236122131347656
 31
0.0
  0
LINE
  8
0
 10
-21.27352523803711
 20
16.236122131347656
 30
0.0
 11
-21.276493072509766
 21
16.130640029907227
 31
0.0
  0
LINE
  8
0
 10
-21.276493072509766
 20
16.130640029907227
 30
0.0
 11
-21.253368377685547
 21
16.0278263092041
 31
0.0
  0
LINE
  8
0
 10
-21.253368377685547
 20
16.0278263092041
 30
0.0
 11
-21.204496383666992
 21
15.92702579498291
 31
0.0
  0
LINE
  8
0
 10
-21.204496383666992
 20
15.92702579498291
 30
0.0
 11
-21.130184173583984
 21
15.827937126159668
 31
0.0
  0
LINE
  8
0
 10
-21.130184173583984
 20
15.827937126159668
 30
0.0
 11
-21.030746459960938
 21
15.730597496032715
 31
0.0
  0
LINE
  8
0
 10
-21.030746459960938
 20
15.730597496032715
 30
0.0
 11
-20.90656280517578
 21
15.635220527648926
 31
0.0
  0
LINE
  8
0
 10
-20.90656280517578
 20
15.635220527648926
 30
0.0
 11
-20.758163452148438
 21
15.542064666748047
 31
0.0
  0
LINE
  8
0
 10
-20.758163452148438
 20
15.542064666748047
 30
0.0
 11
-20.58624267578125
 21
15.45143985748291
 31
0.0
  0
LINE
  8
0
 10
-20.58624267578125
 20
15.45143985748291
 30
0.0
 11
-20.391647338867188
 21
15.363697052001953
 31
0.0
  0
LINE
  8
0
 10
-20.391647338867188
 20
15.363697052001953
 30
0.0
 11
-20.17537498474121
 21
15.279231071472168
 31
0.0
  0
LINE
  8
0
 10
-20.17537498474121
 20
15.279231071472168
 30
0.0
 11
-19.938589096069336
 21
15.198486328125
 31
0.0
  0
LINE
  8
0
 10
-19.938589096069336
 20
15.198486328125
 30
0.0
 11
-19.682600021362305
 21
15.121950149536133
 31
0.0
  0
LINE
  8
0
 10
-19.682600021362305
 20
15.121950149536133
 30
0.0
 11
-19.408864974975586
 21
15.050146102905273
 31
0.0
  0
LINE
  8
0
 10
-19.408864974975586
 20
15.050146102905273
 30
0.0
 11
-19.11902618408203
 21
14.98365306854248
 31
0.0
  0
LINE
  8
0
 10
-19.11902618408203
 20
14.98365306854248
 30
0.0
 11
-18.81485366821289
 21
14.923090934753418
 31
0.0
  0
LINE
  8
0
 10
-18.81485366821289
 20
14.923090934753418
 30
0.0
 11
-18.498281478881836
 21
14.869117736816406
 31
0.0
  0
LINE
  8
0
 10
-18.498281478881836
 20
14.869117736816406
 30
0.0
 11
-18.171401977539062
 21
14.822443962097168
 31
0.0
  0
LINE
  8
0
 10
-18.171401977539062
 20
14.822443962097168
 30
0.0
 11
-17.836414337158203
 21
14.783783912658691
 31
0.0
  0
LINE
  8
0
 10
-17.836414337158203
 20
14.783783912658691
 30
0.0
 11
-17.4954833984375
 21
14.753721237182617
 31
0.0
  0
LINE
  8
0
 10
-17.4954833984375
 20
14.753721237182617
 30
0.0
 11
-17.15066146850586
 21
14.732667922973633
 31
0.0
  0
LINE
  8
0
 10
-17.15066146850586
 20
14.732667922973633
 30
0.0
 11
-16.803966522216797
 21
14.720869064331055
 31
0.0
  0
LINE
  8
0
 10
-16.803966522216797
 20
14.720869064331055
 30
0.0
 11
-16.457265853881836
 21
14.718389511108398
 31
0.0
  0
LINE
  8
0
 10
-16.457265853881836
 20
14.718389511108398
 30
0.0
 11
-16.112361907958984
 21
14.725122451782227
 31
0.0
  0
LINE
  8
0
 10
-16.112361907958984
 20
14.725122451782227
 30
0.0
 11
-15.770954132080078
 21
14.740790367126465
 31
0.0
  0
LINE
  8
0
 10
-15.770954132080078
 20
14.740790367126465
 30
0.0
 11
-15.43466567993164
 21
14.764937400817871
 31
0.0
  0
LINE
  8
0
 10
-15.43466567993164
 20
14.764937400817871
 30
0.0
 11
-15.105010986328125
 21
14.79693603515625
 31
0.0
  0
LINE
  8
0
 10
-15.105010986328125
 20
14.79693603515625
 30
0.0
 11
-14.783426284790039
 21
14.83598804473877
 31
0.0
  0
LINE
  8
0
 10
-14.783426284790039
 20
14.83598804473877
 30
0.0
 11
-14.471246719360352
 21
14.881121635437012
 31
0.0
  0
LINE
  8
0
 10
-14.471246719360352
 20
14.881121635437012
 30
0.0
 11
-14.169709205627441
 21
14.931187629699707
 31
0.0
  0
LINE
  8
0
 10
-14.169709205627441
 20
14.931187629699707
 30
0.0
 11
-13.879995346069336
 21
14.984868049621582
 31
0.0
  0
LINE
  8
0
 10
-13.879995346069336
 20
14.984868049621582
 30
0.0
 11
-13.603124618530273
 21
15.040769577026367
 31
0.0
  0
LINE
  8
0
 10
-13.603124618530273
 20
15.040769577026367
 30
0.0
 11
-13.339958190917969
 21
15.09756088256836
 31
0.0
  0
LINE
  8
0
 10
-13.339958190917969
 20
15.09756088256836
 30
0.0
 11
-13.091188430786133
 21
15.153998374938965
 31
0.0
  0
LINE
  8
0
 10
-13.091188430786133
 20
15.153998374938965
 30
0.0
 11
-12.857324600219727
 21
15.208925247192383
 31
0.0
  0
LINE
  8
0
 10
-12.857324600219727
 20
15.208925247192383
 30
0.0
 11
-12.638703346252441
 21
15.261274337768555
 31
0.0
  0
LINE
  8
0
 10
-12.638703346252441
 20
15.261274337768555
 30
0.0
 11
-12.4354829788208
 21
15.310060501098633
 31
0.0
  0
LINE
  8
0
 10
-12.4354829788208
 20
15.310060501098633
 30
0.0
 11
-12.247652053833008
 21
15.354390144348145
 31
0.0
  0
LINE
  8
0
 10
-12.247652053833008
 20
15.354390144348145
 30
0.0
 11
-12.075005531311035
 21
15.393463134765625
 31
0.0
  0
LINE
  8
0
 10
-12.075005531311035
 20
15.393463134765625
 30
0.0
 11
-11.917193412780762
 21
15.426548957824707
 31
0.0
  0
LINE
  8
0
 10
-11.917193412780762
 20
15.426548957824707
 30
0.0
 11
-11.773664474487305
 21
15.453023910522461
 31
0.0
  0
LINE
  8
0
 10
-11.773664474487305
 20
15.453023910522461
 30
0.0
 11
-11.643697738647461
 21
15.472339630126953
 31
0.0
  0
LINE
  8
0
 10
-11.643697738647461
 20
15.472339630126953
 30
0.0
 11
-11.526396751403809
 21
15.484044075012207
 31
0.0
  0
LINE
  8
0
 10
-11.526396751403809
 20
15.484044075012207
 30
0.0
 11
-11.420731544494629
 21
15.487730979919434
 31
0.0
  0
LINE
  8
0
 10
-11.420731544494629
 20
15.487730979919434
 30
0.0
 11
-11.325839042663574
 21
15.482828140258789
 31
0.0
  0
LINE
  8
0
 10
-11.325839042663574
 20
15.482828140258789
 30
0.0
 11
-11.241283416748047
 21
15.468403816223145
 31
0.0
  0
LINE
  8
0
 10
-11.241283416748047
 20
15.468403816223145
 30
0.0
 11
-11.167059898376465
 21
15.44314956665039
 31
0.0
  0
LINE
  8
0
 10
-11.167059898376465
 20
15.44314956665039
 30
0.0
 11
-11.103598594665527
 21
15.4053955078125
 31
0.0
  0
LINE
  8
0
 10
-11.103598594665527
 20
15.4053955078125
 30
0.0
 11
-11.051764488220215
 21
15.35310173034668
 31
0.0
  0
LINE
  8
0
 10
-11.051764488220215
 20
15.35310173034668
 30
0.0
 11
-11.012856483459473
 21
15.283851623535156
 31
0.0
  0
LINE
  8
0
 10
-11.012856483459473
 20
15.283851623535156
 30
0.0
 11
-10.988602638244629
 21
15.194863319396973
 31
0.0
  0
LINE
  8
0
 10
-10.988602638244629
 20
15.194863319396973
 30
0.0
 11
-10.981169700622559
 21
15.082984924316406
 31
0.0
  0
LINE
  8
0
 10
-10.981169700622559
 20
15.082984924316406
 30
0.0
 11
-10.993157386779785
 21
14.944698333740234
 31
0.0
  0
LINE
  8
0
 10
-10.993157386779785
 20
14.944698333740234
 30
0.0
 11
-11.027603149414062
 21
14.776110649108887
 31
0.0
  0
LINE
  8
0
 10
-11.027603149414062
 20
14.776110649108887
 30
0.0
 11
-11.087972640991211
 21
14.572955131530762
 31
0.0
  0
LINE
  8
0
 10
-11.087972640991211
 20
14.572955131530762
 30
0.0
 11
-11.1781644821167
 21
14.330608367919922
 31
0.0
  0
LINE
  8
0
 10
-11.1781644821167
 20
14.330608367919922
 30
0.0
 11
-11.302318572998047
 21
14.04428768157959
 31
0.0
  0
LINE
  8
0
 10
-11.302318572998047
 20
14.04428768157959
 30
0.0
 11
-11.464072227478027
 21
13.709918022155762
 31
0.0
  0
LINE
  8
0
 10
-11.464072227478027
 20
13.709918022155762
 30
0.0
 11
-11.666335105895996
 21
13.324345588684082
 31
0.0
  0
LINE
  8
0
 10
-11.666335105895996
 20
13.324345588684082
 30
0.0
 11
-11.911266326904297
 21
12.88539981842041
 31
0.0
  0
LINE
  8
0
 10
-11.911266326904297
 20
12.88539981842041
 30
0.0
 11
-12.200275421142578
 21
12.391878128051758
 31
0.0
  0
LINE
  8
0
 10
-12.200275421142578
 20
12.391878128051758
 30
0.0
 11
-12.534018516540527
 21
11.843549728393555
 31
0.0
  0
LINE
  8
0
 10
-12.534018516540527
 20
11.843549728393555
 30
0.0
 11
-12.912409782409668
 21
11.241146087646484
 31
0.0
  0
LINE
  8
0
 10
-12.912409782409668
 20
11.241146087646484
 30
0.0
 11
-13.334606170654297
 21
10.58637809753418
 31
0.0
  0
LINE
  8
0
 10
-13.334606170654297
 20
10.58637809753418
 30
0.0
 11
-13.799022674560547
 21
9.881911277770996
 31
0.0
  0
LINE
  8
0
 10
-13.799022674560547
 20
9.881911277770996
 30
0.0
 11
-14.303345680236816
 21
9.131360054016113
 31
0.0
  0
LINE
  8
0
 10
-14.303345680236816
 20
9.131360054016113
 30
0.0
 11
-14.844438552856445
 21
8.33940315246582
 31
0.0
  0
LINE
  8
0
 10
-14.844438552856445
 20
8.33940315246582
 30
0.0
 11
-15.418496131896973
 21
7.511589050292969
 31
0.0
  0
LINE
  8
0
 10
-15.418496131896973
 20
7.511589050292969
 30
0.0
 11
-16.02094268798828
 21
6.65444803237915
 31
0.0
  0
LINE
  8
0
 10
-16.02094268798828
 20
6.65444803237915
 30
0.0
 11
-16.646821975708008
 21
5.775017261505127
 31
0.0
  0
LINE
  8
0
 10
-16.646821975708008
 20
5.775017261505127
 30
0.0
 11
-17.291366577148438
 21
4.880112648010254
 31
0.0
  0
LINE
  8
0
 10
-17.291366577148438
 20
4.880112648010254
 30
0.0
 11
-17.95009994506836
 21
3.976198673248291
 31
0.0
  0
LINE
  8
0
 10
-17.95009994506836
 20
3.976198673248291
 30
0.0
 11
-18.61882781982422
 21
3.069395065307617
 31
0.0
  0
LINE
  8
0
 10
-18.61882781982422
 20
3.069395065307617
 30
0.0
 11
-19.293636322021484
 21
2.16546630859375
 31
0.0
  0
LINE
  8
0
 10
-19.293636322021484
 20
2.16546630859375
 30
0.0
 11
-19.970943450927734
 21
1.2697890996932983
 31
0.0
  0
LINE
  8
0
 10
-19.970943450927734
 20
1.2697890996932983
 30
0.0
 11
-20.647350311279297
 21
0.3875190317630768
 31
0.0
  0
LINE
  8
0
 10
-20.647350311279297
 20
0.3875190317630768
 30
0.0
 11
-21.319835662841797
 21
-0.47666630148887634
 31
0.0
  0
LINE
  8
0
 10
-21.319835662841797
 20
-0.47666630148887634
 30
0.0
 11
-21.985647201538086
 21
-1.3183958530426025
 31
0.0
  0
LINE
  8
0
 10
-21.985647201538086
 20
-1.3183958530426025
 30
0.0
 11
-22.64230728149414
 21
-2.133648157119751
 31
0.0
  0
LINE
  8
0
 10
-22.64230728149414
 20
-2.133648157119751
 30
0.0
 11
-23.287635803222656
 21
-2.9187495708465576
 31
0.0
  0
LINE
  8
0
 10
-23.287635803222656
 20
-2.9187495708465576
 30
0.0
 11
-23.91972541809082
 21
-3.670377254486084
 31
0.0
  0
LINE
  8
0
 10
-23.91972541809082
 20
-3.670377254486084
 30
0.0
 11
-24.536951065063477
 21
-4.385566234588623
 31
0.0
  0
LINE
  8
0
 10
-24.536951065063477
 20
-4.385566234588623
 30
0.0
 11
-25.137842178344727
 21
-5.061801910400391
 31
0.0
  0
LINE
  8
0
 10
-25.137842178344727
 20
-5.061801910400391
 30
0.0
 11
-25.721017837524414
 21
-5.697126388549805
 31
0.0
  0
LINE
  8
0
 10
-25.721017837524414
 20
-5.697126388549805
 30
0.0
 11
-26.28506088256836
 21
-6.290016174316406
 31
0.0
  0
LINE
  8
0
 10
-26.28506088256836
 20
-6.290016174316406
 30
0.0
 11
-26.828704833984375
 21
-6.839572906494141
 31
0.0
  0
LINE
  8
0
 10
-26.828704833984375
 20
-6.839572906494141
 30
0.0
 11
-27.350690841674805
 21
-7.3453898429870605
 31
0.0
  0
LINE
  8
0
 10
-27.350690841674805
 20
-7.3453898429870605
 30
0.0
 11
-27.849828720092773
 21
-7.807596206665039
 31
0.0
  0
LINE
  8
0
 10
-27.849828720092773
 20
-7.807596206665039
 30
0.0
 11
-28.324983596801758
 21
-8.226845741271973
 31
0.0
  0
LINE
  8
0
 10
-28.324983596801758
 20
-8.226845741271973
 30
0.0
 11
-28.77505874633789
 21
-8.60431957244873
 31
0.0
  0
LINE
  8
0
 10
-28.77505874633789
 20
-8.60431957244873
 30
0.0
 11
-29.19902801513672
 21
-8.941733360290527
 31
0.0
  0
LINE
  8
0
 10
-29.19902801513672
 20
-8.941733360290527
 30
0.0
 11
-29.595911026000977
 21
-9.241326332092285
 31
0.0
  0
LINE
  8
0
 10
-29.595911026000977
 20
-9.241326332092285
 30
0.0
 11
-29.96479606628418
 21
-9.505879402160645
 31
0.0
  0
LINE
  8
0
 10
-29.96479606628418
 20
-9.505879402160645
 30
0.0
 11
-30.304784774780273
 21
-9.738669395446777
 31
0.0
  0
LINE
  8
0
 10
-30.304784774780273
 20
-9.738669395446777
 30
0.0
 11
-30.615076065063477
 21
-9.943408966064453
 31
0.0
  0
LINE
  8
0
 10
-30.615076065063477
 20
-9.943408966064453
 30
0.0
 11
-30.894916534423828
 21
-10.12376880645752
 31
0.0
  0
LINE
  8
0
 10
-30.894916534423828
 20
-10.12376880645752
 30
0.0
 11
-31.14361572265625
 21
-10.283208847045898
 31
0.0
  0
LINE
  8
0
 10
-31.14361572265625
 20
-10.283208847045898
 30
0.0
 11
-31.36056137084961
 21
-10.424971580505371
 31
0.0
  0
LINE
  8
0
 10
-31.36056137084961
 20
-10.424971580505371
 30
0.0
 11
-31.545183181762695
 21
-10.552087783813477
 31
0.0
  0
LINE
  8
0
 10
-31.545183181762695
 20
-10.552087783813477
 30
0.0
 11
-31.696990966796875
 21
-10.667381286621094
 31
0.0
  0
LINE
  8
0
 10
-31.696990966796875
 20
-10.667381286621094
 30
0.0
 11
-31.81556510925293
 21
-10.773455619812012
 31
0.0
  0
LINE
  8
0
 10
-31.81556510925293
 20
-10.773455619812012
 30
0.0
 11
-31.90053367614746
 21
-10.872705459594727
 31
0.0
  0
LINE
  8
0
 10
-31.90053367614746
 20
-10.872705459594727
 30
0.0
 11
-31.951597213745117
 21
-10.967304229736328
 31
0.0
  0
LINE
  8
0
 10
-31.951597213745117
 20
-10.967304229736328
 30
0.0
 11
-31.9685115814209
 21
-11.059221267700195
 31
0.0
  0
LINE
  8
0
 10
-31.9685115814209
 20
-11.059221267700195
 30
0.0
 11
-31.951133728027344
 21
-11.1502103805542
 31
0.0
  0
LINE
  8
0
 10
-31.951133728027344
 20
-11.1502103805542
 30
0.0
 11
-31.89934539794922
 21
-11.241813659667969
 31
0.0
  0
LINE
  8
0
 10
-31.89934539794922
 20
-11.241813659667969
 30
0.0
 11
-31.81310272216797
 21
-11.335351943969727
 31
0.0
  0
LINE
  8
0
 10
-31.81310272216797
 20
-11.335351943969727
 30
0.0
 11
-31.692472457885742
 21
-11.431934356689453
 31
0.0
  0
LINE
  8
0
 10
-31.692472457885742
 20
-11.431934356689453
 30
0.0
 11
-31.537675857543945
 21
-11.532427787780762
 31
0.0
  0
LINE
  8
0
 10
-31.537675857543945
 20
-11.532427787780762
 30
0.0
 11
-31.34909439086914
 21
-11.637456893920898
 31
0.0
  0
LINE
  8
0
 10
-31.34909439086914
 20
-11.637456893920898
 30
0.0
 11
-31.127294540405273
 21
-11.747426986694336
 31
0.0
  0
LINE
  8
0
 10
-31.127294540405273
 20
-11.747426986694336
 30
0.0
 11
-30.87301254272461
 21
-11.862473487854004
 31
0.0
  0
LINE
  8
0
 10
-30.87301254272461
 20
-11.862473487854004
 30
0.0
 11
-30.58712387084961
 21
-11.982512474060059
 31
0.0
  0
LINE
  8
0
 10
-30.58712387084961
 20
-11.982512474060059
 30
0.0
 11
-30.270715713500977
 21
-12.107220649719238
 31
0.0
  0
LINE
  8
0
 10
-30.270715713500977
 20
-12.107220649719238
 30
0.0
 11
-29.925004959106445
 21
-12.236030578613281
 31
0.0
  0
LINE
  8
0
 10
-29.925004959106445
 20
-12.236030578613281
 30
0.0
 11
-29.551406860351562
 21
-12.36814022064209
 31
0.0
  0
LINE
  8
0
 10
-29.551406860351562
 20
-12.36814022064209
 30
0.0
 11
-29.1514892578125
 21
-12.5025053024292
 31
0.0
  0
LINE
  8
0
 10
-29.1514892578125
 20
-12.5025053024292
 30
0.0
 11
-28.72698974609375
 21
-12.637845993041992
 31
0.0
  0
LINE
  8
0
 10
-28.72698974609375
 20
-12.637845993041992
 30
0.0
 11
-28.27981948852539
 21
-12.772637367248535
 31
0.0
  0
LINE
  8
0
 10
-28.27981948852539
 20
-12.772637367248535
 30
0.0
 11
-27.812030792236328
 21
-12.905153274536133
 31
0.0
  0
LINE
  8
0
 10
-27.812030792236328
 20
-12.905153274536133
 30
0.0
 11
-27.325870513916016
 21
-13.033644676208496
 31
0.0
  0
LINE
  8
0
 10
-27.325870513916016
 20
-13.033644676208496
 30
0.0
 11
-26.8236026763916
 21
-13.156551361083984
 31
0.0
  0
LINE
  8
0
 10
-26.8236026763916
 20
-13.156551361083984
 30
0.0
 11
-26.30759048461914
 21
-13.272515296936035
 31
0.0
  0
LINE
  8
0
 10
-26.30759048461914
 20
-13.272515296936035
 30
0.0
 11
-25.780292510986328
 21
-13.380348205566406
 31
0.0
  0
LINE
  8
0
 10
-25.780292510986328
 20
-13.380348205566406
 30
0.0
 11
-25.244258880615234
 21
-13.479066848754883
 31
0.0
  0
LINE
  8
0
 10
-25.244258880615234
 20
-13.479066848754883
 30
0.0
 11
-24.702110290527344
 21
-13.567875862121582
 31
0.0
  0
LINE
  8
0
 10
-24.702110290527344
 20
-13.567875862121582
 30
0.0
 11
-24.156557083129883
 21
-13.64616870880127
 31
0.0
  0
LINE
  8
0
 10
-24.156557083129883
 20
-13.64616870880127
 30
0.0
 11
-23.61040496826172
 21
-13.713530540466309
 31
0.0
  0
LINE
  8
0
 10
-23.61040496826172
 20
-13.713530540466309
 30
0.0
 11
-23.066511154174805
 21
-13.769742965698242
 31
0.0
  0
LINE
  8
0
 10
-23.066511154174805
 20
-13.769742965698242
 30
0.0
 11
-22.527896881103516
 21
-13.814764022827148
 31
0.0
  0
LINE
  8
0
 10
-22.527896881103516
 20
-13.814764022827148
 30
0.0
 11
-21.997587203979492
 21
-13.848758697509766
 31
0.0
  0
LINE
  8
0
 10
-21.997587203979492
 20
-13.848758697509766
 30
0.0
 11
-21.47872543334961
 21
-13.8720703125
 31
0.0
  0
LINE
  8
0
 10
-21.47872543334961
 20
-13.8720703125
 30
0.0
 11
-20.974462509155273
 21
-13.885228157043457
 31
0.0
  0
LINE
  8
0
 10
-20.974462509155273
 20
-13.885228157043457
 30
0.0
 11
-20.487688064575195
 21
-13.888895034790039
 31
0.0
  0
LINE
  8
0
 10
-20.487688064575195
 20
-13.888895034790039
 30
0.0
 11
-20.02090072631836
 21
-13.883829116821289
 31
0.0
  0
LINE
  8
0
 10
-20.02090072631836
 20
-13.883829116821289
 30
0.0
 11
-19.576215744018555
 21
-13.870916366577148
 31
0.0
  0
LINE
  8
0
 10
-19.576215744018555
 20
-13.870916366577148
 30
0.0
 11
-19.155370712280273
 21
-13.851136207580566
 31
0.0
  0
LINE
  8
0
 10
-19.155370712280273
 20
-13.851136207580566
 30
0.0
 11
-18.75969123840332
 21
-13.82558536529541
 31
0.0
  0
LINE
  8
0
 10
-18.75969123840332
 20
-13.82558536529541
 30
0.0
 11
-18.390182495117188
 21
-13.795472145080566
 31
0.0
  0
LINE
  8
0
 10
-18.390182495117188
 20
-13.795472145080566
 30
0.0
 11
-18.047407150268555
 21
-13.762115478515625
 31
0.0
  0
LINE
  8
0
 10
-18.047407150268555
 20
-13.762115478515625
 30
0.0
 11
-17.731552124023438
 21
-13.726936340332031
 31
0.0
  0
LINE
  8
0
 10
-17.731552124023438
 20
-13.726936340332031
 30
0.0
 11
-17.442432403564453
 21
-13.691473960876465
 31
0.0
  0
LINE
  8
0
 10
-17.442432403564453
 20
-13.691473960876465
 30
0.0
 11
-17.179473876953125
 21
-13.657369613647461
 31
0.0
  0
LINE
  8
0
 10
-17.179473876953125
 20
-13.657369613647461
 30
0.0
 11
-16.941715240478516
 21
-13.626380920410156
 31
0.0
  0
LINE
  8
0
 10
-16.941715240478516
 20
-13.626380920410156
 30
0.0
 11
-16.727825164794922
 21
-13.600373268127441
 31
0.0
  0
LINE
  8
0
 10
-16.727825164794922
 20
-13.600373268127441
 30
0.0
 11
-16.536367416381836
 21
-13.581335067749023
 31
0.0
  0
LINE
  8
0
 10
-16.536367416381836
 20
-13.581335067749023
 30
0.0
 11
-16.366300582885742
 21
-13.57140827178955
 31
0.0
  0
LINE
  8
0
 10
-16.366300582885742
 20
-13.57140827178955
 30
0.0
 11
-16.21709442138672
 21
-13.572892189025879
 31
0.0
  0
LINE
  8
0
 10
-16.21709442138672
 20
-13.572892189025879
 30
0.0
 11
-16.08868408203125
 21
-13.588240623474121
 31
0.0
  0
LINE
  8
0
 10
-16.08868408203125
 20
-13.588240623474121
 30
0.0
 11
-15.981502532958984
 21
-13.620064735412598
 31
0.0
  0
LINE
  8
0
 10
-15.981502532958984
 20
-13.620064735412598
 30
0.0
 11
-15.896475791931152
 21
-13.67113208770752
 31
0.0
  0
LINE
  8
0
 10
-15.896475791931152
 20
-13.67113208770752
 30
0.0
 11
-15.835014343261719
 21
-13.744363784790039
 31
0.0
  0
LINE
  8
0
 10
-15.835014343261719
 20
-13.744363784790039
 30
0.0
 11
-15.79902172088623
 21
-13.842839241027832
 31
0.0
  0
LINE
  8
0
 10
-15.79902172088623
 20
-13.842839241027832
 30
0.0
 11
-15.790894508361816
 21
-13.96979808807373
 31
0.0
  0
LINE
  8
0
 10
-15.790894508361816
 20
-13.96979808807373
 30
0.0
 11
-15.813515663146973
 21
-14.128630638122559
 31
0.0
  0
LINE
  8
0
 10
-15.813515663146973
 20
-14.128630638122559
 30
0.0
 11
-15.87026309967041
 21
-14.322897911071777
 31
0.0
  0
LINE
  8
0
 10
-15.87026309967041
 20
-14.322897911071777
 30
0.0
 11
-15.964995384216309
 21
-14.556283950805664
 31
0.0
  0
LINE
  8
0
 10
-15.964995384216309
 20
-14.556283950805664
 30
0.0
 11
-16.101999282836914
 21
-14.832610130310059
 31
0.0
  0
LINE
  8
0
 10
-16.101999282836914
 20
-14.832610130310059
 30
0.0
 11
-16.285354614257812
 21
-15.155316352844238
 31
0.0
  0
LINE
  8
0
 10
-16.285354614257812
 20
-15.155316352844238
 30
0.0
 11
-16.51837730407715
 21
-15.527056694030762
 31
0.0
  0
LINE
  8
0
 10
-16.51837730407715
 20
-15.527056694030762
 30
0.0
 11
-16.803573608398438
 21
-15.949653625488281
 31
0.0
  0
LINE
  8
0
 10
-16.803573608398438
 20
-15.949653625488281
 30
0.0
 11
-17.14264678955078
 21
-16.424118041992188
 31
0.0
  0
LINE
  8
0
 10
-17.14264678955078
 20
-16.424118041992188
 30
0.0
 11
-17.536500930786133
 21
-16.950641632080078
 31
0.0
  0
LINE
  8
0
 10
-17.536500930786133
 20
-16.950641632080078
 30
0.0
 11
-17.985219955444336
 21
-17.528583526611328
 31
0.0
  0
LINE
  8
0
 10
-17.985219955444336
 20
-17.528583526611328
 30
0.0
 11
-18.488113403320312
 21
-18.15652084350586
 31
0.0
  0
LINE
  8
0
 10
-18.488113403320312
 20
-18.15652084350586
 30
0.0
 11
-19.043615341186523
 21
-18.832115173339844
 31
0.0
  0
LINE
  8
0
 10
-19.043615341186523
 20
-18.832115173339844
 30
0.0
 11
-19.6494140625
 21
-19.552288055419922
 31
0.0
  0
LINE
  8
0
 10
-19.6494140625
 20
-19.552288055419922
 30
0.0
 11
-20.302385330200195
 21
-20.313125610351562
 31
0.0
  0
LINE
  8
0
 10
-20.302385330200195
 20
-20.313125610351562
 30
0.0
 11
-20.99858283996582
 21
-21.109886169433594
 31
0.0
  0
LINE
  8
0
 10
-20.99858283996582
 20
-21.109886169433594
 30
0.0
 11
-21.733264923095703
 21
-21.937002182006836
 31
0.0
  0
LINE
  8
0
 10
-21.733264923095703
 20
-21.937002182006836
 30
0.0
 11
-22.501018524169922
 21
-22.788246154785156
 31
0.0
  0
LINE
  8
0
 10
-22.501018524169922
 20
-22.788246154785156
 30
0.0
 11
-23.29629898071289
 21
-23.657367706298828
 31
0.0
  0
LINE
  8
0
 10
-23.29629898071289
 20
-23.657367706298828
 30
0.0
 11
-24.113666534423828
 21
-24.53834342956543
 31
0.0
  0
LINE
  8
0
 10
-24.113666534423828
 20
-24.53834342956543
 30
0.0
 11
-24.94784164428711
 21
-25.42544937133789
 31
0.0
  0
LINE
  8
0
 10
-24.94784164428711
 20
-25.42544937133789
 30
0.0
 11
-25.79352569580078
 21
-26.31307601928711
 31
0.0
  0
LINE
  8
0
 10
-25.79352569580078
 20
-26.31307601928711
 30
0.0
 11
-26.645648956298828
 21
-27.19598960876465
 31
0.0
  0
LINE
  8
0
 10
-26.645648956298828
 20
-27.19598960876465
 30
0.0
 11
-27.499221801757812
 21
-28.06915283203125
 31
0.0
  0
LINE
  8
0
 10
-27.499221801757812
 20
-28.06915283203125
 30
0.0
 11
-28.349353790283203
 21
-28.92778778076172
 31
0.0
  0
LINE
  8
0
 10
-28.349353790283203
 20
-28.92778778076172
 30
0.0
 11
-29.19127082824707
 21
-29.767353057861328
 31
0.0
  0
LINE
  8
0
 10
-29.19127082824707
 20
-29.767353057861328
 30
0.0
 11
-30.02030372619629
 21
-30.58355712890625
 31
0.0
  0
LINE
  8
0
 10
-30.02030372619629
 20
-30.58355712890625
 30
0.0
 11
-30.8319034576416
 21
-31.372343063354492
 31
0.0
  0
LINE
  8
0
 10
-30.8319034576416
 20
-31.372343063354492
 30
0.0
 11
-31.62162971496582
 21
-32.12993621826172
 31
0.0
  0
LINE
  8
0
 10
-31.62162971496582
 20
-32.12993621826172
 30
0.0
 11
-32.38517761230469
 21
-32.85279083251953
 31
0.0
  0
LINE
  8
0
 10
-32.38517761230469
 20
-32.85279083251953
 30
0.0
 11
-33.118377685546875
 21
-33.53769302368164
 31
0.0
  0
LINE
  8
0
 10
-33.118377685546875
 20
-33.53769302368164
 30
0.0
 11
-33.81760787963867
 21
-34.18212127685547
 31
0.0
  0
LINE
  8
0
 10
-33.81760787963867
 20
-34.18212127685547
 30
0.0
 11
-34.47968292236328
 21
-34.7841911315918
 31
0.0
  0
LINE
  8
0
 10
-34.47968292236328
 20
-34.7841911315918
 30
0.0
 11
-35.101905822753906
 21
-35.34270095825195
 31
0.0
  0
LINE
  8
0
 10
-35.101905822753906
 20
-35.34270095825195
 30
0.0
 11
-35.68207931518555
 21
-35.85710906982422
 31
0.0
  0
LINE
  8
0
 10
-35.68207931518555
 20
-35.85710906982422
 30
0.0
 11
-36.21845626831055
 21
-36.32754135131836
 31
0.0
  0
LINE
  8
0
 10
-36.21845626831055
 20
-36.32754135131836
 30
0.0
 11
-36.70979690551758
 21
-36.754798889160156
 31
0.0
  0
LINE
  8
0
 10
-36.70979690551758
 20
-36.754798889160156
 30
0.0
 11
-37.155338287353516
 21
-37.14034652709961
 31
0.0
  0
LINE
  8
0
 10
-37.155338287353516
 20
-37.14034652709961
 30
0.0
 11
-37.55481719970703
 21
-37.4863395690918
 31
0.0
  0
LINE
  8
0
 10
-37.55481719970703
 20
-37.4863395690918
 30
0.0
 11
-37.90840148925781
 21
-37.79553985595703
 31
0.0
  0
LINE
  8
0
 10
-37.90840148925781
 20
-37.79553985595703
 30
0.0
 11
-38.21678924560547
 21
-38.07145309448242
 31
0.0
  0
LINE
  8
0
 10
-38.21678924560547
 20
-38.07145309448242
 30
0.0
 11
-38.481163024902344
 21
-38.31822204589844
 31
0.0
  0
LINE
  8
0
 10
-38.481163024902344
 20
-38.31822204589844
 30
0.0
 11
-38.7031135559082
 21
-38.540611267089844
 31
0.0
  0
LINE
  8
0
 10
-38.7031135559082
 20
-38.540611267089844
 30
0.0
 11
-38.88423538208008
 21
-38.74354553222656
 31
0.0
  0
LINE
  8
0
 10
-38.88423538208008
 20
-38.74354553222656
 30
0.0
 11
-39.02565002441406
 21
-38.93168640136719
 31
0.0
  0
LINE
  8
0
 10
-39.02565002441406
 20
-38.93168640136719
 30
0.0
 11
-39.12801742553711
 21
-39.109413146972656
 31
0.0
  0
LINE
  8
0
 10
-39.12801742553711
 20
-39.109413146972656
 30
0.0
 11
-39.1915168762207
 21
-39.28078842163086
 31
0.0
  0
LINE
  8
0
 10
-39.1915168762207
 20
-39.28078842163086
 30
0.0
 11
-39.21583938598633
 21
-39.44959259033203
 31
0.0
  0
LINE
  8
0
 10
-39.21583938598633
 20
-39.44959259033203
 30
0.0
 11
-39.200191497802734
 21
-39.619285583496094
 31
0.0
  0
LINE
  8
0
 10
-39.200191497802734
 20
-39.619285583496094
 30
0.0
 11
-39.143306732177734
 21
-39.793052673339844
 31
0.0
  0
LINE
  8
0
 10
-39.143306732177734
 20
-39.793052673339844
 30
0.0
 11
-39.0434455871582
 21
-39.973785400390625
 31
0.0
  0
LINE
  8
0
 10
-39.0434455871582
 20
-39.973785400390625
 30
0.0
 11
-38.89836883544922
 21
-40.1640510559082
 31
0.0
  0
LINE
  8
0
 10
-38.89836883544922
 20
-40.1640510559082
 30
0.0
 11
-38.705379486083984
 21
-40.36614990234375
 31
0.0
  0
LINE
  8
0
 10
-38.705379486083984
 20
-40.36614990234375
 30
0.0
 11
-38.46125793457031
 21
-40.582054138183594
 31
0.0
  0
LINE
  8
0
 10
-38.46125793457031
 20
-40.582054138183594
 30
0.0
 11
-38.1623649597168
 21
-40.813472747802734
 31
0.0
  0
LINE
  8
0
 10
-38.1623649597168
 20
-40.813472747802734
 30
0.0
 11
-37.804752349853516
 21
-41.0617790222168
 31
0.0
  0
LINE
  8
0
 10
-37.804752349853516
 20
-41.0617790222168
 30
0.0
 11
-37.38508224487305
 21
-41.32795333862305
 31
0.0
  0
LINE
  8
0
 10
-37.38508224487305
 20
-41.32795333862305
 30
0.0
 11
-36.90111541748047
 21
-41.61255645751953
 31
0.0
  0
LINE
  8
0
 10
-36.90111541748047
 20
-41.61255645751953
 30
0.0
 11
-36.35157775878906
 21
-41.91572189331055
 31
0.0
  0
LINE
  8
0
 10
-36.35157775878906
 20
-41.91572189331055
 30
0.0
 11
-35.73625564575195
 21
-42.23717498779297
 31
0.0
  0
LINE
  8
0
 10
-35.73625564575195
 20
-42.23717498779297
 30
0.0
 11
-35.05594253540039
 21
-42.57617950439453
 31
0.0
  0
LINE
  8
0
 10
-35.05594253540039
 20
-42.57617950439453
 30
0.0
 11
-34.312503814697266
 21
-42.9316291809082
 31
0.0
  0
LINE
  8
0
 10
-34.312503814697266
 20
-42.9316291809082
 30
0.0
 11
-33.50882339477539
 21
-43.30194091796875
 31
0.0
  0
LINE
  8
0
 10
-33.50882339477539
 20
-43.30194091796875
 30
0.0
 11
-32.64881134033203
 21
-43.68513488769531
 31
0.0
  0
LINE
  8
0
 10
-32.64881134033203
 20
-43.68513488769531
 30
0.0
 11
-31.737415313720703
 21
-44.078800201416016
 31
0.0
  0
LINE
  8
0
 10
-31.737415313720703
 20
-44.078800201416016
 30
0.0
 11
-30.78058433532715
 21
-44.48011779785156
 31
0.0
  0
LINE
  8
0
 10
-30.78058433532715
 20
-44.48011779785156
 30
0.0
 11
-29.78542137145996
 21
-44.88579559326172
 31
0.0
  0
LINE
  8
0
 10
-29.78542137145996
 20
-44.88579559326172
 30
0.0
 11
-28.75992202758789
 21
-45.29216003417969
 31
0.0
  0
LINE
  8
0
 10
-28.75992202758789
 20
-45.29216003417969
 30
0.0
 11
-27.71263313293457
 21
-45.695369720458984
 31
0.0
  0
LINE
  8
0
 10
-27.71263313293457
 20
-45.695369720458984
 30
0.0
 11
-26.651634216308594
 21
-46.09185791015625
 31
0.0
  0
LINE
  8
0
 10
-26.651634216308594
 20
-46.09185791015625
 30
0.0
 11
-25.58432388305664
 21
-46.47843551635742
 31
0.0
  0
LINE
  8
0
 10
-25.58432388305664
 20
-46.47843551635742
 30
0.0
 11
-24.51741600036621
 21
-46.85232162475586
 31
0.0
  0
LINE
  8
0
 10
-24.51741600036621
 20
-46.85232162475586
 30
0.0
 11
-23.456945419311523
 21
-47.21110153198242
 31
0.0
  0
LINE
  8
0
 10
-23.456945419311523
 20
-47.21110153198242
 30
0.0
 11
-22.408273696899414
 21
-47.55276107788086
 31
0.0
  0
LINE
  8
0
 10
-22.408273696899414
 20
-47.55276107788086
 30
0.0
 11
-21.376020431518555
 21
-47.87569808959961
 31
0.0
  0
LINE
  8
0
 10
-21.376020431518555
 20
-47.87569808959961
 30
0.0
 11
-20.364286422729492
 21
-48.17862319946289
 31
0.0
  0
LINE
  8
0
 10
-20.364286422729492
 20
-48.17862319946289
 30
0.0
 11
-19.37633514404297
 21
-48.460697174072266
 31
0.0
  0
LINE
  8
0
 10
-19.37633514404297
 20
-48.460697174072266
 30
0.0
 11
-18.414798736572266
 21
-48.721473693847656
 31
0.0
  0
LINE
  8
0
 10
-18.414798736572266
 20
-48.721473693847656
 30
0.0
 11
-17.48163604736328
 21
-48.960853576660156
 31
0.0
  0
LINE
  8
0
 10
-17.48163604736328
 20
-48.960853576660156
 30
0.0
 11
-16.57811737060547
 21
-49.179161071777344
 31
0.0
  0
LINE
  8
0
 10
-16.57811737060547
 20
-49.179161071777344
 30
0.0
 11
-15.704874038696289
 21
-49.377052307128906
 31
0.0
  0
LINE
  8
0
 10
-15.704874038696289
 20
-49.377052307128906
 30
0.0
 11
-14.862196922302246
 21
-49.55543518066406
 31
0.0
  0
LINE
  8
0
 10
-14.862196922302246
 20
-49.55543518066406
 30
0.0
 11
-14.050365447998047
 21
-49.71520233154297
 31
0.0
  0
LINE
  8
0
 10
-14.050365447998047
 20
-49.71520233154297
 30
0.0
 11
-13.269634246826172
 21
-49.8573112487793
 31
0.0
  0
LINE
  8
0
 10
-13.269634246826172
 20
-49.8573112487793
 30
0.0
 11
-12.520366668701172
 21
-49.982704162597656
 31
0.0
  0
LINE
  8
0
 10
-12.520366668701172
 20
-49.982704162597656
 30
0.0
 11
-11.802824020385742
 21
-50.09236526489258
 31
0.0
  0
LINE
  8
0
 10
-11.802824020385742
 20
-50.09236526489258
 30
0.0
 11
-11.117316246032715
 21
-50.18730545043945
 31
0.0
  0
LINE
  8
0
 10
-11.117316246032715
 20
-50.18730545043945
 30
0.0
 11
-10.464162826538086
 21
-50.268550872802734
 31
0.0
  0
LINE
  8
0
 10
-10.464162826538086
 20
-50.268550872802734
 30
0.0
 11
-9.843679428100586
 21
-50.337154388427734
 31
0.0
  0
LINE
  8
0
 10
-9.843679428100586
 20
-50.337154388427734
 30
0.0
 11
-9.256203651428223
 21
-50.39418029785156
 31
0.0
  0
LINE
  8
0
 10
-9.256203651428223
 20
-50.39418029785156
 30
0.0
 11
-8.702070236206055
 21
-50.440731048583984
 31
0.0
  0
LINE
  8
0
 10
-8.702070236206055
 20
-50.440731048583984
 30
0.0
 11
-8.181625366210938
 21
-50.47792434692383
 31
0.0
  0
LINE
  8
0
 10
-8.181625366210938
 20
-50.47792434692383
 30
0.0
 11
-7.695197582244873
 21
-50.50688552856445
 31
0.0
  0
LINE
  8
0
 10
-7.695197582244873
 20
-50.50688552856445
 30
0.0
 11
-7.243165016174316
 21
-50.528778076171875
 31
0.0
  0
LINE
  8
0
 10
-7.243165016174316
 20
-50.528778076171875
 30
0.0
 11
-6.825661659240723
 21
-50.54471206665039
 31
0.0
  0
LINE
  8
0
 10
-6.825661659240723
 20
-50.54471206665039
 30
0.0
 11
-6.442612171173096
 21
-50.55574417114258
 31
0.0
  0
LINE
  8
0
 10
-6.442612171173096
 20
-50.55574417114258
 30
0.0
 11
-6.09370756149292
 21
-50.56288146972656
 31
0.0
  0
LINE
  8
0
 10
-6.09370756149292
 20
-50.56288146972656
 30
0.0
 11
-5.778401851654053
 21
-50.567081451416016
 31
0.0
  0
LINE
  8
0
 10
-5.778401851654053
 20
-50.567081451416016
 30
0.0
 11
-5.495912551879883
 21
-50.56922149658203
 31
0.0
  0
LINE
  8
0
 10
-5.495912551879883
 20
-50.56922149658203
 30
0.0
 11
-5.245222568511963
 21
-50.57014083862305
 31
0.0
  0
LINE
  8
0
 10
-5.245222568511963
 20
-50.57014083862305
 30
0.0
 11
-5.025075912475586
 21
-50.570621490478516
 31
0.0
  0
LINE
  8
0
 10
-5.025075912475586
 20
-50.570621490478516
 30
0.0
 11
-4.833974838256836
 21
-50.57138442993164
 31
0.0
  0
LINE
  8
0
 10
-4.833974838256836
 20
-50.57138442993164
 30
0.0
 11
-4.6702117919921875
 21
-50.573089599609375
 31
0.0
  0
LINE
  8
0
 10
-4.6702117919921875
 20
-50.573089599609375
 30
0.0
 11
-4.531814098358154
 21
-50.57633590698242
 31
0.0
  0
LINE
  8
0
 10
-4.531814098358154
 20
-50.57633590698242
 30
0.0
 11
-4.416584014892578
 21
-50.581703186035156
 31
0.0
  0
LINE
  8
0
 10
-4.416584014892578
 20
-50.581703186035156
 30
0.0
 11
-4.322089195251465
 21
-50.589698791503906
 31
0.0
  0
LINE
  8
0
 10
-4.322089195251465
 20
-50.589698791503906
 30
0.0
 11
-4.245782852172852
 21
-50.6023063659668
 31
0.0
  0
LINE
  8
0
 10
-4.245782852172852
 20
-50.6023063659668
 30
0.0
 11
-4.1852288246154785
 21
-50.625789642333984
 31
0.0
  0
LINE
  8
0
 10
-4.1852288246154785
 20
-50.625789642333984
 30
0.0
 11
-4.138164520263672
 21
-50.67145919799805
 31
0.0
  0
LINE
  8
0
 10
-4.138164520263672
 20
-50.67145919799805
 30
0.0
 11
-4.102487087249756
 21
-50.755550384521484
 31
0.0
  0
LINE
  8
0
 10
-4.102487087249756
 20
-50.755550384521484
 30
0.0
 11
-4.076265811920166
 21
-50.89930725097656
 31
0.0
  0
LINE
  8
0
 10
-4.076265811920166
 20
-50.89930725097656
 30
0.0
 11
-4.057736396789551
 21
-51.12895965576172
 31
0.0
  0
LINE
  8
0
 10
-4.057736396789551
 20
-51.12895965576172
 30
0.0
 11
-4.04530143737793
 21
-51.4756965637207
 31
0.0
  0
LINE
  8
0
 10
-4.04530143737793
 20
-51.4756965637207
 30
0.0
 11
-4.037527561187744
 21
-51.9757080078125
 31
0.0
  0
LINE
  8
0
 10
-4.037527561187744
 20
-51.9757080078125
 30
0.0
 11
-4.033152103424072
 21
-52.67015838623047
 31
0.0
  0
LINE
  8
0
 10
-4.033152103424072
 20
-52.67015838623047
 30
0.0
 11
-4.031078338623047
 21
-53.605201721191406
 31
0.0
  0
LINE
  8
0
 10
-4.031078338623047
 20
-53.605201721191406
 30
0.0
 11
-4.030376434326172
 21
-54.83197021484375
 31
0.0
  0
LINE
  8
0
 10
-4.030376434326172
 20
-54.83197021484375
 30
0.0
 11
-4.030284404754639
 21
-56.40657043457031
 31
0.0
  0
ENDSEC
  0
EOF
