  0
SECTION
  2
HEADER
  9
$ACADVER
  1
AC1009
  9
$INSBASE
 10
0.0
 20
0.0
 30
0.0
  9
$EXTMIN
 10
0.0
 20
0.0
 30
0.0
  9
$EXTMAX
 10
0.0
 20
0.0
 30
0.0
  0
ENDSEC
  0
SECTION
  2
TABLES
  0
TABLE
  2
VPORT
 70
1
  0
VPORT
  2
*ACTIVE
 70
0
 10
0.0
 20
0.0
 11
1.0
 21
1.0
 12
-5.0
 22
1.0
 13
0.0
 23
0.0
 14
0.1
 24
0.1
 15
0.1
 25
0.1
 16
0.0
 26
0.0
 36
1.0
 17
0.0
 27
0.0
 37
0.0
 40
10.0
 41
1.0
 42
50.0
 43
0.0
 44
0.0
 50
0.0
 51
0.0
 71
0
 72
100
 73
1
 74
1
 75
0
 76
0
 77
0
 78
0
  0
ENDTAB
  0
TABLE
  2
LTYPE
 70
8
  0
LTYPE
  2
CONTINUOUS
 70
0
  3
Solid line
 72
65
 73
0
 40
0.0
  0
LTYPE
  2
DOT
 70
0
  3
. . . . . . .
 72
65
 73
2
 40
0.25
 49
0.0
 49
-0.25
  0
LTYPE
  2
DASHED
 70
0
  3
__ __ __ __ __
 72
65
 73
2
 40
0.8
 49
0.5
 49
-0.3
  0
LTYPE
  2
DASHDOT
 70
0
  3
__ . __ . __ .
 72
65
 73
4
 40
1.0
 49
0.5
 49
-0.25
 49
0.0
 49
-0.25
  0
LTYPE
  2
DIVIDE
 70
0
  3
____ . . ____ . . 
 72
65
 73
6
 40
1.25
 49
0.5
 49
-0.25
 49
0.0
 49
-0.25
 49
0.0
 49
-0.25
  0
LTYPE
  2
BORDER
 70
0
  3
__ __ . __ __ . 
 72
65
 73
6
 40
1.75
 49
0.5
 49
-0.25
 49
0.5
 49
-0.25
 49
0.0
 49
-0.25
  0
LTYPE
  2
HIDDEN
 70
0
  3
__ __ __ __ __
 72
65
 73
2
 40
0.4
 49
0.25
 49
-0.25
  0
LTYPE
  2
CENTER
 70
0
  3
____ _ ____ _ __
 72
65
 73
4
 40
2.0
 49
1.25
 49
-0.25
 49
0.25
 49
-0.25
  0
ENDTAB
  0
TABLE
  2
LAYER
 70
1
  0
LAYER
  2
PYDXF
 70
64
 62
7
  6
continuous
  0
ENDTAB
  0
TABLE
  2
STYLE
 70
1
  0
STYLE
  2
STANDARD
 70
0
 40
0
 41
1.0
 50
0.0
 71
0
 42
1
 3
ARIAL.TTF
 4

  0
ENDTAB
  0
TABLE
  2
VIEW
 70
1
  0
VIEW
  2
BF_TOPVIEW
 70
0
 40
120.0
 10
0.0
 20
0.0
 41
200.0
 11
0.0
 21
0.0
 31
1.0
 12
0.0
 22
0.0
 32
0.0
 42
50.0
 43
0.0
 44
0.0
 50
0.0
 71
0
  0
ENDTAB
  0
ENDSEC
  0
SECTION
  2
BLOCKS
  0
ENDSEC
  0
SECTION
  2
ENTITIES
  0
LINE
  8
0
 10
-17.97028160095215
 20
12.997809410095215
 30
0.0
 11
-14.584794998168945
 21
14.273170471191406
 31
0.0
  0
LINE
  8
0
 10
-11.255655288696289
 20
15.603076934814453
 30
0.0
 11
-7.982851028442383
 21
16.987531661987305
 31
0.0
  0
LINE
  8
0
 10
-4.766385555267334
 20
18.42653465270996
 30
0.0
 11
-1.606261968612671
 21
19.92008399963379
 31
0.0
  0
LINE
  8
0
 10
1.4975218772888184
 20
21.46817970275879
 30
0.0
 11
4.5449676513671875
 21
23.070823669433594
 31
0.0
  0
LINE
  8
0
 10
7.536078929901123
 20
24.728017807006836
 30
0.0
 11
10.470848083496094
 21
26.43975830078125
 31
0.0
  0
LINE
  8
0
 10
13.349275588989258
 20
28.206045150756836
 30
0.0
 11
16.171367645263672
 21
30.026880264282227
 31
0.0
  0
LINE
  8
0
 10
18.93711280822754
 20
31.90226173400879
 30
0.0
 11
21.646526336669922
 21
33.83219528198242
 31
0.0
  0
LINE
  8
0
 10
16.460086822509766
 20
38.017738342285156
 30
0.0
 11
13.750677108764648
 21
36.087806701660156
 31
0.0
  0
LINE
  8
0
 10
10.984928131103516
 20
34.212425231933594
 30
0.0
 11
8.162834167480469
 21
32.39158630371094
 31
0.0
  0
LINE
  8
0
 10
5.284407138824463
 20
30.62529945373535
 30
0.0
 11
2.349640369415283
 21
28.91356086730957
 31
0.0
  0
LINE
  8
0
 10
-0.6414680480957031
 20
27.256366729736328
 30
0.0
 11
-3.688913345336914
 21
25.653722763061523
 31
0.0
  0
LINE
  8
0
 10
-6.792697906494141
 20
24.10562515258789
 30
0.0
 11
-9.952821731567383
 21
22.612077713012695
 31
0.0
  0
LINE
  8
0
 10
-13.169291496276855
 20
21.173072814941406
 30
0.0
 11
-16.442092895507812
 21
19.788618087768555
 31
0.0
  0
LINE
  8
0
 10
-19.771236419677734
 20
18.458711624145508
 30
0.0
 11
-23.15671730041504
 21
17.183353424072266
 31
0.0
  0
LINE
  8
0
 10
-16.93069076538086
 20
44.202720642089844
 30
0.0
 11
-13.752647399902344
 21
45.68701171875
 31
0.0
  0
LINE
  8
0
 10
-10.642091751098633
 20
47.23759841918945
 30
0.0
 11
-7.599025726318359
 21
48.85447692871094
 31
0.0
  0
LINE
  8
0
 10
-4.623449802398682
 20
50.53764724731445
 30
0.0
 11
-1.7153573036193848
 21
52.28711700439453
 31
0.0
  0
LINE
  8
0
 10
1.1252493858337402
 20
54.102874755859375
 30
0.0
 11
3.898367404937744
 21
55.984928131103516
 31
0.0
  0
LINE
  8
0
 10
6.603992938995361
 20
57.93327331542969
 30
0.0
 11
9.242134094238281
 21
59.947906494140625
 31
0.0
  0
LINE
  8
0
 10
11.812784194946289
 20
62.028839111328125
 30
0.0
 11
14.31595230102539
 21
64.17606353759766
 31
0.0
  0
LINE
  8
0
 10
9.1295166015625
 20
68.36161041259766
 30
0.0
 11
6.626348972320557
 21
66.21438598632812
 31
0.0
  0
LINE
  8
0
 10
4.055698871612549
 20
64.13345336914062
 30
0.0
 11
1.4175543785095215
 21
62.118812561035156
 31
0.0
  0
LINE
  8
0
 10
21.646526336669922
 20
33.83219528198242
 30
0.0
 11
21.925331115722656
 21
34.04073715209961
 31
0.0
  0
LINE
  8
0
 10
-6.901794910430908
 20
56.47265625
 30
0.0
 11
-9.80988597869873
 21
54.72319412231445
 31
0.0
  0
LINE
  8
0
 10
-12.785463333129883
 20
53.04001998901367
 30
0.0
 11
-15.828529357910156
 21
51.42314147949219
 31
0.0
  0
LINE
  8
0
 10
-18.9390869140625
 20
49.872554779052734
 30
0.0
 11
-22.117130279541016
 21
48.38825988769531
 31
0.0
  0
LINE
  8
0
 10
-7.776401042938232
 20
74.35041046142578
 30
0.0
 11
-4.87549352645874
 21
76.30023193359375
 31
0.0
  0
LINE
  8
0
 10
-2.038459300994873
 20
78.2955551147461
 30
0.0
 11
0.7347073554992676
 21
80.33637237548828
 31
0.0
  0
LINE
  8
0
 10
4.697132587432861
 20
90.50074768066406
 30
0.0
 11
2.179447650909424
 21
88.2779312133789
 31
0.0
  0
LINE
  8
0
 10
-0.40211057662963867
 20
86.10062408447266
 30
0.0
 11
-3.0475306510925293
 21
83.96880340576172
 31
0.0
  0
LINE
  8
0
 10
-5.756829738616943
 20
81.88248443603516
 30
0.0
 11
-8.529996871948242
 21
79.84166717529297
 31
0.0
  0
LINE
  8
0
 10
20.998580932617188
 20
35.08076095581055
 30
0.0
 11
20.302316665649414
 21
35.877559661865234
 31
0.0
  0
LINE
  8
0
 10
19.649459838867188
 20
36.63839340209961
 30
0.0
 11
19.043590545654297
 21
37.358585357666016
 31
0.0
  0
LINE
  8
0
 10
18.48809242248535
 20
38.03415298461914
 30
0.0
 11
17.985248565673828
 21
38.66206741333008
 31
0.0
  0
LINE
  8
0
 10
14.791194915771484
 20
64.60795593261719
 30
0.0
 11
14.303354263305664
 21
65.32209014892578
 31
0.0
  0
LINE
  8
0
 10
13.799016952514648
 20
66.07255554199219
 30
0.0
 11
13.334598541259766
 21
66.77700805664062
 31
0.0
  0
LINE
  8
0
 10
12.912424087524414
 20
67.4317855834961
 30
0.0
 11
12.534013748168945
 21
68.03423309326172
 31
0.0
  0
LINE
  8
0
 10
12.20028305053711
 20
68.5825424194336
 30
0.0
 11
11.911237716674805
 21
69.07603454589844
 31
0.0
  0
LINE
  8
0
 10
11.666349411010742
 20
69.51502227783203
 30
0.0
 11
11.46406364440918
 21
69.90060424804688
 31
0.0
  0
LINE
  8
0
 10
8.28329086303711
 20
87.39947509765625
 30
0.0
 11
7.6762566566467285
 21
88.24060821533203
 31
0.0
  0
LINE
  8
0
 10
7.084991931915283
 20
89.07125854492188
 30
0.0
 11
6.511995792388916
 21
89.88713836669922
 31
0.0
  0
LINE
  8
0
 10
4.697132587432861
 20
90.50074768066406
 30
0.0
 11
5.547966480255127
 21
91.28726196289062
 31
0.0
  0
LINE
  8
0
 10
-20.758159637451172
 20
71.73274993896484
 30
0.0
 11
-20.58625602722168
 21
71.64208221435547
 31
0.0
  0
LINE
  8
0
 10
-20.391664505004883
 20
71.5543441772461
 30
0.0
 11
-20.175357818603516
 21
71.46988677978516
 31
0.0
  0
LINE
  8
0
 10
-19.9386043548584
 20
71.38914489746094
 30
0.0
 11
-19.682621002197266
 21
71.31261444091797
 31
0.0
  0
LINE
  8
0
 10
-19.408836364746094
 20
71.24080657958984
 30
0.0
 11
-19.11899757385254
 21
71.17433166503906
 31
0.0
  0
LINE
  8
0
 10
-18.81488609313965
 20
71.11375427246094
 30
0.0
 11
-18.498245239257812
 21
71.05980682373047
 31
0.0
  0
LINE
  8
0
 10
-18.17139434814453
 20
71.01309204101562
 30
0.0
 11
-17.836395263671875
 21
70.97445678710938
 31
0.0
  0
LINE
  8
0
 10
-17.495450973510742
 20
70.94438171386719
 30
0.0
 11
-17.150667190551758
 21
70.92330169677734
 31
0.0
  0
LINE
  8
0
 10
-16.8039608001709
 20
70.9115219116211
 30
0.0
 11
-16.45724868774414
 21
70.90902709960938
 31
0.0
  0
LINE
  8
0
 10
-16.11233901977539
 20
70.91580963134766
 30
0.0
 11
-15.770914077758789
 21
70.93142700195312
 31
0.0
  0
LINE
  8
0
 10
-15.434693336486816
 20
70.95561981201172
 30
0.0
 11
-15.105026245117188
 21
70.98761749267578
 31
0.0
  0
LINE
  8
0
 10
-14.783435821533203
 20
71.02667999267578
 30
0.0
 11
-14.471269607543945
 21
71.07176208496094
 31
0.0
  0
LINE
  8
0
 10
-14.169695854187012
 20
71.12186431884766
 30
0.0
 11
-13.879981994628906
 21
71.17550659179688
 31
0.0
  0
LINE
  8
0
 10
-13.603094100952148
 20
71.23143005371094
 30
0.0
 11
-13.339925765991211
 21
71.28824615478516
 31
0.0
  0
LINE
  8
0
 10
-13.091182708740234
 20
71.34466552734375
 30
0.0
 11
-12.857351303100586
 21
71.3995590209961
 31
0.0
  0
LINE
  8
0
 10
-12.435482025146484
 20
71.50070190429688
 30
0.0
 11
-12.24764633178711
 21
71.5450439453125
 31
0.0
  0
LINE
  8
0
 10
-31.349090576171875
 20
44.55319595336914
 30
0.0
 11
-31.127273559570312
 21
44.44324493408203
 31
0.0
  0
LINE
  8
0
 10
-30.873022079467773
 20
44.328155517578125
 30
0.0
 11
-30.587093353271484
 21
44.208168029785156
 31
0.0
  0
LINE
  8
0
 10
-30.27070426940918
 20
44.08340072631836
 30
0.0
 11
-29.924989700317383
 21
43.95459747314453
 31
0.0
  0
LINE
  8
0
 10
-29.551427841186523
 20
43.82251739501953
 30
0.0
 11
-29.15145492553711
 21
43.68812561035156
 31
0.0
  0
LINE
  8
0
 10
-28.72696876525879
 20
43.55282211303711
 30
0.0
 11
-28.279802322387695
 21
43.41802215576172
 31
0.0
  0
LINE
  8
0
 10
-27.812057495117188
 20
43.285484313964844
 30
0.0
 11
-27.32588768005371
 21
43.157012939453125
 31
0.0
  0
LINE
  8
0
 10
-26.823593139648438
 20
43.03409957885742
 30
0.0
 11
-26.30759048461914
 21
42.91813659667969
 31
0.0
  0
LINE
  8
0
 10
-25.780309677124023
 20
42.810298919677734
 30
0.0
 11
-25.24427032470703
 21
42.711570739746094
 31
0.0
  0
LINE
  8
0
 10
-24.702104568481445
 20
42.62276840209961
 30
0.0
 11
-24.156583786010742
 21
42.54450988769531
 31
0.0
  0
LINE
  8
0
 10
-23.610382080078125
 20
42.47710418701172
 30
0.0
 11
-23.066543579101562
 21
42.42091751098633
 31
0.0
  0
LINE
  8
0
 10
-22.527908325195312
 20
42.37590408325195
 30
0.0
 11
-21.997583389282227
 21
42.341922760009766
 31
0.0
  0
LINE
  8
0
 10
-21.478734970092773
 20
42.318603515625
 30
0.0
 11
-21.328319549560547
 21
42.31466293334961
 31
0.0
  0
LINE
  8
0
 10
-28.675674438476562
 20
45.61855697631836
 30
0.0
 11
-31.401165008544922
 21
44.58220672607422
 31
0.0
  0
LINE
  8
0
 10
-20.261371612548828
 20
72.13336944580078
 30
0.0
 11
-20.848217010498047
 21
71.78927612304688
 31
0.0
  0
LINE
  8
0
 10
16.460086822509766
 20
38.017738342285156
 30
0.0
 11
17.74140167236328
 21
38.97614669799805
 31
0.0
  0
LINE
  8
0
 10
9.1295166015625
 20
68.36161041259766
 30
0.0
 11
11.270830154418945
 21
70.30760955810547
 31
0.0
  0
LINE
  8
0
 10
-26.59853744506836
 20
15.962541580200195
 30
0.0
 11
-30.43488311767578
 21
14.597065925598145
 31
0.0
  0
LINE
  8
0
 10
-25.361360549926758
 20
10.502644538879395
 30
0.0
 11
-26.600725173950195
 21
10.080364227294922
 31
0.0
  0
LINE
  8
0
 10
-34.31251907348633
 20
13.258997917175293
 30
0.0
 11
-33.50883483886719
 21
12.888715744018555
 31
0.0
  0
LINE
  8
0
 10
-32.64878845214844
 20
12.505548477172852
 30
0.0
 11
-31.737409591674805
 21
12.11182975769043
 31
0.0
  0
LINE
  8
0
 10
-30.78056526184082
 20
11.710559844970703
 30
0.0
 11
-29.785390853881836
 21
11.304872512817383
 31
0.0
  0
LINE
  8
0
 10
-28.75991439819336
 20
10.89852237701416
 30
0.0
 11
-27.712594985961914
 21
10.495318412780762
 31
0.0
  0
LINE
  8
0
 10
-26.600725173950195
 20
10.080364227294922
 30
0.0
 11
-26.651634216308594
 21
10.098799705505371
 31
0.0
  0
LINE
  8
0
 10
-17.97028160095215
 20
12.997809410095215
 30
0.0
 11
-18.490306854248047
 21
12.813356399536133
 31
0.0
  0
LINE
  8
0
 10
-25.361360549926758
 20
10.502644538879395
 30
0.0
 11
-22.128150939941406
 21
11.653444290161133
 31
0.0
  0
LINE
  8
0
 10
-18.49030876159668
 20
14.533823013305664
 30
0.0
 11
-22.12815284729004
 21
14.53382682800293
 31
0.0
  0
LINE
  8
0
 10
10.984928131103516
 20
34.212425231933594
 30
0.0
 11
13.405895233154297
 21
35.85401916503906
 31
0.0
  0
LINE
  8
0
 10
17.04374122619629
 20
32.41067886352539
 30
0.0
 11
17.043739318847656
 21
36.048519134521484
 31
0.0
  0
LINE
  8
0
 10
-15.799179077148438
 20
73.1425552368164
 30
0.0
 11
-15.799182891845703
 21
74.9129867553711
 31
0.0
  0
LINE
  8
0
 10
-15.799179077148438
 20
73.1425552368164
 30
0.0
 11
-12.161334991455078
 21
73.1425552368164
 31
0.0
  0
LINE
  8
0
 10
-12.161334991455078
 20
73.1425552368164
 30
0.0
 11
-12.161336898803711
 21
76.7803955078125
 31
0.0
  0
LINE
  8
0
 10
-11.36703109741211
 20
77.84634399414062
 30
0.0
 11
-12.952922821044922
 21
76.7803955078125
 31
0.0
  0
LINE
  8
0
 10
3.4440083503723145
 20
82.42269897460938
 30
0.0
 11
4.443726062774658
 21
83.22832489013672
 31
0.0
  0
LINE
  8
0
 10
4.443724155426025
 20
85.6897964477539
 30
0.0
 11
7.4355034828186035
 21
85.68980407714844
 31
0.0
  0
LINE
  8
0
 10
-28.675674438476562
 20
45.61855697631836
 30
0.0
 11
-25.90570640563965
 21
46.74869918823242
 31
0.0
  0
LINE
  8
0
 10
-25.90570640563965
 20
46.74869918823242
 30
0.0
 11
-25.905704498291016
 21
45.17765426635742
 31
0.0
  0
LINE
  8
0
 10
-25.905704498291016
 20
45.17765426635742
 30
0.0
 11
-22.267866134643555
 21
45.17765808105469
 31
0.0
  0
LINE
  8
0
 10
5.960154056549072
 20
90.68392944335938
 30
0.0
 11
5.547966480255127
 21
91.28726196289062
 31
0.0
  0
LINE
  8
0
 10
-31.349090576171875
 20
44.55319595336914
 30
0.0
 11
-31.401165008544922
 21
44.58220672607422
 31
0.0
  0
LINE
  8
0
 10
-14.584794998168945
 20
14.273170471191406
 30
0.0
 11
-11.255655288696289
 21
15.603076934814453
 31
0.0
  0
LINE
  8
0
 10
-7.982851028442383
 20
16.987531661987305
 30
0.0
 11
-4.766385555267334
 21
18.42653465270996
 31
0.0
  0
LINE
  8
0
 10
-1.606261968612671
 20
19.92008399963379
 30
0.0
 11
1.4975218772888184
 21
21.46817970275879
 31
0.0
  0
LINE
  8
0
 10
4.5449676513671875
 20
23.070823669433594
 30
0.0
 11
7.536078929901123
 21
24.728017807006836
 31
0.0
  0
LINE
  8
0
 10
10.470848083496094
 20
26.43975830078125
 30
0.0
 11
13.349275588989258
 21
28.206045150756836
 31
0.0
  0
LINE
  8
0
 10
16.171367645263672
 20
30.026880264282227
 30
0.0
 11
18.93711280822754
 21
31.90226173400879
 31
0.0
  0
LINE
  8
0
 10
8.162834167480469
 20
32.39158630371094
 30
0.0
 11
5.284407138824463
 21
30.62529945373535
 31
0.0
  0
LINE
  8
0
 10
2.349640369415283
 20
28.91356086730957
 30
0.0
 11
-0.6414680480957031
 21
27.256366729736328
 31
0.0
  0
LINE
  8
0
 10
-3.688913345336914
 20
25.653722763061523
 30
0.0
 11
-6.792697906494141
 21
24.10562515258789
 31
0.0
  0
LINE
  8
0
 10
-9.952821731567383
 20
22.612077713012695
 30
0.0
 11
-13.169291496276855
 21
21.173072814941406
 31
0.0
  0
LINE
  8
0
 10
-16.442092895507812
 20
19.788618087768555
 30
0.0
 11
-19.771236419677734
 21
18.458711624145508
 31
0.0
  0
LINE
  8
0
 10
-23.15671730041504
 20
17.183353424072266
 30
0.0
 11
-26.59853744506836
 21
15.962541580200195
 31
0.0
  0
LINE
  8
0
 10
-20.176218032836914
 20
42.78472137451172
 30
0.0
 11
-16.93069076538086
 21
44.202720642089844
 31
0.0
  0
LINE
  8
0
 10
-13.752647399902344
 20
45.68701171875
 30
0.0
 11
-10.642091751098633
 21
47.23759841918945
 31
0.0
  0
LINE
  8
0
 10
-7.599025726318359
 20
48.85447692871094
 30
0.0
 11
-4.623449802398682
 21
50.53764724731445
 31
0.0
  0
LINE
  8
0
 10
-1.7153573036193848
 20
52.28711700439453
 30
0.0
 11
1.1252493858337402
 21
54.102874755859375
 31
0.0
  0
LINE
  8
0
 10
3.898367404937744
 20
55.984928131103516
 30
0.0
 11
6.603992938995361
 21
57.93327331542969
 31
0.0
  0
LINE
  8
0
 10
9.242134094238281
 20
59.947906494140625
 30
0.0
 11
11.812784194946289
 21
62.028839111328125
 31
0.0
  0
LINE
  8
0
 10
6.626348972320557
 20
66.21438598632812
 30
0.0
 11
4.055698871612549
 21
64.13345336914062
 31
0.0
  0
LINE
  8
0
 10
1.4175543785095215
 20
62.118812561035156
 30
0.0
 11
-1.288074016571045
 21
60.170467376708984
 31
0.0
  0
LINE
  8
0
 10
-4.0611891746521
 20
58.288414001464844
 30
0.0
 11
-6.901794910430908
 21
56.47265625
 31
0.0
  0
LINE
  8
0
 10
-9.80988597869873
 20
54.72319412231445
 30
0.0
 11
-12.785463333129883
 21
53.04001998901367
 31
0.0
  0
LINE
  8
0
 10
-15.828529357910156
 20
51.42314147949219
 30
0.0
 11
-18.9390869140625
 21
49.872554779052734
 31
0.0
  0
LINE
  8
0
 10
-10.74118423461914
 20
72.44609069824219
 30
0.0
 11
-7.776401042938232
 21
74.35041046142578
 31
0.0
  0
LINE
  8
0
 10
-4.87549352645874
 20
76.30023193359375
 30
0.0
 11
-2.038459300994873
 21
78.2955551147461
 31
0.0
  0
LINE
  8
0
 10
0.7347073554992676
 20
80.33637237548828
 30
0.0
 11
3.4440083503723145
 21
82.42269897460938
 31
0.0
  0
LINE
  8
0
 10
2.179447650909424
 20
88.2779312133789
 30
0.0
 11
-0.40211057662963867
 21
86.10062408447266
 31
0.0
  0
LINE
  8
0
 10
-3.0475306510925293
 20
83.96880340576172
 30
0.0
 11
-5.756829738616943
 21
81.88248443603516
 31
0.0
  0
LINE
  8
0
 10
-8.529996871948242
 20
79.84166717529297
 30
0.0
 11
-11.36703109741211
 21
77.84634399414062
 31
0.0
  0
LINE
  8
0
 10
-17.232723236083984
 20
73.99219512939453
 30
0.0
 11
-20.261371612548828
 21
72.13336944580078
 31
0.0
  0
LINE
  8
0
 10
21.73330307006836
 20
34.253658294677734
 30
0.0
 11
20.998580932617188
 21
35.08076095581055
 31
0.0
  0
LINE
  8
0
 10
20.302316665649414
 20
35.877559661865234
 30
0.0
 11
19.649459838867188
 21
36.63839340209961
 31
0.0
  0
LINE
  8
0
 10
19.043590545654297
 20
37.358585357666016
 30
0.0
 11
18.48809242248535
 21
38.03415298461914
 31
0.0
  0
LINE
  8
0
 10
14.31595230102539
 20
64.17606353759766
 30
0.0
 11
14.791194915771484
 21
64.60795593261719
 31
0.0
  0
LINE
  8
0
 10
14.303354263305664
 20
65.32209014892578
 30
0.0
 11
13.799016952514648
 21
66.07255554199219
 31
0.0
  0
LINE
  8
0
 10
13.334598541259766
 20
66.77700805664062
 30
0.0
 11
12.912424087524414
 21
67.4317855834961
 31
0.0
  0
LINE
  8
0
 10
12.534013748168945
 20
68.03423309326172
 30
0.0
 11
12.20028305053711
 21
68.5825424194336
 31
0.0
  0
LINE
  8
0
 10
11.911237716674805
 20
69.07603454589844
 30
0.0
 11
11.666349411010742
 21
69.51502227783203
 31
0.0
  0
LINE
  8
0
 10
11.46406364440918
 20
69.90060424804688
 30
0.0
 11
11.302339553833008
 21
70.23497009277344
 31
0.0
  0
LINE
  8
0
 10
8.67098617553711
 20
86.73182678222656
 30
0.0
 11
8.732233047485352
 21
86.7859115600586
 31
0.0
  0
LINE
  8
0
 10
8.732233047485352
 20
86.7859115600586
 30
0.0
 11
8.28329086303711
 21
87.39947509765625
 31
0.0
  0
LINE
  8
0
 10
7.6762566566467285
 20
88.24060821533203
 30
0.0
 11
7.084991931915283
 21
89.07125854492188
 31
0.0
  0
LINE
  8
0
 10
6.511995792388916
 20
89.88713836669922
 30
0.0
 11
5.960154056549072
 21
90.68392944335938
 31
0.0
  0
LINE
  8
0
 10
-20.58625602722168
 20
71.64208221435547
 30
0.0
 11
-20.391664505004883
 21
71.5543441772461
 31
0.0
  0
LINE
  8
0
 10
-20.175357818603516
 20
71.46988677978516
 30
0.0
 11
-19.9386043548584
 21
71.38914489746094
 31
0.0
  0
LINE
  8
0
 10
-19.682621002197266
 20
71.31261444091797
 30
0.0
 11
-19.408836364746094
 21
71.24080657958984
 31
0.0
  0
LINE
  8
0
 10
-19.11899757385254
 20
71.17433166503906
 30
0.0
 11
-18.81488609313965
 21
71.11375427246094
 31
0.0
  0
LINE
  8
0
 10
-18.498245239257812
 20
71.05980682373047
 30
0.0
 11
-18.17139434814453
 21
71.01309204101562
 31
0.0
  0
LINE
  8
0
 10
-17.836395263671875
 20
70.97445678710938
 30
0.0
 11
-17.495450973510742
 21
70.94438171386719
 31
0.0
  0
LINE
  8
0
 10
-17.150667190551758
 20
70.92330169677734
 30
0.0
 11
-16.8039608001709
 21
70.9115219116211
 31
0.0
  0
LINE
  8
0
 10
-16.45724868774414
 20
70.90902709960938
 30
0.0
 11
-16.11233901977539
 21
70.91580963134766
 31
0.0
  0
LINE
  8
0
 10
-15.770914077758789
 20
70.93142700195312
 30
0.0
 11
-15.434693336486816
 21
70.95561981201172
 31
0.0
  0
LINE
  8
0
 10
-15.105026245117188
 20
70.98761749267578
 30
0.0
 11
-14.783435821533203
 21
71.02667999267578
 31
0.0
  0
LINE
  8
0
 10
-14.471269607543945
 20
71.07176208496094
 30
0.0
 11
-14.169695854187012
 21
71.12186431884766
 31
0.0
  0
LINE
  8
0
 10
-13.879981994628906
 20
71.17550659179688
 30
0.0
 11
-13.603094100952148
 21
71.23143005371094
 31
0.0
  0
LINE
  8
0
 10
-13.339925765991211
 20
71.28824615478516
 30
0.0
 11
-13.091182708740234
 21
71.34466552734375
 31
0.0
  0
LINE
  8
0
 10
-12.857351303100586
 20
71.3995590209961
 30
0.0
 11
-12.435482025146484
 21
71.50070190429688
 31
0.0
  0
LINE
  8
0
 10
-31.127273559570312
 20
44.44324493408203
 30
0.0
 11
-30.873022079467773
 21
44.328155517578125
 31
0.0
  0
LINE
  8
0
 10
-30.587093353271484
 20
44.208168029785156
 30
0.0
 11
-30.27070426940918
 21
44.08340072631836
 31
0.0
  0
LINE
  8
0
 10
-29.924989700317383
 20
43.95459747314453
 30
0.0
 11
-29.551427841186523
 21
43.82251739501953
 31
0.0
  0
LINE
  8
0
 10
-29.15145492553711
 20
43.68812561035156
 30
0.0
 11
-28.72696876525879
 21
43.55282211303711
 31
0.0
  0
LINE
  8
0
 10
-28.279802322387695
 20
43.41802215576172
 30
0.0
 11
-27.812057495117188
 21
43.285484313964844
 31
0.0
  0
LINE
  8
0
 10
-27.32588768005371
 20
43.157012939453125
 30
0.0
 11
-26.823593139648438
 21
43.03409957885742
 31
0.0
  0
LINE
  8
0
 10
-26.30759048461914
 20
42.91813659667969
 30
0.0
 11
-25.780309677124023
 21
42.810298919677734
 31
0.0
  0
LINE
  8
0
 10
-25.24427032470703
 20
42.711570739746094
 30
0.0
 11
-24.702104568481445
 21
42.62276840209961
 31
0.0
  0
LINE
  8
0
 10
-24.156583786010742
 20
42.54450988769531
 30
0.0
 11
-23.610382080078125
 21
42.47710418701172
 31
0.0
  0
LINE
  8
0
 10
-23.066543579101562
 20
42.42091751098633
 30
0.0
 11
-22.527908325195312
 21
42.37590408325195
 31
0.0
  0
LINE
  8
0
 10
-21.997583389282227
 20
42.341922760009766
 30
0.0
 11
-21.478734970092773
 21
42.318603515625
 31
0.0
  0
LINE
  8
0
 10
-20.176218032836914
 20
42.78472137451172
 30
0.0
 11
-21.328319549560547
 21
42.31466293334961
 31
0.0
  0
LINE
  8
0
 10
-12.24764633178711
 20
71.5450439453125
 30
0.0
 11
-12.186878204345703
 21
71.55879974365234
 31
0.0
  0
LINE
  8
0
 10
17.985248565673828
 20
38.66206741333008
 30
0.0
 11
17.74140167236328
 21
38.97614669799805
 31
0.0
  0
LINE
  8
0
 10
21.73330307006836
 20
34.253658294677734
 30
0.0
 11
21.925331115722656
 21
34.04073715209961
 31
0.0
  0
LINE
  8
0
 10
-30.43488311767578
 20
14.597065925598145
 30
0.0
 11
-34.333560943603516
 21
13.268695831298828
 31
0.0
  0
LINE
  8
0
 10
-34.333560943603516
 20
13.268695831298828
 30
0.0
 11
-34.31251907348633
 21
13.258997917175293
 31
0.0
  0
LINE
  8
0
 10
-33.50883483886719
 20
12.888715744018555
 30
0.0
 11
-32.64878845214844
 21
12.505548477172852
 31
0.0
  0
LINE
  8
0
 10
-31.737409591674805
 20
12.11182975769043
 30
0.0
 11
-30.78056526184082
 21
11.710559844970703
 31
0.0
  0
LINE
  8
0
 10
-29.785390853881836
 20
11.304872512817383
 30
0.0
 11
-28.75991439819336
 21
10.89852237701416
 31
0.0
  0
LINE
  8
0
 10
-27.712594985961914
 20
10.495318412780762
 30
0.0
 11
-26.651634216308594
 21
10.098799705505371
 31
0.0
  0
LINE
  8
0
 10
-18.490306854248047
 20
12.813356399536133
 30
0.0
 11
-18.49030876159668
 21
14.533823013305664
 31
0.0
  0
LINE
  8
0
 10
-22.128150939941406
 20
11.653444290161133
 30
0.0
 11
-22.12815284729004
 21
14.53382682800293
 31
0.0
  0
LINE
  8
0
 10
13.40589714050293
 20
32.41067886352539
 30
0.0
 11
13.405895233154297
 21
35.85401916503906
 31
0.0
  0
LINE
  8
0
 10
13.750677108764648
 20
36.087806701660156
 30
0.0
 11
13.692745208740234
 21
36.04852294921875
 31
0.0
  0
LINE
  8
0
 10
13.40589714050293
 20
32.41067886352539
 30
0.0
 11
17.04374122619629
 21
32.41067886352539
 31
0.0
  0
LINE
  8
0
 10
13.692745208740234
 20
36.04852294921875
 30
0.0
 11
17.043739318847656
 21
36.048519134521484
 31
0.0
  0
LINE
  8
0
 10
-17.232723236083984
 20
73.99219512939453
 30
0.0
 11
-15.799182891845703
 21
74.9129867553711
 31
0.0
  0
LINE
  8
0
 10
-10.74118423461914
 20
72.44609069824219
 30
0.0
 11
-12.186878204345703
 21
71.55879974365234
 31
0.0
  0
LINE
  8
0
 10
-12.161336898803711
 20
76.7803955078125
 30
0.0
 11
-12.952922821044922
 21
76.7803955078125
 31
0.0
  0
LINE
  8
0
 10
4.443726062774658
 20
83.22832489013672
 30
0.0
 11
4.443724155426025
 21
85.6897964477539
 31
0.0
  0
LINE
  8
0
 10
8.67098617553711
 20
86.73182678222656
 30
0.0
 11
7.4355034828186035
 21
85.68980407714844
 31
0.0
  0
LINE
  8
0
 10
-22.117130279541016
 20
48.38825988769531
 30
0.0
 11
-22.267864227294922
 21
48.32240295410156
 31
0.0
  0
LINE
  8
0
 10
-22.267864227294922
 20
48.32240295410156
 30
0.0
 11
-22.267866134643555
 21
45.17765808105469
 31
0.0
  0
LINE
  8
0
 10
11.302339553833008
 20
70.23497009277344
 30
0.0
 11
11.270830154418945
 21
70.30760955810547
 31
0.0
  0
LINE
  8
0
 10
-1.288074016571045
 20
60.170467376708984
 30
0.0
 11
-4.0611891746521
 21
58.288414001464844
 31
0.0
  0
LINE
  8
0
 10
-20.758159637451172
 20
71.73274993896484
 30
0.0
 11
-20.848217010498047
 21
71.78927612304688
 31
0.0
  0
ENDSEC
  0
EOF
